<mxfile host="app.diagrams.net" modified="2023-06-19T22:16:35.470Z" agent="Mozilla/5.0 (Windows NT 10.0; Win64; x64) AppleWebKit/537.36 (KHTML, like Gecko) Chrome/114.0.0.0 Safari/537.36" etag="gnAZFTMrXS8_qs1dj-F0" version="21.3.8" type="github">
  <diagram name="Page-1" id="c9db0220-8083-56f3-ca83-edcdcd058819">
    <mxGraphModel dx="1593" dy="4347" grid="1" gridSize="10" guides="1" tooltips="1" connect="1" arrows="1" fold="1" page="1" pageScale="1.5" pageWidth="826" pageHeight="1169" background="none" math="0" shadow="0">
      <root>
        <mxCell id="0" style=";html=1;" />
        <mxCell id="1" style=";html=1;" parent="0" />
        <UserObject label="" id="3d76a8aef4d5c911-1">
          <mxCell style="html=1;shadow=0;dashed=0;shape=mxgraph.bootstrap.rect;fillColor=default;strokeColor=none;whiteSpace=wrap;rounded=0;fontSize=18;fontColor=#000000;align=center;" parent="1" vertex="1">
            <mxGeometry x="44" y="-1641" width="1376" height="2050" as="geometry" />
          </mxCell>
        </UserObject>
        <mxCell id="3d76a8aef4d5c911-2" value="Company" style="html=1;shadow=0;dashed=0;fillColor=none;strokeColor=none;shape=mxgraph.bootstrap.rect;fontColor=#999999;fontSize=14;whiteSpace=wrap;" parent="3d76a8aef4d5c911-1" vertex="1">
          <mxGeometry width="115" height="39.07046476761619" as="geometry" />
        </mxCell>
        <mxCell id="3d76a8aef4d5c911-3" value="People" style="html=1;shadow=0;dashed=0;shape=mxgraph.bootstrap.rect;fillColor=#000000;strokeColor=none;fontColor=#ffffff;spacingRight=30;whiteSpace=wrap;" parent="3d76a8aef4d5c911-1" vertex="1">
          <mxGeometry x="115" width="129.375" height="39.07046476761619" as="geometry" />
        </mxCell>
        <mxCell id="3d76a8aef4d5c911-4" value="84" style="html=1;shadow=0;dashed=0;shape=mxgraph.bootstrap.rrect;rSize=8;fillColor=#ff0000;strokeColor=none;fontColor=#ffffff;whiteSpace=wrap;" parent="3d76a8aef4d5c911-3" vertex="1">
          <mxGeometry x="1" y="0.5" width="25" height="16" relative="1" as="geometry">
            <mxPoint x="-30" y="-8" as="offset" />
          </mxGeometry>
        </mxCell>
        <mxCell id="3d76a8aef4d5c911-5" value="Violations" style="html=1;shadow=0;dashed=0;fillColor=none;strokeColor=none;shape=mxgraph.bootstrap.rect;fontColor=#999999;spacingRight=30;whiteSpace=wrap;" parent="3d76a8aef4d5c911-1" vertex="1">
          <mxGeometry x="244.375" width="158.125" height="39.07046476761619" as="geometry" />
        </mxCell>
        <mxCell id="3d76a8aef4d5c911-6" value="42" style="html=1;shadow=0;dashed=0;shape=mxgraph.bootstrap.rrect;rSize=8;fillColor=#ff0000;strokeColor=none;fontColor=#ffffff;whiteSpace=wrap;" parent="3d76a8aef4d5c911-5" vertex="1">
          <mxGeometry x="1" y="0.5" width="25" height="16" relative="1" as="geometry">
            <mxPoint x="-30" y="-8" as="offset" />
          </mxGeometry>
        </mxCell>
        <mxCell id="3d76a8aef4d5c911-7" value="Statistics" style="html=1;shadow=0;dashed=0;fillColor=none;strokeColor=none;shape=mxgraph.bootstrap.rect;fontColor=#999999;whiteSpace=wrap;" parent="3d76a8aef4d5c911-1" vertex="1">
          <mxGeometry x="402.5" width="115" height="39.07046476761619" as="geometry" />
        </mxCell>
        <mxCell id="3d76a8aef4d5c911-8" value="Settings" style="html=1;shadow=0;dashed=0;fillColor=none;strokeColor=none;shape=mxgraph.bootstrap.rect;fontColor=#999999;whiteSpace=wrap;" parent="3d76a8aef4d5c911-1" vertex="1">
          <mxGeometry x="517.5" width="100.625" height="39.07046476761619" as="geometry" />
        </mxCell>
        <mxCell id="3d76a8aef4d5c911-9" value="Profile" style="html=1;shadow=0;dashed=0;fillColor=none;strokeColor=none;shape=mxgraph.bootstrap.rect;fontColor=#999999;whiteSpace=wrap;" parent="3d76a8aef4d5c911-1" vertex="1">
          <mxGeometry x="948.75" width="100.625" height="39.07046476761619" as="geometry" />
        </mxCell>
        <mxCell id="3d76a8aef4d5c911-10" value="Log Out" style="html=1;shadow=0;dashed=0;fillColor=none;strokeColor=none;shape=mxgraph.bootstrap.rect;fontColor=#999999;whiteSpace=wrap;" parent="3d76a8aef4d5c911-1" vertex="1">
          <mxGeometry x="1049.375" width="100.625" height="39.07046476761619" as="geometry" />
        </mxCell>
        <mxCell id="weA9xtiZrkl5eeY-r4LS-11" value="" style="rounded=0;whiteSpace=wrap;html=1;" vertex="1" parent="3d76a8aef4d5c911-1">
          <mxGeometry x="1" width="1150" height="761.8740629685158" as="geometry" />
        </mxCell>
        <mxCell id="weA9xtiZrkl5eeY-r4LS-12" value="" style="shape=image;verticalLabelPosition=bottom;labelBackgroundColor=default;verticalAlign=top;aspect=fixed;imageAspect=0;image=data:image/jpeg,/9j/4AAQSkZJRgABAQEAkACQAAD/2wBDAAcFBQYFBAcGBgYIBwcICxILCwoKCxYPEA0SGhYbGhkWGRgcICgiHB4mHhgZIzAkJiorLS4tGyIyNTEsNSgsLSz/2wBDAQcICAsJCxULCxUsHRkdLCwsLCwsLCwsLCwsLCwsLCwsLCwsLCwsLCwsLCwsLCwsLCwsLCwsLCwsLCwsLCwsLCz/wAARCAU2Au4DASIAAhEBAxEB/8QAHAABAAIDAQEBAAAAAAAAAAAAAAQFAQYHAwII/8QAYRAAAQMDAQMIBwMGCAsFBAgHAAECAwQFEQYSITEHExRBUVST0iJSYXGRktEIMoEVI0KhsbIWJHJzdcHh8BczNTY3OGJ0grPxJTRDU6IYwsPTJkVXY2SDhLRGZXaUo6XE/8QAGwEBAQADAQEBAAAAAAAAAAAAAAECAwQFBgf/xAA4EQEAAgIBAgMFBgUEAQUAAAAAAQIDEQQhMQUSQRMUUWFxBiKBscHwMpGh0eEVNELxciMkUlOS/9oADAMBAAIRAxEAPwD9IgAAAeckjYo3yO4NRVX3IB6AgUd0hrZHRxNeiomfSb1fEqbXWVMt0YySZ72OzlFXdwUDZQDQuUnlOpOTpts563SV8lfK7bbG/ZWKFmOclXDVzjKbt2e1AN9Br+pLrd6CzQ1en7H/AAinkkanMNrGU6c2qKu3tvyi9SY68miRcq2tJ9SVFgj5MnLdKaBtTLB+W4PRjVcIu1s7K5XqRcgdbBptfrafT3J1PqfUllltdRAnp2+OoZUO2lfsMaj24au1lF9iL7CFateXqHU9ssuqtMtsj7wki0UsVa2pbtsbtOjkw1Nl2OCplFXcgG/g1HU9/wBWWq5RQ2HRTr/TOi231CXOKm2H5VNjZemV3Ii54el7DU7Hyra01HSzVdp5MnVMEMz6eR/5bgbiRi4cmHNRd3bwA60D5aqq1FVNlew0TlH5VrJyb0jErGrV3OobtQ0MTkRz04bTl37LcpjOFVepFwuA30H5Yj5UeWPlCndJpe2yUdFlzUdSUqbG7qdNJlNpE7FT3H3LW/aG03F0ueK4VMbVyrEZDV5Re1rdp2PdjAH6kBwPQH2kqW610dq1hSRWqqe7m0rI8pDtZxh7XZVntXKpnjhDvgAAAAAAAAAAAAAAAAAAAAAAAAAAAADm+quVKpterV0rpfTlRqW+RxJNURslSGOnaqIrdp6oqb0VF6k9JN+VwB0gHP8AQPKa3V15r7Fc7NU2HUFsTamo5n84is3JtNdhM73J1cFRUVUU2mh1JZ7leKy1Udypp66gx0mBj8uiz2p/fAFuDjl6+0PZ6TU1La7NbJb1Ty1LaWSvZLzUCSKqJhjtldvCLleCdiqm833W+tLZoPTNRe7m5yxtVI4om/fmkXg1ufcqr2IiqBswOMN5b73amU1x1Zyf11lsdXIjW1iT86seeG2zYRd/twuOCKdhhljqIGSxPa+KREc1yLlHIu9FRQPYHMNfcrNdpHXFv0tbdLS36tr6ZKliR1XNO+89Fajdhc4SNVzlDysfLLz+qKXT+qNLXHS1bXrs0rqh3ORSuVcI1HbKb1VcbkVM8QOqA5jrzljpdCa+tWna21rLBXxxyyVvSNlIGvkcxVVmyuUTZyvpIdIkkZDE+WR7WMaiq5V3IiJxVQPYHM+TLlgg5Sb1d6OltLqKG3ojo53z7azNVyoi7OymzuTOMqdMAAAAAAAAAAAAAAAAAAAAAAAAAAAAAAAPzVfOXLUmhdUXqlutRT3msWVzYqCHZbTUDUd6OZEbtPfs4y3OEzvXayiR7vy/amqny2GtjZpC7RzN/jbGJKxi4+5Kx7XKjVyiq5qqqdipkD9OgqtPSV82nKCS6pElfJTRrUc0uWc4rU2tlU3YzwweWqL43TWlbpfHRc+lvpnz83tbPOK1FVG5wuMruzhQLoHMqXXvKFWUcVTByVOfDMxskbvy7TplqplFwqIqbu02HUd/1VbOh/kTRq3zno9qf/tKKn5h270fTT0uvenYBtgOXJynaqo9VWOzXrQC21bzUczE9LvFOqIm979hjVVUa3evBPaWuo+UGqtF4utJa7C66x2SlZWXOTpSQrExyOcjWNVq7b9lquxlEx15UDfAUddqm1W/Rz9S1NRs2tKZtUkmN7mORFaiJ1uXKIidarg9dP3Ctulho6+4211rqqliSOpHSbawou9EcuE9LGMpjcu4C3BqOq6+OKeaOsnlht1DQyXCq5rc57GZyn6vxOBSfaD06kr0i5PnvZnc593e1VT2ojFx8VA/VYPyh/7Qlg/+zn//AHL/AP5Z1Lkq1FpblOttdLDp99BU0L2JNA6qfKmH52VR27OdlepOAHXQUP8AAqwdw/8A8r/MQ57fHpy40E1vkkjp6qobTSwK9XNXazhyZzhUwBtRhvAIqLwDeAGSl1Jqiz6QtS3S+1raOj20j5xWOf6S8ERGoqrw7C6OX8vOi7xrjQNPbrHTtqa2CujqeaV7WbbUY9i4Vyom7bzxA9dZcpVNJyL3jV2j7hFUrTqyKKZ0SojHrKxjsteiLlEdlMp2Gt8g/KHqLXVk1KzUVYytfQMi5qRImRLh7ZMoqNaifopjcV2nuSrVNF9nLUOlKikihvNxrekxU6zMVMI6HcrkcrcqkS439aZLLkC5OdR6KtWo236jZRS3HmmQx86yRfQSTKqrXKn6aY3gdK07/lB/80v7UPCy/wCWIf8Ai/YpPs1uqaaqfJOzYRW4T0kXrTs9x5222VNPcWyysajGZ37Sb8oqAbAcBrtY6NvPKvrD+FF5gpqSlofyFSRyNcuUdnn3phFRFR/oovHB3C4rWLbqpLckXTVid0fnnKjOcwuztKiKuM4zhF3Gucnmim6P0VRWmr5iqrm7UtZO1NrnpnuVzlyqIqpvwiqiLhEAp+QzUrdQ8mVLA6obU1Foc63yyJuR6M/xbkzvwsas39uTytH+s1qH+g4P30LmzaRrrHyn3m90j6RlkvFNEs1OjlSRlSz0Uc1qN2dlW8VzlV6j6otK19LyuXTVLpad9DV22KkZG1zudR7XZVVTZxj8VX2AVvK9c6N+modLSW2S71+pFdS0lGx6R7Tm4csivXKNRi4dnC78dWTTtMz11h1hIvKbcH1WorLQyS2d7pESkmhSP86+N2yiulwio5Xb8b8dZ0DXWjrjf6qzXmw1sFDfLFK+WlfUsV0MjXojZI349JEVE4pv+OU1XVegNacplFDbNUv09aqKnkWVJaBslRUK9EVE2VeiI1q9acVA6Bom+VGptF2q91VMylmr4EmWJiqqNReGFX2YNR5B/wDM68f05WfvIbZoujvds0tR26/NoVrKSNIEfQq7m3saiI1cOamyuOKJlOzsSt5N9K1+jrDcKGvlp5pKm5T1bFgc5URj1RWouWpv7er2gboaZqzk00xrS5UNxvVsWeqoVRUex2ysrEyvNyes3O/HUvBURVzuYA/L991fyq6v1TXaW0paKmwU1tVIlpKdrYXQM/QV8u5rcoiqmyqIqcM4yQa2j5duT2mfep7hcaykgTnJlfVpWsY1N67THKqoiJxciYROtD9CcoFivOoNH1tv09d32m5SpmOdm7ax+grk9JqLw2m7092UXmvITpDX1tuFbc9T3K4UtEivhS31T1kWdyKuX+kq7LUXgqb3duzxCz0vpay8rtntOsdV6U6DdIlyrU9GOuaiei9zd7nMVd6I7fuxlzePXmtRjUa1MIm5EQ+kRGphNyIZAAAAAAAAAAAAAAAAAAAAAAAAAAAAanqS5aX0HSXDVdwpKWileiNlqY4mpPVO/RZlMK9VxuRV3YyuETJthxHX/Jlygar5RIb1TXCwTW2gVFoKOvdI5jPRTKvjRitVVdv4rwTqTAE/kosF2vOr7tynX+ldQz3mJIKGi646dNnDne1UYzHDO9cb0N6s9k0tQapu9faIaNl5qlTp7opdqTK702m5XZzx4JnjvKTSNDypQX9r9WXSwVNq5t2Y6Fr0l2v0fvMRMdu8ubLoSyWDVN21FQwSMr7sual6yqreOV2U6srvUDlPLfZrfYIdAW+1UMVFSRXVEbFE3CJvZv8Aaq9arvXrPT7SlZJRXLQ8vR+l00VdJLJTKuEmc1Yla1dy8UV6fiblyq8n911vUackt1RRxJaq5KmbpD3Ny3Ldzdlq5Xd1495ZcpegYOUHS6UCz9ErqaVKikqkbnmZE7eC4VNy/gvUBz/V9w5VNB2ZNU3S9Wm922OWPptsZStYyFrnIiIx+ztKmVRMqucqi4U7PaLhBdbJQ3Gl3U9XBHPF/Jc1HJ+pTjlz0Dyp65oaawauvdlp7NFIx1TJQNcs9Ujd6cWo3Of5KZ34XB2a30MFst9LQ0rObpqWJsETPVa1Ea1PwRAOD8qV+i0z9pfSt4no6ytjpbYuYKRiSTPytQ30WqqZxnK7+Bm/1145ZdZaXhtelrtarRaatKupr7jDzK4RzVVrMZTOE3IiqqqqcETJvl80Ddrly56f1rT1FGlutlG6nlje9yTOcqTJlqI1Wqn51OLk6zowH575XNMxav5frVY5Gt2qvT0yRKv6Eqc+5i/g5EPSs5Qa26/Z4obbA5y6luc7dOujX76TIuw9V68rHjK9SvQ366aGudby5WbWUU1KlBQUD6WWNz3c8r153CtTZVuPzicXJ17inoOR2Sj5cajWDqiB1n2n1dPSbTtplW9qNe5W42cLvdlFznG7cBQ8i9jp9M8r+tbLSf4mhgpYUXhtqjUy5faq5Vfap3g0DSuh7nZOVPVupamelfR3rmujsje5ZGbKYXbRWoiezCqb+AAAAAAAAAAAAAAAAAAAAAAAAAAAAAAfgOCC01V+ui6uuVxo6rnnK9aalbO58iuXnNrae3GF9+fYfOvb5Sam17dbzQJK2lq5tuNszUa7CIib0RVROHad+1r9nau1bfLtfo7pQUNfW1T5GU0cDuY5vcjVc773OLjacqNVFVVx2lFaPsrXVkcktzv1ClRGm1DDDE+SJ7+KI9ztldleC4TIHa+SVateSPTK1uee6DHjPHYx6H/owffKdZ7nf+Ta82mzwtnr6yFIoo1ejUXLm7W9yoiejk2K3sljttLFOyGOZsTUkZBlI0ciJlGZ37KLw9hX6r0+3U+mK6zdLnonVcey2pgVUfC5FRzXJhU4KiZTKZTcBot2pOUvTGnZtQx6jt1W23w8/LZW0CNhSJiZcxk2dtXI1FwqpvXqQ6HYbzBf9O2+8wehBXU0dS1Fd91HNR2F9qZwpz2tsPKnfbHJpu7V+noKGoj6PVXKm511RLCu52zGqI1Hq3KL1b9xsuptLXN/Ju7SulqiCif0eOhZPUPcnNQIiMcqbLVy/YTCcN65ygFDoJy621xd9eyenQQ7VrsqLw5li/nZk/lv3IvHCKhK1HojUE96v9Tp+vt8EWpqSOlrulter4FY1zEki2dyrsOxh2N6Iueo3KxWWk09Y6K0UDObpaKJsMadeETGV9q8VXrUg6vo73ctPz0FiqoKKsqFSJ1VIrkWCJVw97ERFy9G8EXCZ353Ac9qKu2z/wAYnc9+ieT+JrE2Uz0+siajWonU5se5E4Ir17ENz03rKout/msd1sstnuaUra+KF87ZkkgV2znabwc12EVq8M7soLnoK3VPJdPoqhxSUi0vR4V4qxyLtNe7tXaTaXtXJG07pzULtaP1PqaS3MqoreltggoXve1UV/OPkcrmoqKqomGoi4TrAjco/wDk/Vf/APStX+x5+Hz9+ajtkk1V0lKPp9PNTPo6um2sK+J3HHbx3nHZfs/6Ikle5tHrSNqrnYY2JUT2JmNV+KgfmU/SH2Rv/wCLv/0f/wAc9/8A2fdEd31z8kP/AMs3/QOnbFyc2+ppbLY9QvWqejpp6iBHSP2co1F2cJhMrjCdYHTCg1R/9T/0nD/WP4Uf/wAjvX/9r/aR3Pq7/caJVoJ6OipJUnV1Q3Zc9yfdRGgS9Nw1MEVx6Q1yNfcKh0SL6iv3Y9irlS7bwMmG8AMgAAAAAAAAAAAAAAAAAAAAAAAAAAAAAAAAAAAAAAAAAAAAAAAAAAAAAAAAAAAAAAAAAAAAAAAAAAAAAAAAAAAAAAAAAAAAAAAAAAAAAAAAAAAAAAAAAAAAAAAAAAYbwMmG8AMgAAAAAAAAAAAAAAAAAAAAAAAAAAAAAAAAAAAAAAAAAAAAAAAAAAAAAAAAAAAAAAAAAAAAAAAAAAAAAAAAAAAAAAAAAAAAAA6gPngDnmpuUyO03VlFb6dK7YkRkz8rjPqtVP0vbw/q3Gy3qjvltjrqOXnI3ce1q9aOTqVDffjZcVIyWrqJc9ORjyXmlZ6wtAAaHQAAAAAAAAAAAYBHqKuCljdLPNHDG3i6RyNT4qWImekJM67pCApWassKv2EvNBn/AHhv7clpFPHPEj4pGyMXg5jsov4oJpeO8aY1yVt2l7gAjMAAAw3gZMN4AZAAHwq4xhDxnqIqWB8s0jY4mIque5cIiJxVVMVdTDR0z6iokSKGNFc5zlwiIhxjVOrLhrm6ss1nik6Ir8JGm5ZVT9J3Y1OOF4cV9nbxOHbk2+FY7z8HFyuVXjx8bT2hN1Byg3a936Kh006VkaPxGrG+lK7tXPBvs7N6+zrNFz6UcPSdlZ+bbzmOG1jfj2ZNa0Voml0tSKsiJNXyJ+cm7P8AZb2J+39SbchlzsmG2seCv3a+vrKcOmWN3yz1n0+D6AMO+6pwO58tVF4GTQOSBf8A6MVi/wD4t37jDfjZlx+yvOOZ3ppxZPaUi2u6JHcKKaslpI6qJ9RCmZImvRXMRe1OKEtOBq9spNPRawuMlE7/ALV2f4yz0sIi4VVTKY3rjOFJV11hYrJLzNfXxxy4zzbWq5yZ7Uai4/EThmbRFImekenX/ojLEVmbTEfiv+owmCrtd+t17pnTW6sZUtZudjKKnvRcKnwNDn5QaX+HlPJFdXfkdIFSVuw7Z28O/RxnjjqNmLiZMtrVrE7rG+0/y+rG/Ix44ibT3dQyhhFVStjvduntKXNtYxtEqK7nXZamEXHXheJWU/KBpmqqujx3RjXquEc9jmtVf5SoifrNdcOS2/LWZ136T0Zzmxxrdo6tpBhMLvQya20AAAAAAAAAAAAAAAAAAAAAAAAAAAAAAAAAAAAAAAAAAAAAAAAAAAAAAAAAAAAAAAAAAAAAeTnbLSm1NQXO52volrro6OSV6JLI/OUj/S2cdf8AfKGtazrLlcNVW7TdBVvo0qI1lfKzKLj0uzC7kau7O89Kfk0SKpjlXUFe9Y3o7Cu3Lhc9p248NMcRkveImesRrbitktebVrXcdu+lVqmxUWnnaWoKNmGpWor3L96R2WZcq9psUOlKi0apS42epjp6Sf8A73Svzsr7WIm7Pwx7lwV/KOjluumfZWp+8wv9S6WTUSUqLcamk5ja/wAT+lnHH3YOi2SZx4/PbUWidzrfr8GimKPaW1XtrXp6L5r0Vu5T6OVX+x3LRMMd2t96q52xytbJHMq4VF7UzhU6uH4nT6SoSpo4pkTCStRyfimThzceKRF6W81Z/DrDsxZptM0tGphJABodAAAAAAwAQbrXx2y1VVZJ6TIInSKnbhM4/EVrMzEQkzERuWt6v1g60TR2q1RdLu9RubGm9I0XrX29ifiu7jV0PJzNdZkrtUXCerqHb+bY/DWezP8AU1EQ9OTm0vq4anUlwXnKuvkdsPX9BiLhcdmVTHuahvzW4cvpHo5M3u0+yw9Jjvb1mfhHwiHBTF7x9/L29IaovJppbm9ltswvbz0mf3ilqtA3SwvdW6WuUsbk3uppVRUk9meC+5U/E6ONxopzM9Z+9bcfCesf1bbcXFMfdjX06NV0hq2PUMUlPPH0e5U+6aFd3DdlM78Z4pxRTaMojnJsnOte0btP3yg1XQtw5sqRVLW/+Iipuz70yi/gdBp52VNPHNGuWSIitXtRUyheRjpqMuONVt6fCY7x/YwXtucdu8f1hJQAHI6ww3gZMN4AZAAHKeWGW6tSmZHt/kxU9LY4LJldzvwxj8SdyUw2VlofJSO27hwqOc+8idSN/wBn9q8Tfa2hp7hRyU1VE2WKVMOa/gqHGNQ6buegbyy62yWRaTa/NycdjP6D+1F+C+897i5Kcrj+6b8tvT4T9XjZ8dsGb3iY3H5O4YMcTV9IazpdT0OU2YauJPzsWeH+03tav6us2lfaeJkxXxXml41MPUx5K5Kxes9H0fLvuqfR8u+6vuMYZz2c+5HlVdM1ue+O/cYdAzu3HHNBa2tmmrLU0tYyoWSSpdKmwxFTCtananYbnbOUuy3S4QUNO2q56ZyMbtxYTK9u89HmcXLOa94rOvi4OLnpGOKzPVX2Fu1yr6g2f/Kb/wC4U1rq4dH3+5N1FbpXyVMyujrOb20Vqqq8V6l4rjK9SpuLvT27lX1Bj/ym/sYfTdeMoqypoNT0TqKRq4a5jFfHI3t61/ah0TNvNNax5omtdxE6nt6fq0xFdRaZ1O5+ibp+m01W3ea72KdizSR7MscS7LcL1qxURU4ewpay30ycs9BGtPEka0iqrNhNlV2ZOrgeWmqZLryjfliy0T6S0xxK2V7mc22Zyoqei334X8MrvU9dW1LtP8pFvv1TTyyUKU/NOfG3OHemmOz9JFFKTXNatbTMzWek94nXZJmLUibV6Rb8Pqnco1nqaiy0TqCjdPBSzc5LSxNxtt9iJ2b+HbkiM1DojUdu/JtbEyhdhGIyWLmljVOx6JhvxQubtquqjsVJebVbnV1BIqrNuVHtYi4yifgvu3Guaj1ZpzUlmmpaOilrrjK3ZhZ0f043rwXa9nsVc8DHBW80ilonpM9YnrHXruP+mWWaxebVmOsdpjv9HRLfSw2+3QU8DnPhhYjGK52V2UTdv69xNKDR9DV2zTFBS1zvz8UeHpnOMqqon4IqIbAeTkjV5je+s9fj83pY53SJ1pkAGLYAAAAAAAAAAAAAAAAAAAAAAAAAAAAAAAAAAAAAAAAAAAAAAAAAAAAAAAAAAAAAAAAAADnt3/032P8A3R37JjoCcDn93/032P8A3R37JjoCcDq5H8OP/wAf1lycf+K/1/SGgcpO+6aa/wB8T95hvzeBV3OzUV3npZKqDnHUkqSxLlUw78OKbkLVv3TDLli+OlI713/Wds8eOa3tafXX5NL5Vf8AMaf+dj/abNZf8iUX8xH+6hrXKr/mNP8Azsf7xstk/wAiUX8xH+6huv8A7Wv1n9Gqn+5t9I/VYAA4naAAAAAPlfumrco22mg7lsccM+G23P6jZ1XO4gXq3NutkrKFztnn4nMRexVTcv4LvNuC8UyVtPaJif6tOas2x2iPWFLZVqIeTSlW3Na+qShRYk7ZNnP7Sp5Oa7UlTJXLekqeYZjYdUM2XI/O9Eyibscew9OTO7KtomslV+brLdI5qxrx2M/1LlPgb0meCHXnvOGcmOaxO53v1+PT6ufDT2kVvFu0dnNbfX6wk5S1hqWT9A516OYrMRpFv2VRcY7MLnKqfeu67VlNqKkis7KnomwipzEe2jn5XKO3L8F3YOkrjgYRDGOZWLxf2cdI1r0+qzxZ8s1809Z21DlEaq8nNb0hGpI5IsonBHbbc4LjSG1/A60K7j0SL4bKY/UapykVr7nVUGl6JduoqZWvlxv2Wpwz+8vsab5SU8dJRw08TdmOFiMansRMIMv3ePWs95mZ/DpCYvvZ7Wj0iISgAcLuDDeBkw3gBkAAYI9XSw1tNJT1ETZYpE2XMemUcikgyImYncMZjfSXFr3om76Xv8ddp6OeaFX5jdEiufGvquTrb7eGOJ12idM+ihdUMRkysasjU4I7G9E/EkrlU3BPu8Tq5HLvyKxF46x6+sufDxq4ZmaT0n0fYAOV1MbKdiDZTsQyAx8rGE7D4WNr27L2tVOxd59gLo2U7Bsp2AZBphGoiYTgfLY2Ncrka1FXivaegG00AAMgAAAAAAAAAAAAAAAAAAAAAAAAAAAAAAAAAAAAAAAAAAAAAAAAAAAAAAAAAAAAAAAAAAAABzi/yso+WSzVUz2wwrTLHtv3Irl5xETPvVPidBTG1ucmz2FPqHS9u1HTtironOczKxyMdhzc8cL7exdxrf8Agesmf+/XHxGeQ7pthzUr57TWaxrtv1n5x8XnxTLitby13Ezvvpv+0nsG0nsNB/wP2Pvlx8VnkH+B+x98uPis8hj7PB/9k/8A5/y2+0zf/H+v+H3ypVUDNKup3yt52WRmwm1vXC5VcdiG32pix2ikjcnpshYip7Uahqtt5MbHba1lSvSap7FRWpM9FblOG5qJn8dxuzU9EmfJT2dcOOZnUzO9a76/sYaX89r2jW32ADkdYAAAAAGF4GQBoOq9KVr7hHfrAvM3SL7zOCSom73Zxuwu5UFn5S6NzujXyCW110e6RHsXYz+1PxT8Te9xX3KyW27NRtfQwVOOCyMRVT3LxT8Dsrya3pFM1dxHaY7x8vnDjnBalpvinW/T0Ql1np5ke2t6o8fzqKvw4mvXXlIjqJOgaZpZblWSbmv2FRjPbhcKuPwT2lsnJzpZkm3+Sm5/nX4+G1guqC0UFsh2KGkgpWO4tjYiZ9+OJfNxadaxa0/PUR/RjNeRfpaYj6d2u6P0hLapZLrdZelXap3veu9I0XqRe3tX8E3cdx6h1Geo5b5LZJmbd3Tjx1x11DIAMG0MN4GTDeAGQAAAAAAAAAAAAAAAAAAAAAAAAAAAAAAAAAAAAAAAAAAAAAAAAAAAAAAAAAAAAAAAAAAAAAAAAAAAAAAAAAAAAAAAAAAAAAAAAAAAAAAAAAAAAAAAAAAAAAAAAAAMN4GTDeAGQAAAAAAAAAAAAAAAAAAAAAAAAAAAAAAAAAAAAAAAAAAAAAAAAAAAAAAAAAAAAAAAAAAAAAAAAAAAAAAAAAAAAAAAAAAAAAAAAAAAAAAAAAAAAAAAAAAAAAAAAAAMN4GTDeAGQAAAAHnhNkJlUOScpeprrSXvoVJUTU8MTGuxE9Wq9V3qqqm/2YLzkt1HV3m3z09dK6aWDZVHPdlytXPFevCpx9pdvWv4TmpxI5czGvh9XQuCHyrka3Kmeo5TymatrKK4toKOofAyNiOkWNytcrl4JlN+ETf+JHJwuHk5mWMWPu6s1UXegwcu5L9WVlxq5LdWVEk/5vbifI7Lty4VMrvXjn8DqKdY9E5nEycPLOHJ3fG11GePDec85UNS1tqhgoaCZYXzZdI5jsO2U3IiL1ZXPwKzkt1Lda66SUNXUSzxOiWT86quVqoqJuVd+N/Au3ZTwnNbiTzNxr4fJ1oAEeSAAAAAPhUyNnCGeJS6puUlp03WVkP+MYz0c78KuERfwyVljxzkvFK956LhHJ/sn0cBsusbvHfYpX3CeVFkTnI5JVc16Ku9MLuT2Y4He4nbTGu7UES9DxDw3L4fatck729QAR5oAAAAAAAAAAAAAAADzVTPsNLu/KZZrVc30TmzzPjdsufGiKiKnFN6pnHWbXQ1kFwooqume2SKZqOa9OtFK3ZOLlxVi+SsxE9kwAEaQAAAAAAAAAAAAAAAAAAAAAAAAAAAAAAAAAAAAAAAAAAAAAAAAAAAAAAAAAAAAAAAAAAAAAMN4GTDeAGQAAAAHJeWG37E9Fc2N+8ixOX3b2/tUqOS2u6Nq1kKr6NRG6P8U9JP3TovKLbW3HRlUuzl8GJm/hx/9OTitjrvydfaOr6opkVfci7/ANRjPSdvvvDJ988Kvg9Y3H6w/STk3OPzpqivW6aorqtFy2SZ2yv+ynot/UiHddR3L8maZra5HYcyJdhf9pdzf1qhw/SVudd9WUtLjLdtHO/kp6S/FEwWfSHD9nKRhrl5V+1Y/wAz+jOjbitt1lQVKrhvOJG5v+y70V+Gcn6GafnTUVuWz6mrKRqbKxSqrf5K+k39Sod2styS46bprgqt/Owo9V7Fxv8AguSx8D7R0jN7LlU7WjX6x+rkHKZX9N1lURo7KQNbEn4JtL+tVNk5H7dllZcnJx2YWr7t6/8AunOLlUur7zUVi8ZpXO+K5O2aMpmWPQkE0zthOadUPX2L6X6kJHWdu7xafdfDMfGr3nUf3XdxulHaaVZ62pZTxp1vXivYicVX2IanUcrFmherIIKqfC/fRiIi/FUX9Ry7U+oqvUN2fNLt7KqqMjzhI29ie3tXrU2HT3JjW3u3Mqaip6DHImWJsbblTqXimEXq3l3Ljx+CcXi4K5edfUz+/TrLebZym2OtlSKV0lIq8FlREb8UVcfjg26GaKaNHxPa9jkyitXKKi9eTgOrNFV+mVj/AD+1A5cMlY3CZ7FTqUv+TPVU9FXstlW9z6adcMVy/cf1Y9i8Mdv4kje2nmeC4J43vXDvuPh+/wAnXK6sgt9BNVVL+bhhYr3OXqRDVbPyi2q73JlG1JoZJFw1ZGoiOXs3KuFXqyS+UZys0DcFb2M/facJt08lBPFUpvkjej2+9FyhlvTV4R4Nj53GvktPXeo/k7feeUSy2OtWlkfLUzouHNiRF2F7FVVRM+48dUXakvPJpW19Ku3E5icdyou0iKip2oc0odE6gvGxVxUkjo5PSR8r0bnPXvXK57cG/XCxTad5KayilekkuEdIrOGVcm5M9gjr3bMvC4fFyYYxX3fzRvr8+v0cnoERK6LH/mJ+0/TEX+Kbn1T8y0CL+UIs+un7TuuqdWUumrcjlc2Spkb+bi7favYiGNfV3/abDfNmw0xxuZ3+iRqHVlv01E11U9Xyu+7EzCuX24VUwntVTOmdTUOpqSSak22OiVEdE/COZnhwVUwuNxwW51tdf7p0iSV8tXM/GE3pheCIn7EOx8nulJtO26SerdirqdlXN9RqZwnv37y9XmeIeE4OBxYte3/qT+5/D5t3AMOXZa5ewPmEWrq4KCBZ6qdkETN6vcuENPr+VOyU8ytp2zVSJ+m1iI39aov6jnmuNUz6guckbHuSlherYmIu5cbttfav6kPvSnJ5XajpOkTzNpaTK7LlTaVypxxvTcnbkm5mX2HH8E4+DjxyOdfXy/fWZdBt/KnZamVGVDZqVq/puYit/Uqr+o2+lqoa6mSelnZNE9Mtexcov4nD9U6Ar9NU6TxTNq6TOFkRuyrVXhtJv3L25Gg9VzWK7RwyPctLO5GSscu5qruRydip19qfgImdseR4Jx83HnkcG+/l++sS7lJJHDC6WRzWtaiqrl4IicVNOg5T7JNdEpPz7I3O2UleiIz3rvyifh7y+1S9G6QubupaV+PlU/OqRsbUul61XBlM67uXwXwrFzqZLZN9OkP1G3CtRSDdLnT2mhkq6p+zDGmVVfgiJ7VU96Fy9Agcu9VY39hqnKiqpoudU9dn7SejxeNgjLyK4Z7TOn3ZOUS03u5pQxtmgkfuZzrURFXsyirhSxvuqrbp9rErpsSyouGImVVE6/YnvOH6VakOrLcjeuqjX/1odX1poRdSviqYalIpYm7Lkc3KK3OU9yplS7297neG8Xh82mO9pikw45cJ462unqWuVWSSuemeO9VU6XovXtotmmaK31Uz2vj2kcuwqomXqqb038F7DmFbA+knkpud3terFVG9i4Nw0zybVd5slJWpXxRQv2v0FVyIjlavYnV2mMfJ9T4ti4luLSM9tV30/lPydqilbNGj2uR6ORFRU4Ki8FPci0VIyiooKePOxDG2NM8cImEJRX5fbW+gAAgAAAAAAAAAAAAAAAAAAAAAAAAAAAAAAAAAAAAAAAAAAAAAAAAAAAAAAAAAAAAAAAAAABhvAyYbwAyAAAAAjVULaiklhkbtMkYrXJ2oqYU/NtfSuoLnUUz/AL8Mjm/ii4P0wq4Q4bymW/oes3TNbhlS1JE9/wB1f1pn8STHTb6z7L5/LyLYZ/5Rv+S51jful8mNphSX85WI3nPbsJh3/qwOSO2rJcq64OTdC1Im+9VyvwRP1mgS1ctRRU9M5csp9rYTsyuV/Wdr5NbclBo2nkVuJKlXSr+O5v8A6UQR16vR8Txx4d4fbDH/ACtP9Z3+Uaabys21aa9U1ciejUM2V/lNX6KnwPXTeoUi5I7jEr/zlMjo2O68P4L8XL8DZ+VC3dN0i6Zrdp9LI2RO3C+iv7c/gcXiq5aa31VLGuIp3Mc9O1Uzj9pZZeG448R8PrjnvS0f0n+0ve0UTrjdqOjb6Szyo33Iq71/BDtGvX9B5Pq1GLsIxjGJjqRXImPgc/5K7d0vU/SXN9CkY53/ABLuT9Sqv4HTda0K3LR1wpmt23KzbRO3ZVHY/HBK+rk8a5FZ8RxY57VmJn8Z/s4JboW1NdBE77ssjW/FcH6Wga2OnaxqYREwiJ1H5mhndSVLHt+/G9FT3pvP0dZ7lBdbXBVQOy2ViO9y9aL7UXcpas/tVW0zjtHbr+ik5Q4GVGiq1Hfei2Xtd2Kjk/qyhw+imWlqqeZHY5uRqoqdqLk7Fym3aGk01JRI9vPVTmtRvXhFRy/hux+JyWw0Trjf6GjY3a25W/DO9fwTeSe7p+z8TTgZLZO25n8NO08of+j6t90f77Th1DE2a7U8TuDpGtX3KuDuPKKmzoCuT+b/AH2nE7X/AJZpP55n7yC3c+zk64WWfnP5Q/SULUbC1rUwiNREROo1/X/+Y1w/kt/eQ2KP7ifyTXdf/wCY1w/kt/eQsviuH/uaf+Ufm4JA5YKpJU45Rfgelfd6i7V76qoe6Rz1wq9mOCInUiHnCxZ6lkadaonxN71Tyd/kbT8VbSOdKsDfz/t/2kTqROCp2b+0xjcw/VeTyuPx81Iy/wAVukfv+S05K7PbJ6V1zVWy1sblarFT/FIvDCe1Ov8ADtOoY3bj85ac1BV6cvTKqH/F8Hx9T0Xin09p3603Knu9tiraZ+3HImUXs7UX2pwUyjtp8J9oeHmxcj2t53W3b5fJO47ir1JUOptN3GVi4e2nkVFTt2VwWi7sqQbxS9Ps1XScFmhexM+1qoWHzuGYi9Zt22/NyJ+c2u0/Rmn6RlHYaKnYmGshan6kPzpMjoKnmntw9jlRUXqVDvujLtFdtL0s6Pa6SNiRyJ1o5EwuffxT2KSr7n7UUtbDjvHb96StTUjarTVfC9Mo6F37q4X4n53VPT2uxTvmt7tFbNLVb3SI2SZjoo061cqY3e5N5wSBr6mpSFjdtZHojUTrVdyIYz3PszW1cGS89t/9u7XCoWp5MppnLlZaBXKq9qx5ODomZvxP0BdaPmNBVNI3esVE5ie3DMf1H5/ziYt2X2bmLVzeX4v0xRNxRQp/9239hqvKh/mdL/OM/aXem7tBdbDSVMb2rljUVE6lRMKi+5TUOVS8QR2yO2Rva6eR7Xqifot371968CzPR8xwMOT3+tddYnr+Dm+mP867d/vMP76H6NX/ABK/yT85aY/zrt3+8w/vofo1f8Sv8klez1/tR/uafR+a7t/lqr/nn/vKdt5Nv8w6H3yfvuOJXb/LVX/PP/eU7TyayNdoWiTaarmukRfYu25f2KKvS+0Mf+wxfWPylt4CAr8/AAAAAAAAAAAAAAAAAAAAAAAAAAAAAAAAAAAAAAAAAAAAAAAAAAAAAAAAAAAAAAAAAAAAAAw3gZMN4AZAAAAAfPUpz3lWsslfaYK2GNz3Uyrt447C8V/BUT4nQ+o+XRtc3Cj006OJyLcbNXNT0fmm0WuruV2ipoGOe+V6ImOpOtV9icVP0dQUzKShhp2N2WxMRqJ7ETCCCgpqdXOhp2RuXiqIiZ+BIagiHo+K+K28RtWdaiES6Uja62VNM/e2aNzV9ypg/ONwtlXb7nJTzo5j43K1yL7P6l6j9NKhFmoKWd6Plp2SPbwVURVT3ZGl8K8Wt4dNtRuJaXyXWOS2WN1TMxWOq1RyI7jsY3fFVVfcb6rUVuFMtajU3bkM9Qh5vK5F+Tmtmt3lxjWvJ3V0tRJWWuJ01JIu2scbcujVeO5OLezHD9ZqlDdbrZMx0dTNA7PpMRVRM+1O0/SCouMLvIctsoqpV6RRwSfymIv7Rr4Pe432gvTFGHkU88fvu/O72XPUFXh3SKuZfe9y/t3HVNAaHWyr06ua3pStxGzjzaLx39q8N3BPebxBRU9M38zAyNOxERP2ElPu8REaaed45k5OL2GOvlo1zXNJNW6LuMMTVe9WtfhOKo1yOX9SHD9PW2pm1HQRQtc9Vmbw7EXKr7kTefpJyI5uFI0NvpYJFlip4mSO4vRiIq+9UGmvw/xe3CwXwxXfm/tp7tb6Ce4odaUktbpK4Qwtc+RWZRG8VwqKuPgbEfLmo5Fym4u3jYrziyVyR6Tt+bLNRT1N5p4Y2Oe58rURE9/9R+jWxpJS7D2oqK3CovDB8R2+mglfKyniY93FyNRFX3qSuBIer4n4pbxC9ba1pwjX+jpLHcOepmOdQzqqsd/5a9bF/q9nuNl5H31yNrI3bXRE2cZ4I/2e9OP4HTJ4I52KyVjXs60VMoop6eKmhSOCJkbE4I1qIifggiNN+bxq+fh+65K7n4/v1SDCplDIDwHKdd6BnnqJLlaottr/AEpYWfe2utzU689accnP6KtuljqFZTS1FNJwcmVRfcqfU/SSpluNkjVNvpKhv5+nik/lNRf2kmPg+k4Xj98OL2Gennr+/wCb87VdZdL7UNZUPqKuVdzU2lVfcifQ6HoHk/nppo7ldYthzN8US8UXqcvZjqTjnfuOj01vpaZmIKaKL+SxE/YSETDcYLEfFOZ49fNi9hgp5Kvl8SSQujcmWq3ZVDg+r9GVtguEksET30rsrHI1uUROx3YqfrO+dh8PY16YcjXe8aef4b4lk8PyTekbie8PzPR1VdTPesU0sCrx5t6tz8DZYdF3KbTdbeKuCVZURro2Pztqm0ivcqcdzc4zx49h2htro2z8+2miSbtRiJ+vBMRGuZj9ERHxevyPtJa8xOKnl7b/ALPzzpCiqKvV9C2Niv2Z2u3dTWuRyr8EP0Ojfzez+BGgoaaB7pIYGRvdxVrURV9+CQ3cmCxDyvFPEp8Qyxk8uoiHCNe6VqLZe6ipWB8lJM9ZWSInoorlyrV7FRfihS2quucEscdufURSOXcyLaRXr7k4n6RcjFbvRDybTwxplkUaKvHDUTJjrq9PF9oprx4wZaeaY+f6aeVs5/8AJVKtXuqViZzv8vCbX6yd2mE3Ar5i07mZZAAQAAAAAAAAAAAAAAAAAAAAAAAAAAAAAAAAAAAAAAAAAAAAAAAAAAAAAAAAAAAAAAAAAAAw3gZMN4AZAAAAAAAAAAAAAAAAAAAAAAAAAAAAAAAAAAAAAAAAAAAAAAAAAAAAAAAAAAAAAAAAAAAAAAAAAAAAAAAAAAAAAAAAAAAAAAAAAAAAAAAAAAAAAAAAAAAAAAAAAAAw3gZMN4AZAAAAAAAAAAAAAAAAAAAAAAAAAAAAAAAAAAAAAAAAAAAAAAAAAAAAAAAAAAAAAAAAAAAAAAAAAAAAAAAAAAAAAAAAAAAAAAAAAAAAAAAAAAAAAAAAAAAAAAAAAAAw3gZMN4AZAAAAAAAAAAAAAAAAAAAAAAAAAAAAAAAAAAAAAAAAAAAAAAAAAAAAAAAAAAAAAAAAAAAAAAAAAAAAAAAAAAAAAAAAAAAAAAAAAAAAAAAAAAAAAAAAAAAAAAAAAAAw3gZMN4AZAAAAAYVURuV4FPNeJZ5nU9th596cZF+6hi6TS1lWy207sZ3yu7E7CxpaSKjgSKFuET4qvaoFa233Wf0p7lza9kf9mAtvusHpQXLnF7JP7cl2AKaG8SwTJT3KHmHrwkT7qlwiorcpwI9VSRVkDopm5Rfii9qFda5paOqfbah2dnfE7tTsAugAAAOOat5SNbx8qtRozR1otdZJT0ralXVquRVyiKuFR7URE2kTHEDsYOIV3KTyqaOj/KerNE26SzxqnSJrbKqujaq4yv5x/D2oidWUOs2G+UGpLFSXi1z8/RVcfORP4buCoqLwVFRUVOpQLYAAAc85Pde3DVurdZ2mrp6eGKwV/Rad8Wdp7NqRvpZVcr+azuxxM8jmvbhyhaPqbtcqampp4q6SmRsCKjdlGscnFVXPpY/ADoQAAAAAAAAAAAAAAAAAAAAAAAAAAAAAAAAAAAAAAAAAAAAAAAAAAAAAAAAAAAAAAAAAAAAAAAAAAAAAAAAAAAAAAAAAAAAAAABhvAyYbwAyAAAAApLEnP1FXWO3rJJhPdx+hdlNpz83DVU6/fjlXP7P6i5AAAAUl8TmKikrG7ljkwvu4/Uuym1F+chpadPvySpj9n9YFyAABw+kljh+2Fc3SPaxv5IbvV2E+7GdwPzpqLRtp1x9qm42i9MlkpPyaybEb1Yu0jGIm9PeB1HlN1bYbHyf3pK+vpXOnpJYIqbnUV8z3sVqNRucrlV3r1JvOYW2rv8AoX7JSV9NPLb7hJKksKq30445J0RMIqbst3p7HG+2fkB0BabhHWNs76qWJUexKqd0jUVOGW52V9yoqHz9oKCSfkTvXNpnm1gkVP8AZSZmfgBvOnKyav0raqyodmeppIpZFxjLnMRVXHvU0Hky1Zeb7yicoNuuFY6eltdeyGkjVqIkTdqVqomE60YnHr95tuhbhTVfJ1Y6yGZiwLb4VV+0mExGiOyvVhUVF7MHMeQa40915R+Uy4Uj2yU1TXxyRPTej2rJOqKnvTeBK5D/APSZyr/0x/8AFqB9lj/RXXf0tL/yohyH/wCkzlX/AKY/+LUD7LH+iuu/paX/AJUQHY6p7oqOZ7fvMjc5PeiHOeQbVF21Zyb/AJRvVY6trG1csXOvREXZTZVE3IibsnRqqN0tJNG37z43NT3qhx37MVREvJpWUKualVS3CRJYv0mZa3GU7FwvwUC21Dqu80n2i9K6dgrFbaqyhllngwmHu2ZVRVXGdyxsx/aavd9da8n5cdQaO05NE9Z2Qtp31EaLHQMSNj5JcYyq+ku5c5VU3cEPW/3SlrvtgaVpqaVsr6Khkhmwudh6xTu2V9qIqL+JGsl6orT9sPUUNa9ka3GlZSwOfu/OLHA9G59qNVE7VwgHrqV/KjyV0Uep6jVDNU2qJ7UrqaanSLYRVRMpjKomdyKiphVTLcZN71tyissfJA/WVoibUdIhikpWycEWVURqvx2ZyqZ4pjJG5d71Q2nkgvEdU9iSV0aU0EbuL3q5OCexEV3/AAkGyssVg+z1aaPXOxHa5aKKKoZMxy4WRdpiKjUVyKmU3pvaqZ3YAqKLTXKxX6bg1LR8okVRXTwNqorelGzo8iK1HoxH8N6LjOz+PWdQ0lcbrd9KW6uvVudbblLF/GaVf0HoqouEyuEXGURVyiLhd5yyo5JrtpOyz3Xk+1/cKGkiidVRUlQ9s1M9MbW5fuoipwVWr7V6zc+SDWVbrrk9prtcII461JXwSujbhsitX7yJ1ZRd/tz7gN9AAAAAAAAAAAAAAAAAAAAAAAAAAAAAAAAAAAAAAAAAAAAAAAAAAAAAAAAAAAAAAAAAAAAAAAAAAAAAAAAAAAAADDeBkw3gBkAAAABRVSrab0lXj+L1O6T2L/ff8S6a5HtRzV2mrvRUPieCOqgdFKm0xxTIy4WZcRo6rpPV62f3+AF+Cpi1DQub6bnwr2K3P7MiXUNC1voOfMvYjcftwBZuckbVc5cNTeqqUtKq3W9Oq8fxem3R+1f77/gfKsuF5XEiOpKT1et/9/gXNPBHSwJFEmyxoHsAABqsWhbTDyjT60a+p/Kc1KlG5ivTm9lMekiYztYRE449mTagAIlfQ0tzt89FW07KilqGrHLFI3LXtXcqKhLAHIoPs56Wp53Rsu1/ba3u2321K3ED17Fw1HKn459puGk+T2zaLu94r7Qksf5WdG6SBVTm4kYio1rEREwnpLxVTbQBqumdC2zSl8v91oHzvnvtV0qpSVUVrXZcuG4RMJl71354mdC6GtvJ9YprRaX1ElPLUPqVdOqOdtORExuRNyI1qG0gAcvvXIRpq66gqbvQ3C7WOqq3KtQltqEibJn725WrjK71xuz1HUABz6ycjmmNP3+zXe2pVRVNpjlamZUdz7pEVHPlVUy52HLwVE4bsIiHPotJWjWf2jtd2m9U/P0rqGFyKjtl0bkbBhzXJvRU/sXKZQ/QRBZbqKG4zV0dHAyrqEayWdkSJJIifdRzkTKonVldwHNbV9n7S9Jeorjcq+73xaZU5mC41CSRsxwRURqZROzOO1Dol8sdv1HZqm2XOlZVUdU3ZkjfuRU4pvTeiou9FTeiloAOSt+z3Y2wvov4S6m/JDv/AKuSuRIMdips70/X7To9kstu09Z6e2WyjjpKSmbsRxR8E619qqq71Vd6rvUswAAAAAAAAAAAAAAAAAAAAAAAAAAAAAAAAAAAAAAAAAAAAAAAAAAAAAAAAAAAAAAAAAAAAAAAAAAAAAAAAAAAAAADDeBkw3gBkAAAAAAAHi+ngmXMkDH/AMpqKI6aCHfHAxn8lqIewAAAAAAAB8LIxFwr2/ED7B8c6z12/EyqoioirvXgB9AAAAAAAAAAAAAAAAAAAAAAB8bbdjb2k2MZz1YA+wAAAAAAAAAAAPlVRqZVcAfQAAAAAAAAPlVRFRFXevA+gAAAAAAAAAAAAAAAAAAAAAAAAAAAAAAAAAAAAAAAAAAAAAAAAAAAAAAYbwMmG8AMgAAAAAAAAAAAAAAAGqXbRdjfTVtYtK/nla+XPOu+9hVzjPabWRLn/kmr/mX/ALqgaXpTSFnummqWsq6dz55NvbVJXJweqJuRexCdfuaotV6cbtc1BCkqb13I1Gom9V9hP0H/AJk0P/5n/McV+q6aKt1fp+CdqPjc9+UXg7GFwvwKLKn1rY6mrbTRVfpyLhivY5rXL71Q+9Rx0DmUCV9TPAnSmc1zSqm0/qRdy7iJr2nifpCpe5jdqFWLGuPuqr0Td+CkPVTnSWnT8j1yr6qFVX2q0DY7peKC0UyS11QkLHLhvFVVfYibyPatTWu7VDoKedefamebkYrHY9meP4EHUdruE11oLtbooqmWj2kWnkdhHovWiruz/YeMF6oay/0bLra57dcm5SnfJwXKYVEcmM8etMfiBtpQ22OhTUl0dBVTy1eGc9G9V2Gbt2zu/rXBfGqWL/P7UPui/YQTq7V9nt1S+lmqXPmZ99I41dse9UTBY0FxprnStqaOdssLuDm/sVOKKatSQ3jStXWoy1/lGjqJnTJLC7863PUqcVLbTNZaayCqfaoXUyrKrp4XoqK16+zKonDq3FF6qo1qqq4ROKmvS64sEUyxrW7WFwr2ROVqL70Tf+BZ3d9LFaap1c7FLzTklxnOyqYVEx1qa5RXKaSzpTWvSkr6BW4bz0rYke1ev0s5zxzvINtp54qmJk0L2yRvTLXtXKKhHuVyprTQvq6x+xExURVRFXiuE3IUnJ5I52kYkc7KMkeiexM5/rM8oP8AmfUfzjP3gLOjv9ur7lPRU0/OS06Ksio1dlMLhfS4EGbXFignWFaxX7K4c9kbnNRfeib/AMDz1GiWvQE7KNvNoyFkaY3blVGr+pVIVoqLrS2GCjh0o2SmWJMr0uPEmU3uVMdfEo26CaKpgZNC9skciZa9N6KilHUa3sFPUOhdW7asXDljY5zU/FEwv4ZIumaKps+n66O7xdGpUe+RrFejlZGqb0y08LVc3NtiU9k0vPNQrnCzStjSTPWu1nOQNgrKuGt07VVNLK2SF9M9WPav+ypq0ar/AIHc5/8ACX/mn1pN7l0Ld2ObsJHJOiM2s7CbCLjPvU+Wf6G//wApf+aBsFDdKWgtdmgqXuSSrijji3KuXbKcV/Etaqqio6SSpndsRRNVzndiIatdrc+u5PqSWFcVNJBFUxKnHLWpn9WfxPi/3Jb1p61UVM7El5exFx+g1MK/4KBtVFVxV1DFVQKqxTNRzVVMbl9h5XC40trpXVNZM2GFvWvb2Iib1UkQwsp6eOGJNmONqManYiJhDVbwxtw5QrXQ1CbdNFTumbGvBX+lxT2YQgsqDWFnuVUlNBVbMrvuskYrdv3Ku4sbhcqS10rp6ydsESbsr1r2Iib1X3HndbLR3mFkdUx2YnI+N7Fw5qp2Ka/eY2V3KLaqKpRr6eKndMka8Ff6XlRfwKLK36ys1yq0poapzJXfdbIxW7fuVdxaVlbTW2kfU1UzYYmcXO/vvUotd0cE2lqid7WpNTbLon9bV2kTcvtzgrLk913vGl6at3wTwpPIxeD37KLv/Z/xAXNHrWyVtU2njq3Me5cM5xitR3uVd3xI/KGqppuPDsfxmP8ArJer6KnqtLVnOsZ+ZjWSNdn7rk4Y9/A1+/1EtVycWyaZzlkc+LLl4ruVM/iBv5p2oNWst2oqGlZUKyKNzulpzSruVE2cLjfxXgbianqb/O7TP87J/wC6SBeLdqNlqS5STtjpXNR6PeipuXhuXfn2FdSazsdZVMp4qzD5FwxXsc1H+5VT9pjVc9sioqdtxp5KtVmRYaePKrI9EwiY603mv6tuFwrdNS9IsDqSBisVs8k7Mx+kiJhqJnfwKN1r7jS2yldU1kzYYm9a9vYiJvVSvoNXWi4VTaeGpcyWT7jZGK3b9yruIt/tdbeLRbZ6R0clRSvZUc3J92RccFIc99pp6ikg1FZJ6GWOVr4ZXelGj04YcmPhvTtAkahVU1xpzC9cv7ELusu1HQVNPTTy4mqnpHGxqKqqq9eE4J7TWdY1E9Nqayy01P0mdvObEfaq4RPw7T10a2CtmqLjWSOlvKPWOZJEwsCZ3NanUn/QDcQAQAAAAAAAAAAAAAAAAAAAAAAAAAAAAAAAAAAAAAAAAAAAAAAAAAAAMN4GTDeAGQAAAAAAAAAAAAAAACNVwrUUU8DXYWWNzEVfamCSAKfTVrms2nqagmcx8kW1lWZxvcrt2cdp53Szz1upLVcI5GJFRq/nGuzlcpuwXgAp9R2ya8aeqqKFWMklRuFfw3OR2/Gewi3iw1FwoLVTxSsatHPHJIq53tamFx7TYgBRXq2XOeqpq211rYJ4UVqxS55qRq9qJ1kNlku9zu1HW3mWjbHRO5yKKlRy5du3qrvcbSABR26zz0eprrcpHsWGrRnNomcphMLkvABq7LbqW2TzMt1XS1dLK9XMStc9XR56spxQmadsklqSqqKmds9bWSc7M9jcNzvwiexMqXgAr7vbmXe01FDI7YSZuNpN+FRcov4KhR01p1N0RltqauhZRsakaywtdzysRMYTOERcbsm2ACj0taJrHY0oqiRj5GyOdlmcYVd3HBnVFonvVikoad7GSPc1Uc/KJuXK8EUuwBDqqGGttslFUJtxyR82/wCHE12ntmq7ZSJQ0Vbb5qdvoxSztckjW9SYRFTd+JtwAoaDTnMaeqbdVVT6iSr21mmXjtOTGUz2FfQ2nU9LRNtyV9CykjTYSdrHLMjPYn3c4NuAGtWPTs1qsFxtrpGO6TJKsbm5XDVajW53cd28+Wadqk0D+Q9uLpHNqm1tLs529rjjP6jZwBEoadaa2U9I/Ze6KJsa9i4REU03RdtR+oK6oa/naO3ufBSr1JlyquPcn7xtl1tdPdqZKaqdKjM7X5t6tXswuOKbz0t1upbXRspaOJscTOCdq9qr1qBNKHUFhkuctPWUVR0WvpFzFIqZRUXii+wvgBqUlkv96fFDeKqkho43o50dJtZlxwRVXgn98E/UNhkuctPWUdR0WvpFzFJ1Ki8Ud7C+AGoT2K/3t0cN7qqSOijciujpdrM2O3P9/YWV/sH5VpqdaabolVRrt08qcG+z3bkL0AadVWbUt6jSjutbRwUeU53orXc5Iib8b0x/fgWOodPvudggt1ErIUhkjVqPzhGt3Y6+o2AADXtSWOsuc1BWW+aKGroZFeznc7K5xnOM9hsIA1y7WWvu1FQT8/BBdaN3OIrEVYtrdlN+/G5Cvuti1FfLZJDcKyjjVuFijgRyNe5FTe9VyvDOETrNzAFHdLPW1FvpG0Ne6lq6TCtdv2H4TCo5OxStqrHfb66CnvMtvhpInpI5lKjldIqfyuCG3ACjulnnrdSWq4RyMSKjV/ONdnK5Tdg8rnY51vlNd7XKyCqRyMqEfnZlj68460/vwNhAAAAAAAAAAAAAAAAAAAAAAAAAAAAAAAAAAAAAAAAAAAAAAAAAAAAAAAMN4GTDeAGQAAAAAAAAAAAAAAAADXJtb6fp5pIZK1yPjcrXpzT13puXqA2MGt/w905353gP8pfwysnhZKx20yREc1e1F3oB6gAAAAAAAAAAAAAAAAAAAAAAAAAAAAAAAAAAAAAAAAAAAAAAAAAAAAAAAAAAAAAAAAAAAAAAAAAAAAAAAAAAAAAAAAAAAAAAAAAAAABhvAyYbwAyAAAAAAAAAAAAAAAAQbpDEtqq3KxueZfvx/sqTiJc/wDJNX/Mv/dUCj0LHCuiaJ72M/8AEyqtT13HkzVNyuUkzrHZul0sSq3n5JUjR6p6qKeWnGSS8lqxw/4x9PUIzHHKufgm6Glhk0hRthVPze016djtpVXPvzkol2K/RXuKZqwyU1VTO2JoH8WL/WhV0+qq+4uqoLdaOkVFPM+Ncyo1jWpuaqqvWu/cnYfFoc2blKu8sG+FkDY5FTht+j+zCoeuhE/N3hf/AMfJ/UB80+sKiqa+lgs8r7rG5WyU6vRGsRP0leu7G8mWbUE9Zc5rXX0C0VdEzbxt7TXt7UX8faRbGif4QdQL/sRfuoKj/SpSf7gv7zgPe5almiuy2q10Dq+tYm3J6aMZGi9qr1/AzbNSTTXRLXdKB1BWvTaj9NHNkROxU/tIOk3Ni1TqKCXdUOqecRF4qzLsY9iZT4oNUvbLqvTkEO+oZOsionFGZbnPvRF+CgSazVFRBf6q00ttdV1MbWLEjX428plVcq7kRMnrddRzWW32+etpGskqZWxzMa/PNoqZXGOKoRbcif4T7uuN6UzP2MM64RHPsiK3LVr2ZAmRX6qp7fWXC8W38nwRYWJOdR7356lROC8P7oQP4UX1KT8oLp53QMbeeeTb2OO1jjw9h9cobFXT0L1a50UdUx0qJ6uFT9qobKtRB0PpKys6Psbe3n0dnGc57MAVFbqSOPSn5booukR+iuwrsKiK5EXPHeh73m+R2ywOuUac9lG80zhtq7GP25KLRdD07RVbTSJsw1UsqR56mqiJ+pckG11D7tHp20yffpJXyVKerzW5iL7+AG10l9jqNLpeVbss5l0rmbXBUzlM+9MHvZq+S52imrZYeZfMzb2EdnCLw+KbzSayR9Jb7lpiNcSS3BkcKerHIu2n4Jjf7zoMELKenjhjTDImo1qexEwhB7AAAAAAAAAAAAAAAAAAAAAAAAAAAAAAAAAAAAAAAAAAAAAAAAAAAAAAAAAAAAAAAAAAAAAAAAAAAAAAAAAAAYbwMmG8AMgAAAAAAAAAAAAAAAHlNC2enkhd9yRqtXHYqYPUAV9qtkVotkNBTOcscWcOfvVcqqrnGOtSpqdGUMtVJPS1VZb3TLmRlLLsNfnjux/YbMAK60WaistH0ejZhqrlz1XLnr2qpi02eG0tqUhc93SJnTP21zhV6k3JuLIAVlLZ4aW7VtxY57paxGo9HLuTCY3busPs1O+/x3VXP5+OFYUbn0cKqrnhnO9esswBR3bTFFdattWsk9LVsTCT079h2PaLPpmjtFS+qSSeqqpEws9Q/adjsQvABWQ2engvtTdGq/n542scir6OExw+CGbnZ4LqtIs7nt6LM2ZmwuMqnUu7gWQA8ammhrKaSnqI2yRSJhzXcFQ1v+ANBs810+49EznovPeh7sY4fr9ptQA8aanhpKaOngY2OKNNlrU4IiFbb9PUluvNZc4Vfz9X99FVMJlcrjd1rvLgAU02naOp1BBeX7fSIW7LWoqbK8cKqYzlM9pcgAAAAAAAAAAAAAAAAAAAAAAAAAAAAAAAAAAAAAAAAAAAAAAAAAAAAAAAAAAAAAAAAAAAAAAAAAAAAAAAAAAAAMN4GTDeAGQAAAAAAAAAAAAAAAAAAAAAAAAAAAAAAAAAAAAAAAAAAAAAAAAAAAAAAAAAAAAAAAAAAAAAAAAAAAAAAAAAAAAAAAAAAAAAAAAAAAAAAAAAAAAAAAAAAAAAAAAAAMN4GTDeAGQAAAAAAAAAAAAAAACNsVveIPBXzkkARtit7xB4K+cbFb3iDwV85JAEbYre8QeCvnGxW94g8FfOSQBG2K3vEHgr5xsVveIPBXzkkARtit7xB4K+cbFb3iDwV85JAEbYre8QeCvnGxW94g8FfOSQBG2K3vEHgr5xsVveIPBXzkkARtit7xB4K+cbFb3iDwV85JAEbYre8QeCvnGxW94g8FfOSQBG2K3vEHgr5xsVveIPBXzkkARtit7xB4K+cbFb3iDwV85JAEbYre8QeCvnGxW94g8FfOSQBG2K3vEHgr5xsVveIPBXzkkARtit7xB4K+cbFb3iDwV85JAEbYre8QeCvnGxW94g8FfOSQBG2K3vEHgr5xsVveIPBXzkkARtit7xB4K+cbFb3iDwV85JAEbYre8QeCvnGxW94g8FfOSQBG2K3vEHgr5xsVveIPBXzkkARtit7xB4K+cbFb3iDwV85JAEbYre8QeCvnGxW94g8FfOSQBG2K3vEHgr5xsVveIPBXzkkARtit7xB4K+cbFb3iDwV85JAEbYre8QeCvnGxW94g8FfOSQBG2K3vEHgr5xsVveIPBXzkkARtit7xB4K+cbFb3iDwV85JAEbYre8QeCvnGxW94g8FfOSQBG2K3vEHgr5xsVveIPBXzkkARtit7xB4K+cbFb3iDwV85JAEbYre8QeCvnGxW94g8FfOSQBG2K3vEHgr5xsVveIPBXzkkARtit7xB4K+cbFb3iDwV85JAEbYre8QeCvnGxW94g8FfOSQBG2K3vEHgr5xsVveIPBXzkkARtit7xB4K+cbFb3iDwV85JAEbYre8QeCvnGxW94g8FfOSQBG2K3vEHgr5xsVveIPBXzkkARtit7xB4K+cbFb3iDwV85JAEbYre8QeCvnGxW94g8FfOSQBG2K3vEHgr5xsVveIPBXzkkARtit7xB4K+c+XMrE4zwKn8yuf3iWYbwAyAAAAAAHlLNHAzble1jO1y4A9QVMmo6CNcNc+T+Q364EWo6CRcOc+P+W36ZAtgeUU0czNuJ7Xs7Wrk9QAAAAAAAAAAAAAAAAAAAAAAAAAAAAAAAAAAAAAAAAAAAAAAAAAAAAAAAAAAAAAAAAAAAAAAAAAAAAAAAAAAAAAAAAAAAAAAAAAAAAAAAAAAAAAAYbwMmG8AMgAAAAIVyuDLdTc470nruYztUgU9rlrXpU3J7nKu9IeCInt+hinZ+Ub/ADTP3w0votTqz/1yvwL0Dxhp4YG4iiYxP9luBLTwztxLEx6e1uT2AFHUWuWie6ptj3NVN6xcUVPZ9Cfbbgy403ON9F6bnM7FJpRTx/k6/wAUzN0NV6Lk6s/9cL8QL0AACAlzt7ro619Op3V7YueWlSVvOpGq42lZnOzndnGCecSt/wDrjXP+iE/djA7aAa/edX2ex3+z2avqHR1t3kdHStRiqiqmM5VNyb1REz1gbACJW10Ftt9TXVT+bpqaJ00r+OGtRVcu7sRCmt2tLJctELq2mqnOs7YZKhZXMVFRse0j/R45RWru+AGyA5xc+W7Q9pttDWVF1ev5QhSeKKOFzpEYu7LkRPR3pjeuV6jZdKazsOs7U+vsFwZWwxv5uT0XNdG7GcOa5EVPZuwvUBsQNL1hyqaT0NUNpLxcsVrmo/o8DFlkRF4K5E3Nz1ZVM9RBg5adDTWBl5ZedunfUspFTm3c5HI/Kt2mYyiYa5c8Ny4A6ECJXV9LbKKatrqmKlpYGrJJNI5GtY1OKqqnOmfaG5OnXHon5Yla3OOfWmkSPPvxnHtxgDqAI0VTBPSsqYp2SQSNSRkjXIrVaqZRUXhjG/Jzqu+0ByeUNydSLeX1Gwuy+eCne+NF/lIm9Pa3KAdOBW2m8W++2yC42ysirKSoTajlidlrk4L+KLuVOKLuUsgAAAAAAAAAAAAAAAAAAAAAAAAAAAAAAAAAAAAAAAAAAAAAAAAAAAAAAAAAAAAAAAAAAAAAAAAAAAAAAAAAAAAAAYbwMmG8AMgAAAAKbTW+inevFZVz8ELko7WvQ7tV0T922vOR+7/p+wvAAAAFNqTdRQPTikqY+ClyUd0Xpl2pKJm/YXnJPd/0/aBeAAAcSt/+uNc/6IT92M7acB1VNqLSP2h6zVNHpC736hnt7Kdq0cD3JnZai+kjVRFRW8F3gd+OK8rf+m7kv/3uT9+Mkf4btTf/AGQ6q8GT/wCWfXKxYdQ32g0nrWw2qV91skrat9tk/wAarX7DlYqJxVFbhUTfvXAHQtd/6OtSf0ZU/wDKccp0P/qbVn9GXH9+Y9b7rfV/KDpeusFm0Dd7VNVU0kVVU3BisZCxWrttZlEV71T0UTcuV3pgl6OsN2h+ytPZ5aCpjuUltrmtpnxKkqq98qtTZXflyKmE68gS/s/aZttDyUW64tpInV1y5ySedzMuciPcxrcrv2UaiJjhx7Sn0XRwWH7VGq7ZbomU1DU21tSsEbcNR/5lVVETdxc9f+I3fkct1Xa+SKw0dfTy09THC5XRStVjm5kc5Mou9Nyoa9aLJdIPtS327yUFQy3S2djGVSxrzb3fmk2UdwVctXdx9EDX/s/Wqm1PcNR65ukDKu6T3J8Ub5U2lgTCPXZReH3kRF6kbhOsrvtK6UtlK2y6ho6aKmq5qxKadY2o3nkVFc1zkTiqYVM8fSwvUTaKi1byLa1vTrVpmq1Jpe7TdIjZQtV0tO5VzhUa1V3IuN6YVMLlFyhq3LNdNWaptlpvl4sr9P2iKuZTUlDUOzUTPcjnOlcmEVqIjEREVOvrA3b7SlzmZbtM2JWVEtFdK5VqYqZuZZWsViIxqbsqqvyidbkQ9ajXenZ9MO08/kn1b+S1i5pKZLOiIiYxlPSyjk9bjnfnJs/K/oi56x09SVFkkbHfLNUtq6LbVER7k4tyu5FXCKmd2Uwu5cmvLy0aqbb0o38l9/8Ay4rdjY5l/R1dw2kds52c7/d+l1gQuSiw6muPIRf9NV0FZbppVqKa3rXROjdzb40wmHb0btKu9O1ccCt0Xr+k5NNKxaQ1zo2utSQ7UUlUylSWnqkVy+k5f0uON22i+zgdD01buUFvJdXNu11iTVlWks1O5zGK2kVyehGuEVq4VOOFRM43ohrdByranorZ+SdUcm+oKy7xtWKRaSk5ynqlTdtZTLURevZ2k7N24DcuTKk0nSaSVdFVXSLRUVL5kTnXO5t64yzDvSZhMeiqZ6+vJupynkM0Xd9J2O61d2pWW6S8VXSY6Bi56KzC4Rexd+MdSImd+UTqwAAAAAAAAAAAAAAAAAAAAAAAAAAAAAAAAAAAAAAAAAAAAAAAAAAAAAAAAAAAAAAAAAAAAAAAAAAAAAAAAAAAAAAMN4GTDeAGQAAAAFXd7fJPsVVNuqYd6f7Sdh9W67RVrebf+bqE3Kxd2/2FkQK2001au09uxJ67Ny/j2gTwUiW66UybNPcdpvVzn9uQluulQmzUXHDevm/7MASa+7RUTebZ+cqF3IxN+/2nzaLfJBt1VTvqZt6+xOw9KK0U1Cu0xu3J6796/h2FgAAAAAAAAAAAAAAcjumhNf6e1hctQaGvtLPT3ORZ6i2XVz1Zzi8dhUz+G9uE3ZVEQ8IOTnWetdWWy78olxtraG1Sc9Bare1ysfImFy9XdWUTO92U3bsqdjAAAAAAAAAAAAAAAAAAAAAAAAAAAAAAAAAAAAAAAAAAAAAAAAAAAAAAAAAAAAAAAAAAAAAAAAAAAAAAAAAAAAAAAAAAAAAAAMN4GTDeAGQAAAAAAAAAAAAAAAAAAAAAAAAAAAAAAAAAAAAAAAAAAAAAAAAAAAAAAAAAAAAAAAAAAAAAAAAAAAAAAAAAAAAAAAAAAAAAAAAAAAAAAAAAAAAAAAAAAAAAAAAAAMN4GTDeAGQAAAAAAAAAAAAAAACN02P1J/Af5SSAI3TY/Un8B/lHTY/Un8B/lJIAjdNj9SfwH+UdNj9SfwH+UkgCN02P1J/Af5R02P1J/Af5SSAI3TY/Un8B/lHTY/Un8B/lJIAjdNj9SfwH+UdNj9SfwH+UkgCN02P1J/Af5R02P1J/Af5SSAI3TY/Un8B/lHTY/Un8B/lJIAjdNj9SfwH+UdNj9SfwH+UkgCN02P1J/Af5R02P1J/Af5SSAI3TY/Un8B/lHTY/Un8B/lJIAjdNj9SfwH+UdNj9SfwH+UkgCN02P1J/Af5R02P1J/Af5SSAI3TY/Un8B/lHTY/Un8B/lJIAjdNj9SfwH+UdNj9SfwH+UkgCN02P1J/Af5R02P1J/Af5SSAI3TY/Un8B/lHTY/Un8B/lJIAjdNj9SfwH+UdNj9SfwH+UkgCN02P1J/Af5R02P1J/Af5SSAI3TY/Un8B/lHTY/Un8B/lJIAjdNj9SfwH+UdNj9SfwH+UkgCN02P1J/Af5R02P1J/Af5SSAI3TY/Un8B/lHTY/Un8B/lJIAjdNj9SfwH+UdNj9SfwH+UkgCN02P1J/Af5R02P1J/Af5SSAI3TY/Un8B/lHTY/Un8B/lJIAjdNj9SfwH+UdNj9SfwH+UkgCN02P1J/Af5R02P1J/Af5SSAI3TY/Un8B/lHTY/Un8B/lJIAjdNj9SfwH+UdNj9SfwH+UkgCN02P1J/Af5R02P1J/Af5SSAI3TY/Un8B/lHTY/Un8B/lJIAjdNj9SfwH+UdNj9SfwH+UkgCN02P1J/Af5R02P1J/Af5SSAI3TY/Un8B/lHTY/Un8B/lJIAjdNj9SfwH+UdNj9SfwH+UkgCN02P1J/Af5R02P1J/Af5SSAI3TY/Un8B/lHTY/Un8B/lJIAjdNj9SfwH+UdNj9SfwH+UkgCN02P1J/Af5R02P1J/Af5SSAI3TY/Un8B/lCVkecbMyL/ADL8fsJJhvADIAAAAAAAAAAAAAAAAAAAAAAAAAAAAAAAAAAAAAAAAAAAAAAAAAAAAAAAAAAAAAAAAAAAAAAAAAAAAAAAAAAAAAAAAAAAAAAAAAAAAAAAAAAAAAAAAAAAAAAAAAAGG8DJhvADIAAAADzfIyKNXvciMRMqqlMtwrblI6O3M5uJNyzP/v8A2ivV9yubbdG7EUfpyqn9/wC6lzFEyCJI427DG7kRAKlLBzm+qrZ5l9n9uTCaf5rfS1s8K+3+zBdgCibX1tukSO4s5yJdyTM/v/aXMcjJY0exyOYqZRUEsTJonRyN22O3KilNblfbbm+3SOzFJ6cSr/f+6gXoAAAHD9Val5QLvy31WjdLagpLRBT0balFmpmSI7c1XZVzHLn0t3VuA7gDhd3quWvQtuffq662nUtupfzlTTxwJG9I0+85NljVwidaKuOOFQ2PV/KM+q5A6zW2mJ3U8skcfNK9jXOhcszY3oqLlMplU7OsDqIKTSFxqLromyXGqVq1NbQQVEqo3COe+NrnLhOG9S7AAAAAcwsWsbzWfaI1NpWeqa+0UFvimgi2GorXq2FVXaxlc867ivYB08AAAAAAAAAAAAAAAAAAAAAAAAAAAAAAAAAAAAAAAAAAAAAAAAAAAAAAAAAAAAAAAAAAAAAAAAAAAAAAAAAAAAAAAAAAAAAMN4GTDeAGQAAAAFLp9Oc6XVLxllx/X/WXRS6fXm+l0q8Ypc/1f1F0AAAApb+nN9Eqk4xS4/r/AKi6KW/rznRKVOMsuf6v6wLoAADgVTfLZp77WlyrbtcKahpfyW2PnaiRGN2lYzCZXrXB304BXWC06l+1ncrfd6CGupfyY2Tmpm5TaRjML+sDZ+UPli0fSaNulNQ3qlutfV076aCnpHc7tve1WplW5RETOVz7k3mnXTTVw0t9jquoLlE6CskWOeSJ/GPbqo1a1exdnCqnUu46/auTfRtkrWVlu01bqepjXMcqQIrmL2tVcqi+1Cg+0F/oM1B/+n//AHEYEm3S32LkHtLtLwxVF5SzUraVkjmom0sbEzl2EyiZVEXcqphTVaXkRvVRavyheuUK/s1FI3aWaCrVIInr+iibnK1OG5W+xEMaz1DeNM/ZksldZZZIKh1BQwvnZ96Fjomormr1Kq4bnq2t28rqbk35J6XSMeoNQXx98asSSyVc9ycqyOwiq1rWORc54N3u6uIEvR2ub3qH7P8Aq2a51TvytZqeqpUq41w5+zDlr8p+kiqqZTsReJXcnuiL7ym6Atdy1Hq270lvijWGipaCbYV6McrVklc7O05XIqJu3NRMLvKjkqRE+z3yjo2F0CJ0rEa5yz+Lp6K535TgdY5Cf9CWnP5qT/mvA1rksul+sHKdqHk6vN4nvMNBC2rpKqocrpNhdj0VcqquMPbu6lRcbiqpL7b9N/ai11drrVMpKKntETpJH/yKbCInFVVdyIm9VLKyf64eof6GZ+yA1e5aFtXKF9qHVtsu7p0git8czOZfsLt8zAxqr242847UTO7KAbdpT+E/Khqyk1fXS1dj0tQSc5bKBj1jkrFT/wASTHFq9nBU3JuyqwOU+81t15X7Tomq1HPpmxz0nSJaiGTmXVD1V2GpIq4RPRRERd2c7lXBM5MtUXPSGpl5MtYy5qqdP+yK5fu1cP6LMr1oibvcreKJm41xWaA1Hq+DQ+rqL+OOp+k0tROnMsXOU2Y5Ucjkdu4fdXGN67gIds5ONS6K1daqvTGpa+6WOWTm7lQ3Wq28Rr/4ka7KJlOO5EXON6oq460fmzU9odyO6p09/ArU1dUtuNY2KWyzVCTNexVRMo1MblzsoqpnK7lP0mAAAAAAAAAAAAAAAAAAAAAAAAAAAAAAAAAAAAAAAAAAAAAAAAAAAAAAAAAAAAAAAAAAAAAAAAAAAAAAAAAAAAAAAAAMN4GTDeAGQAAAAFFXtfbrm24xtzFJ6EqJ/f8AupcxSsniSSN22x29FQPjZLGrHtRzFTCopTLb622yOktz+ciXesL/AO/9oF6ClS/83uqqKeFfZ/bgx+X+d3UtFPMvt/syBbyysgidJI7YY3eqqU1uR9yub7jI3EUfoRIv9/7qG2+tuMiSXF/NxJvSFn9/7S5jjZFGjGNRrETCIgHoAABRR6Ts7NYSanZRNbeZYEpX1G27fGiouNnOzncm/Gcbsl6ABVX+w23VFjqbNdafpFDVIiSx7StzhUcm9FRUVFRFLUAVi2W2rYUsr6KKS2MgSm6O9u0zm0TZRqoucoiIanZ+RbQNkvLLnRaeiSqjdtxrLLJKyNydaNc5W5zvTdu6sG/gDW7fobT1utN3tdLbWx0V5kllrY9ty866RNl+9VyiKnBEwidRPsdloNO2WltFrp+j0NI3Yij2ldspnPFVVVVVXO8tQBSQ6UtFPrCo1RFRI27zwJSyVG270o0VFxs52epN+M7jFPpSzUeq6zUkFDs3ashbBNUbbvSY3GExnCfdbwTqQvABr9/0fZNUVVvnu1A2omtk6VNNJtK10b0VF4oqKqKqJlF3LhD41TobTutKZkF+tkVakeebeqqx8eeOy9qo5EXrTOFNjAGl6X5KtGaPrUrbNY4oatEVEnke+Z6duyrlXZ7N2DdAAAAAAAAAAAAAAAAAAAAAAAAAAAAAAAAAAAAAAAAAAAAAAAAAAAAAAAAAAAAAAAAAAAAAAAAAAAAAAAAAAAAAAAAAABhvAyYbwAyAAAAAAAAAAAAAAAAAAAAAAAAAAAAAAAAAAAAAAAAAAAAAAAAAAAAAAAAAAAAAAAAAAAAAAAAAAAAAAAAAAAAAAAAAAAAAAAAAAAAAAAAAAAAAAAAAAAAAAAAAABhvAyYbwAyAAAAAAAAAAAAAAAAARuhR+vP47/MBJBG6FH68/jv8w6FH68/jv8wEkEboUfrz+O/zDoUfrz+O/wAwEkEboUfrz+O/zDoUfrz+O/zASQRuhR+vP47/ADDoUfrz+O/zASQRuhR+vP47/MOhR+vP47/MBJBG6FH68/jv8w6FH68/jv8AMBJBG6FH68/jv8w6FH68/jv8wEkEboUfrz+O/wAw6FH68/jv8wEkEboUfrz+O/zDoUfrz+O/zASQRuhR+vP47/MOhR+vP47/ADASQRuhR+vP47/MOhR+vP47/MBJBG6FH68/jv8AMOhR+vP47/MBJBG6FH68/jv8w6FH68/jv8wEkEboUfrz+O/zDoUfrz+O/wAwEkEboUfrz+O/zDoUfrz+O/zASQRuhR+vP47/ADDoUfrz+O/zASQRuhR+vP47/MOhR+vP47/MBJBG6FH68/jv8w6FH68/jv8AMBJBG6FH68/jv8w6FH68/jv8wEkEboUfrz+O/wAw6FH68/jv8wEkEboUfrz+O/zDoUfrz+O/zASQRuhR+vP47/MOhR+vP47/ADASQRuhR+vP47/MOhR+vP47/MBJBG6FH68/jv8AMOhR+vP47/MBJBG6FH68/jv8w6FH68/jv8wEkEboUfrz+O/zDoUfrz+O/wAwEkEboUfrz+O/zDoUfrz+O/zASQRuhR+vP47/ADDoUfrz+O/zASQRuhR+vP47/MOhR+vP47/MBJBG6FH68/jv8w6FH68/jv8AMBJBG6FH68/jv8w6FH68/jv8wEkEboUfrz+O/wAw6FH68/jv8wEkEboUfrz+O/zDoUfrz+O/zASQRuhR+vP47/MOhR+vP47/ADASQRuhR+vP47/MOhR+vP47/MBJBG6FH68/jv8AMOhR+vP47/MBJBG6FH68/jv8w6FH68/jv8wEkEboUfrz+O/zDoUfrz+O/wAwEkEboUfrz+O/zDoUfrz+O/zASTDeBH6FH68/jv8AMEo40XO1Mq/zz8ftAkgAAAAAAAAAAAAAAAAAAAAAAAAAAAAAAAAAAAAAAAAAAAAAAAAAAAAAAAAAAAAAAAAAAAAAAAAAAAAAAAAAAAAAAAAAAAAAAAAAAAAAAAAAAAAAAAAAAAAAAAAAAYbwMmG8AMgAAAABX1t3paFdl7tuT1Gb1/HsPO718kGxS02+pm3J7E7T6t1oiom84/8AOVC71eu/f7AIyXC6VCbVPbsN6uc/twEuN0p02qi3bTevm/7Ml2AK+iu9NXLssdsSeo/cv4dpYFbcLRFWt5xn5uoTej03b/afNor5J9ulqd1TDuX2p2gWgAAAHN9YctWndF6nWw1lDd62uaxsrko6dr0aiplM7T0XOOxAOkA5Jb/tF6LrLjFR1bLpaHSKiJLXUyNYme1WvVUT2qmE6zq0b2ysR7HNcxyZRU3oqL1oB6gAAAAANW0zrm26rvV+tVvZUNnsNV0WpWViI17suTLMKuUzG5N+DaQAAAAAAAAAAAAAAAAAAAAAAAAAAAAAAAAAAAAAAAAAAAAAAAAAAAAAAAAAAAAAAAAAAAAAAAAAAAAAAAAAAAAAAAAAAAAAAYbwMmG8AMgAAAAKO1p0y7Vda/fsLzcfu/6ftLwptNbqKdi8UlXPwQuQAAAFHdE6HdqStZu215uT3f8AT9heFNqXfRQMTisqY+CgXIAAHErf/rjXP+iE/djO2n5x1LbNQ3b7UlxpdM3tlmuH5PY/pD4kkTYRjMtwqLx3Adf5TrVa7ryb3uO7RQvghpJZmvkamYntYqtc1V4Ki8O3h1nNNCa8uGkPswQainpenOoZXU9OyR6tR7Fm2EyuFXDcqie7BYVXI7rTU6R0useUSettaOR0tLTU6Rc6iLnCqmE/FWrjsJvLhaaOzfZ/uFvt1Kymo6Xo0cUbE3MakzP7qq71XiB06zXBLrZKG4ozm+l08c+xnONpqOxn2ZNV0Xr52rdX6ssrqFtOmn6ptOyRH5WVFV7VVUxu3xr+Cl9o1UdoWwuRcotvp1Tw2nL+RV7ZeVflUex2Wrcmb09kk4FnX8q1/uuqLlZdCaSW+/kqRYaqrnqGwRNkTKK1u1jOFRUznfjcmN5c6C5SJtU3qvsF4sk9h1BbmJJNSSPSRr2KqJtsciJlN6Z6t6YVTVZ+T/XWhNUXe9cn9bQ11BdJlqZ7VX7sPVVX0XZRN2Vwu03dhFzjJb6G5TJr3refTOpdNfkHU8UGdpHJI2eNPSwjk3om/KJlycd+QOdaH1jUaZ5SeUqjtVmqb3e6+8P6LRwu2EVrJZ9t73qio1rdpOPFXIntTerNywXmh1nQ6c15pR2np7muxSVEcySxPeq4RqqmU3qqJlHLhVTKIi5K3kQgidyr8qdQqfnWXVY0Xsas06qn4qifA9PtFojafR87XbMsd5YjX9aZTP8AUgHawaVrqz63ujqRdG6kpbJze10hJ6VsvOZxs4VzXYxv3YTiUWntNcrVLf6Ke865t9bbY5UWop2UTEWRnW1FRiKir253fqAudX6+fpfXOlbC2gbUsv0z4pJFfhYkTZRFRMb97t/sQ2e+3L8i6duN05rnOhU0tTzecbew1XYz1Zwco5XfR5aeTBy7kWskTPt24jo+vnsi5NtSukdhiWypyq/zTgNPXldnTkGTlBS0s59fR6Jzq7O1z/NfexnHXw9ntK//AAwam1DTLVaH0NNeKCFE56qlnSJivwivZGi4V+FXGU49hpLv9R1n85//AN6na+TCGkg5K9Mso0a2FbdA7cmPSViK9V9quVc+0Cu5NuU6i1/FV076KW1Xi3v2KygmdlzFzjKLhFVMphcoiou5erNdqrlRuUOsptIaP01JqG8UrGyVSulSGGnRURURXLuVcK3O9E343rlE1uiYym+2HXNoFxz1rzWom5M7DF347cRr7y21Lyd6ttXKDW620FcqNlTXxo2tt9cn5ubCJwVO3CLxaqLnDsLgCz0hymXGv1eukNW6dk0/fZIlmp0SVJoahqJldlydeEVdyqnorvRdx0o5Fp7lQukeu7fpjXulI7PeKpHJRVcT0lieq8UauVVqLjG5y78IqIddAAAAAAAAAAAAAAAAAAAAAAAAAAAAAAAAAAAAAAAAAAAAAAAAAAAAAAAAAAAAAAAAAAAAAAAAAAAAAAAAAGG8DJhvADIAAAACip3/AJOv80L90NV6TV6s/wDXKfAvSFcrey4U3Nu9F6b2P7FIFNdJaJ6UtzY5qpuSXiip7fqBeA8YaiGduYpWPT/ZdkS1EMDcyysYntdgD2KKd/5Rv8MLN8NL6Tl6s/8AXCfEzUXSWte6ltrHOVdyy8ERPZ9Sfbbey3U3Nt9J673P7VAmgAAc7ptA3CHl3rNbLVU3QJrelMkSZ53nPRTemMbOG5znPVjrOiAAUmq9OUurdLV9irnPZT1sewrm8WKiorXJnrRyIpdgDilk0Vyw2S1Raco9U2VlqhakUVasTnVEUXBEa1W4yicEVd3rF5yU8mFXydX7U00tayrpLnJCtM9Xq6VUYj1c6TKIm0qv6lXrOngDjv8AAHX+jNQ3Oo0LebZUWq51LqqSgu22vNSOXLlarcqqe3KLjGcqmSz0bydXql1xPrXWN2p7he3Q9GghomK2np48Y3bSI5V4om7rXOVXd08Ac75PNB3DSWrta3WsqKeaK/1/SqdsSrtMZtSP9LKJhfzuN2eB98qmhLhrqmsUVDUU8C2+5R1UvOqqZjRFRdnCLlydSLjPah0EAAABoHKlydya7tdC+31y228WmfpNDUL91jsplFxvT7qKipwVENZqtDcqWr7ZNadWaltUFtWNWvZb2OSSqcieij3K1Nliuwq7PFN2DsoA4HrTSlboz7Jc1guMkElXSuYr3QKqsy+sR6IiqiKuEdjge+m9HcpOntIW5uiNQ259prqWKpZS3Jiq+kfIxrn825Grlu0qqiLwzwVcqvV9XaUoNaaZrLBc3zspKrZ21gcjXorXI5FRVRU4onFFLK3UEVstdLQUyKkFLEyGNFXK7LURqb/cgGg8mHJjPo+puN8vly/K+pbov8Zqkzssaq7StZlEVUVcKq4TgiIiYIV90DrO1a4rtVaDvNHE+6I3ptvuW0sT3IiIjmq1F37vZjfhcLg6uAOUWfk41Retc0Gq9fXa3zzWpP4jQ21jkijcv6TnORFXC4XG/Kom/CYXq4AAAAAAAAAAAAAAAAAAAAAAAAAAAAAAAAAAAAAAAAAAAAAAAAAAAAAAAAAAAAAAAAAAAAAAAAAAAAAAAAAAw3gZMN4AZAAAAADylhjmZsSsa9nY5MnqAKmTTlBIuWtfH/Id9ciLTlBGuXNfJ/Ld9MFsAPKKGOBmxExrGdjUweoAAAAAAAAAAAAAAAAAAAAAAAAAAAAAAAAAAAAAAAAAAAAAAAAAAAAAAAAAAAAAAAAAAAAAAAAAAAAAAAAAAAAAAAAAAAAAAAAAAAAAAAAAAAAAAAMN4GTDeAGQAAAAAAAAAAAAAAAACNt1vd4PGXyASQRtut7vB4y+Qbdb3eDxl8gEkEbbre7weMvkG3W93g8ZfIBJBG263u8HjL5Bt1vd4PGXyASQRtut7vB4y+Qbdb3eDxl8gEkEbbre7weMvkG3W93g8ZfIBJBG263u8HjL5Bt1vd4PGXyASQRtut7vB4y+Qbdb3eDxl8gEkEbbre7weMvkG3W93g8ZfIBJBG263u8HjL5Bt1vd4PGXyASQRtut7vB4y+Qbdb3eDxl8gEkEbbre7weMvkG3W93g8ZfIBJBG263u8HjL5Bt1vd4PGXyASQRtut7vB4y+Qbdb3eDxl8gEkEbbre7weMvkG3W93g8ZfIBJBG263u8HjL5Bt1vd4PGXyASQRtut7vB4y+Qbdb3eDxl8gEkEbbre7weMvkG3W93g8ZfIBJBG263u8HjL5Bt1vd4PGXyASQRtut7vB4y+Qbdb3eDxl8gEkEbbre7weMvkG3W93g8ZfIBJBG263u8HjL5Bt1vd4PGXyASQRtut7vB4y+Qbdb3eDxl8gEkEbbre7weMvkG3W93g8ZfIBJBG263u8HjL5Bt1vd4PGXyASQRtut7vB4y+Qbdb3eDxl8gEkEbbre7weMvkG3W93g8ZfIBJBG263u8HjL5Bt1vd4PGXyASQRtut7vB4y+Qbdb3eDxl8gEkEbbre7weMvkG3W93g8ZfIBJBG263u8HjL5Bt1vd4PGXyASQRtut7vB4y+Qbdb3eDxl8gEkEbbre7weMvkG3W93g8ZfIBJBG263u8HjL5Bt1vd4PGXyASQRtut7vB4y+Qbdb3eDxl8gEkEbbre7weMvkG3W93g8ZfIBJBG263u8HjL5Bt1vd4PGXyASQRtut7vB4y+Qbdb3eDxl8gEkEbbre7weMvkG3W93g8ZfIBJBG263u8HjL5Bt1vd4PGXyASTDeBH263u8HjL5Aj6xXf4iFE7eeXP7oEkAAAAAAAAAAAAAAAAAAAAAAAAAAAAAAAAAAAAAAAAAAAAAAAAAAAAAAAAAAAAAAAAAAAAAAAAAAAAAAAAAAAAAAAAAAAAAAAAAAAAAAAAAAAAAAAAAAAAAAAAAADDeBkw3gBkAAAAAMKqI3K7kI1ZWRUNM6aV25OCdar2FTFS1l3xNWSOip13tjZ1p/frUCyku9DCuH1TP+HK/syIrvQyrhlUz/iyn7cCK0UMLcJSxu/l+l+0S2ihmbhaWNP5Ho/sAmoqK3Kb0Mmvvpau0bUtHI6WnTe6N/Un9+tC3o6yKtpkmiduXinWi9gEkAAAAAB4QVEM6OWGVkmyuF2XIuF/A9wAAAAAAAAAAAAAAAAAAAAAAAAAAAAAAAAAAAAAAAAAAAAAAAAAAAAAAAAAAAAAAAAAAAAAAAAAAAAAAAAAAAAAAAAAAAAAAAAAAAAAAYbwMmG8AMgAAAAKJW/lW/va/wBKnpOrqV3/AF/YXpTab9OlnlX77pVz8EX+suQAAAFE1v5Kv7Ws9Gnq+rqR3/X94vSm1J6FLBKn32ypj4Kv9QFyAABwTVjblypcudXoGqulTbNP2mlbPUQ07tl1SqtY5c54/wCNREyioiJnGVO9nL+UDkjfqXUcGqNPXmawajgRG9IYiqyVETCbWMKi43Z3oqblRQKG9fZ4tdstj6/RVfc7XfaNiyU0iVKqkr0TKNduTGeGUVETrRUN40hqmuj5MaO964Z+RKqGPm6t1W3mt6O2EeqbsbW5cYTeu7dg5/Wak5a+T+mfWXu2WzVFtp02556b0Xo1OK+ijVTdxXYVE4qenKhrC365+zVX3y3I9kcssLZIXfehekzNpq43e1F60VFA7XBLHPCyWJ7ZI5ER7XNdlFRd6Ki9ikKivtruddXUdHXwVFRb5EjqY43oroXLvRHJ1cF+C9h46P8A8xrH/uFP/wAtpzDkX/0u8qv9JM/5k4HS3av0/HT19RJeaFkVumWCrkfO1GwSJ+i5VXcvs7dxiw6201qeR8NlvtDXzRpl0cMqK9E7dnjj24wcH5NtD0Gs+VfXMt6Y6sttruk0jKNyrzUkz5ZERzkTjhrV3f7XxtuWvRVs0Nb7drnSdJFZblbq1iSJSt2I5GuzjLU3cURFwmFRyouQO+ue2JjnvcjWomVVdyIiGrN5T9EOuPQG6rta1GdnHSG4z2bX3c/ic45ftYOXRGnLe2qfQUWo5WyVUzMqrKdEY5ybkyqfnGquE37OOvBUT3f7PU2mXWVi08Kc3sMq2W+bpKOxhH85sbSrnfv3ezAH6Bq6unoaKarqZ2QU8EbpZJHuw1jUTKqq9SIm8pH690rFNbY336gR91Rq0ic6mZkcuGqidiruRV69xyDk+1DcL79mLVkFwmkqvybS1dLBO/PpxJDtNTK71xlU9iYQvOQvQmn5eT6yair7ZBX3efMjKiobziwIyRzWJHtZRuEai7t+cqB02p1VY6WruFNNdaOGW2RtlrEklRvMNdvar88EX+tO087DrTTWqHSx2W90dwkiTMjIZUVyJwyreOPbjBxui0tQ6q+1PqyluzOkUEFPDUupVcuxO9I4Ubtp+k1NpVwu7OCLyyaJtNh1ppCTTUCWCS9VL7dVOoG8yixvVjFw1u5F2XvRcJv/AAA7JHyjaOku/wCSo9UWx1btc3zfSW73ZxsoucK7O7Gcm0nG+VPkr0dQckl1lt1ho6Got0HPU9RCzEqK3H3n/edlNy7Sr28S2s0VRrP7O1DBW3t1qkq7YyOe4q7Ksa3COc5XKnFrVRyqqcV3gbFPynaJprh0GbVVqjqEXCtWpbhF7FdnZRfepssM0dTCyaF7ZI3ojmvYuUVF3oqKnFFOB01Z9n6wWD8hzz0FxVI+bkq1pJJp5F63JK1i4XPDZVETqLb7NtxmquTi7Uq1MlTS0NdJHSrJxSNWNciJngmcrjtcoHR5teaUgsrLzLqGgZbpJHRNnWZNl70XCtb1qqdie8nWLUtm1LSuqbPdaSvhZhHLTyo7YVeCORN7V9inCPs76Bsuo9HT3m/Ukd1WCqfTUtPU/nIYGo1rnKjF9Hacrt6qi7kQto7JRaE+1FZKOwwdBoL5QSLU0sLlSPaRsi5RvBEzGxcdS5wB3kAAAAAAAAAAAAAAAAAAAAAAAAAAAAAAAAAAAAAAAAAAAAAAAAAAAAAAAAAAAAAAAAAAAAAAAAAAAAAAAAw3gZMN4AZAAAAAUlmXo1fW0Ltyo/bZ7U/6YLsp7rSStmZX0qfnovvJ2oTKC4w3CHajXD0+8zrQCYAABSXlek19HQt3qr9t/sT/AKZJ9dcYbfDtSLl6/dZ1qQ7RSSumfX1Sfnpfup2IBcAAAcU1HqvU/JfynXO7XqKvvWjLqjFjfF6aUL0TGEaq4b15TcjkVFzlFQ7WAOKXv7Remqm1TUemaK43e61MaxwU6Uqom2qYTazlVx2Ii54FbauSm90f2Yrrp6SB35Zr5PyglLlMscjo1SPs2lbHw7Vwd0hpKeCR8kNPFG9/FWMRFX3qhJA4XpHl9sVBpK22ett91/L1HTx0i0EVKrpJpGNRqbPvxwXCp2KfP2f23Rddcokt3pVpa6aqglnh4pG97pnq3PXjaO480znuc2G7eMbWzvx2ZPpGoiqqNwq8faB+YdD6wq9C8pmvLrUWyqrdPS3SWGumpWbb6V6SyrG9W5T0fvoq+7rwi2mu9af4cZqDRmi6KqmpHVLZq6vmiVrImJlEXjwTKqucKqtRERTf+S7Rt50vqfW9Zc4GRxXa6OnpXI9Hc5HtPcjsIq4++m5cLxOkxxRxN2Y2NYmc4RMbwOWcsmjLjX6Xstx03TdKr9Lzsnp6XZ2lkjTZyiJ1qmyxcdaIuN+Cu/8AaK0W21bb7bcEuuMLbei+nznq7XDGd2ePs6jtJ5czEsySqxqyImEfjfj3gct6bqe8/Z91LW6mtsVBXVVDWPhpIo1ascKxrsI5q5Xa4+3GM78ltyHNczkW041yK13MvXf2LK9U+KHQT4a1GNRrUwibkRAON6PikT7VWuXqxUZ0CHfjdvbDj44UcucMkmseTZWMVcXpqbkzvV8S/wBSnZMIjlcib14r7grUXCqmcb09gGn8rTHP5I9TI1FVegSLu7ETKnMrxYrvevskWektUU75Y6eGeWCNq7U0SOVVRE6+KOx143Hf1RFTChERqYTciAcO0xytaIpbDS2rSOl6mS9ujSOO2QUSNdzqIiZfIm7ZzxeqquN6n39nCnrKfSmqYatn8aZdpY5MJuWRGNRyJ+J2psbGPc9rER7+Kom9cdp9tajfupjO8Djv2Y43xck0m2xUzcpsZ3cGsT9qYPjV8Ui/aq0O9GKrOgTb8btzZs/DKHZGta1uGphPYNlFcjlTenBfeB9gAAAAAAAAAAAAAAAAAAAAAAAAAAAAAAAAAAAAAAAAAAAAAAAAAAAAAAAAAAAAAAAAAAAAAAAAAAAAAAAGG8DJhvADIAAAAAVVVZo5pufppHU8/HaZwUtQBSJ+XoPRTmKlO1cf2Bfy9P6K8xTp2pj+0uwBVUlmjhm5+pkdUT8dp/BC1AAAAAAAAAAAAAAAAAAAAAAAAAAAAAAAAAAAAAAAAAAAAAAAAAAAAAAAAAAAAAAAAAAAAAAAAAAAAAAAAAAAAAAAAAAAAAAAAAAAAAAAAAAAAAAABhvAyYbwAyAAAAAAAAAAAAAAAAARun0ne4PnT6gSQRun0ne4PnT6jp9J3uD50+oEkEbp9J3uD50+o6fSd7g+dPqBJBG6fSd7g+dPqOn0ne4PnT6gSQRun0ne4PnT6jp9J3uD50+oEkEbp9J3uD50+o6fSd7g+dPqBJBG6fSd7g+dPqOn0ne4PnT6gSQRun0ne4PnT6jp9J3uD50+oEkEbp9J3uD50+o6fSd7g+dPqBJBG6fSd7g+dPqOn0ne4PnT6gSQRun0ne4PnT6jp9J3uD50+oEkEbp9J3uD50+o6fSd7g+dPqBJBG6fSd7g+dPqOn0ne4PnT6gSQRun0ne4PnT6jp9J3uD50+oEkEbp9J3uD50+o6fSd7g+dPqBJBG6fSd7g+dPqOn0ne4PnT6gSQRun0ne4PnT6jp9J3uD50+oEkEbp9J3uD50+o6fSd7g+dPqBJBG6fSd7g+dPqOn0ne4PnT6gSQRun0ne4PnT6jp9J3uD50+oEkEbp9J3uD50+o6fSd7g+dPqBJBG6fSd7g+dPqOn0ne4PnT6gSQRun0ne4PnT6jp9J3uD50+oEkEbp9J3uD50+o6fSd7g+dPqBJBG6fSd7g+dPqOn0ne4PnT6gSQRun0ne4PnT6jp9J3uD50+oEkEbp9J3uD50+o6fSd7g+dPqBJBG6fSd7g+dPqOn0ne4PnT6gSQRun0ne4PnT6jp9J3uD50+oEkEbp9J3uD50+o6fSd7g+dPqBJBG6fSd7g+dPqOn0ne4PnT6gSQRun0ne4PnT6jp9J3uD50+oEkEbp9J3uD50+o6fSd7g+dPqBJBG6fSd7g+dPqOn0ne4PnT6gSQRun0ne4PnT6jp9J3uD50+oEkEbp9J3uD50+o6fSd7g+dPqBJBG6fSd7g+dPqOn0ne4PnT6gSQRun0ne4PnT6jp9J3uD50+oEkEbp9J3uD50+o6fSd7g+dPqBJBG6fSd7g+dPqOn0ne4PnT6gSTDeBH6fSd7g+dPqOm0irhKqFfZtov8AWBJAAAAAAAAAAAAAAAAAAAAAAAAAAAAAAAAAAAAAAAAAAAAAAAAAAAAAAAAAAAAAAAAAAAAAAAAAAAAAAAAAAAAAAAAAAAAAAAAAAAAAAAAAAAAAAAAAAAAAAAAAAAw3gZMN4AZAAAAAAYVURuV4FPNeJZ5nU9th596cZF+6gFyCkbb7rP6U9y5teyP+zAW33WD0oLlzi9kn9uQLsFNDeJYJkp7lDzD14SJ91S4RUVuU4AZAAAAAAAAAAAAAAAAAAAAAAAAAAAAAAAAAAAAAAAAAAAAAAAAAAAAAAAAAAAAAAAAAAAAAAAAAAAAAAAAAAAAAAAAAAAAAAAAAAAAAAAAAAAAADDeBkw3gBkAAAABS3SaWsq2W2ndjO+V3YnYWNLSRUcCRQtwifFV7VK2xJz9RV1jt6ySYT3cfoXYAAARqqkirIHRTNyi/FF7UK61zS0dU+21Ds7O+J3anYXRSXxOYqKSsbuWOTC+7j9QLsAADjmrOUfW8XKrPozR1mtdZJT0ralVrXORVyiKuFR7URE2kTB2M/OWpNaWvQv2prjd7vz/R1trIfzDNt20rGKm7KbtwGwXLlC5XNJ0Ul21Hoq11Frhw6d9BOqPjb1qvpvXCduzhOs6ppnUdDqvTdHfLa9z6WtbtN2kwqKiq1zVTtRUVF9xxnWP2gtP6h07V6esNPUOq7pC+lSev2Kenia9qtc5znO6kVerBuFrtb+Tz7O9TDbK+KpqqK11FVHVwORzFlVrpNpi70VEVdy9aIB081O337UdRyj3Oz1WnnQWKnp2yU1z2/wDHPXZy3HDrfu4psb+KHO+Tl3KJr602DUNVqj8mWqmc1qwsgbJJX7D8SOkXcjcqitTjwzjPG9sOq71W/aR1RpqesV9oorfFLDT7KYY9WwrnOM7+dfn8OwDqZp3Khqus0Vyc3S/0DIJquk5tI2TIqsy+RrMqiKirhHZ4mi6o1hq7WXKbU6G0NXRWuG3R7VwuT2I9Uduy1MouMKqNwm9VzvRENT5XqfX2kuT2ttV9vMWp7Lc3RxtrVgSGamla9r0RyJnLXI1U3qu/rTgofoPT1yfdtNWu5SsbHJWUsVQ5icEV7EcqJ7EyWhyHUmv5tAciemZbfClTdrhRUtLRRublNpYm5cqdeOzrVUItJpTlnorcl7drSmrbmjedfZ5advMv3Z5vbTCIvVuREz+ljeB2gHHuQ7XV81vcdWz3WR/NQ1bHU1O9qZp2u2/zeURM4RqJv69/WQ11DrTlU1fdrdo+8s07p2zS9Gkr0iSWWokRcLs56tyqmFTdhVXK4QO2g4rbdT6u5ONfWzTWtLqy/wBqvbuaoLkkSRvjlyibL0Tqy5ucquMoqLuVCXr/AFZqW4cqFt5PdMXSCxyVNMtVUXCSNJHqnpLsMau7g3O7eueKYXIdfBye2W/lL0Zq21Q1N5drKw10vM1T307YZaPP6e5VXZTiu9UwmMIqop1gAAAAAAAAAAAAAAAAAAAAAAAAAAAAAAAAAAAAAAAAAAAAAAAAAAAAAAAAAAAAAAAAAAAAAAAAAAAAAAAAAAAAAAGG8DJhvADIAAAACm05+bhqqdfvxyrn9n9RclFVKtpvSVeP4vU7pPYv99/xLprke1HNXaau9FQD7AAAptRfnIaWnT78kqY/Z/WWznJG1XOXDU3qqlLSqt1vTqvH8Xpt0ftX++/4AXoAAHErf/rjXP8AohP3YztpzbV/Irp7Wep33+ruF5oa6SJsbloqhjEVETCcWKucdi4A2/U9PYqjT1Y3UUVK+1oxVnWqRNhrcb1yvBexU354bzhPJfVVc32a9dQvWV9BTsrGUSyZyjFhyrU9iKud3Wqm3x/Zt0g+oY+tul/uLGrnm6qtarV+ViL8FOhO0hZnaMn0vTUqUVqmpn0vN0/oqxj0VFVFXPpb85XOV3rkDXeQn/Qlpz+ak/5rzVtL/wCuBrP+iYv3KY6fpTTVJpLS9DYaGSWSnoo9hj5VRXLlVcqrhETeqr1EGh0NbLfyjXPWcMlS643KmZTSsVU5tGtRqZRMZyqRs6+r2gc05MZ4rD9oHX1luDmw1t0n6VS7e5ZGbT5MN7fRkRcdjfYpZfaVvFFR8lktslexauvnjSGNfvYY5HucidiImFX2m0a65KdOa/mgqbk2opbhTJiKtpHoyZERcoiqqKioi8MplOpUyUbPs/6WdZrjR1lbda6ruEbYn19TUJJPG1r2vRGZbhEyxM5RVxuyBpHKgjqDR3JNqKaNz7falplqd2UwrIXplE7Uieh3x17trLGt5dWwJbUh6R0rbTm+bxnaz2YNM5Rp7PpDkrZSXHT89+scKQ0c0LHJtRwomykiru3phMKmPSVN6cTmFr0ryHQUDLxJq6eotjF59LVVVyYR3HCwtakiqnDG/PaqAXP2bK6O6XfXlwgZsQ1VfHNGnDDXOlcifBTWeSDQjLvU6istTq3UVkutsr3pLSUFZzCPZubzitwuVyioqp1Y9md4+z1QzzQ6o1QtItJRX64umpI1bs/m0c9conDGX7KY9VTaNYckWndW3lt5e+utV3RMLW22bmZH4TCbWUVFwm7O5cbs8ANOvHJ7pGx6v01BqTW+pLlcJq1i0FJV1fP7T0cmFVNhVa1XIiKuUz27t2x6601oXlA1fBYbjXyUmp6SBJqeSnesc7Y8qqYcqK12F37P3k3qmN6kvR/I5p3SN5/LHPV13u+/Zq6+XnXR5TC7KIiIiqnWuV9pM1ryYWHXU9NV1/SqS5UrdmGuopOanYmc4zhUVMr1pu34xlQObXys1tyMXmyOm1bLqay3GqSndS1zMzpw+65VVy4RdyouM4y0/QBzew8jNis99p71cbhd9RXGl3wSXWp55IVRcorW4TenVnOF3pvwdIAAAAAAAAAAAAAAAAAAAAAAAAAAAAAAAAAAAAAAAAAAAAAAAAAAAAAAAAAAAAAAAAAAAAAAAAAAAAAAAAAAAAAABhvAyYbwAyAAAAA8Z4I6qB0UqbTHFMjLhZlxGjquk9XrZ/f4F+AKmLUNC5vpufCvYrc/syJdQ0LW+g58y9iNx+3BYPp4JlzJAx/8pqKI6aCHfHAxn8lqIBTKy4XlcSI6kpPV63/3+Bc08EdLAkUSbLGnsAAAAAAAAAAAAAADxkjZLG5j2o9jkVFRUyiovFFQ1h3Jjod1alU7SVn51Fz/AN1Yjc9uzjZX4G2gDxjiZFGkcbEYxqIiIjcIiJwREPYAAAAAAAAAAAAAAAAAAAAAAAAAAAAAAAAAAAAAAAAAAAAAAAAAAAAAAAAAAAAAAAAAAAAAAAAAAAAAAAAAAAAAAAAAAAABhvAyYbwAyAAAAAAAAAAAAAAAAAAAAAAAAAAAAAAAAAAAAAAAAAAAAAAAAAAAAAAAAAAAAAAAAAAAAAAAAAAAAAAAAAAAAAAAAAAAAAAAAAAAAAAAAAAAAAAAAAAAAAAAAAABhvAyYbwAyAAAAAAAAAAAAAAAAR+jS99n+DPKSABH6NL32f4M8o6NL32f4M8pIAEfo0vfZ/gzyjo0vfZ/gzykgAR+jS99n+DPKOjS99n+DPKSABH6NL32f4M8o6NL32f4M8pIAEfo0vfZ/gzyjo0vfZ/gzykgAR+jS99n+DPKOjS99n+DPKSABH6NL32f4M8o6NL32f4M8pIAEfo0vfZ/gzyjo0vfZ/gzykgAR+jS99n+DPKOjS99n+DPKSABH6NL32f4M8o6NL32f4M8pIAEfo0vfZ/gzyjo0vfZ/gzykgAR+jS99n+DPKOjS99n+DPKSABH6NL32f4M8o6NL32f4M8pIAEfo0vfZ/gzyjo0vfZ/gzykgAR+jS99n+DPKOjS99n+DPKSABH6NL32f4M8o6NL32f4M8pIAEfo0vfZ/gzyjo0vfZ/gzykgAR+jS99n+DPKOjS99n+DPKSABH6NL32f4M8o6NL32f4M8pIAEfo0vfZ/gzyjo0vfZ/gzykgAR+jS99n+DPKOjS99n+DPKSABH6NL32f4M8o6NL32f4M8pIAEfo0vfZ/gzyjo0vfZ/gzykgAR+jS99n+DPKOjS99n+DPKSABH6NL32f4M8o6NL32f4M8pIAEfo0vfZ/gzyjo0vfZ/gzykgAR+jS99n+DPKOjS99n+DPKSABH6NL32f4M8o6NL32f4M8pIAEfo0vfZ/gzyjo0vfZ/gzykgAR+jS99n+DPKOjS99n+DPKSABH6NL32f4M8o6NL32f4M8pIAEfo0vfZ/gzyjo0vfZ/gzykgAR+jS99n+DPKOjS99n+DPKSABH6NL32f4M8o6NL32f4M8pIAEfo0vfZ/gzyjo0vfZ/gzykgAR+jS99n+DPKOjS99n+DPKSABH6NL32f4M8o6NL32f4M8pIAEfo0vfZ/gzyjo0vfZ/gzykgAR+jS99n+DPKOjS99n+DPKSABH6NL32f4M8phKaVVytXMvsVGeUkmG8AMgAAAAABFq66nombU8rWZ4JxVfwAlApW390q/xagnmTt/6Io/L7ol/jNBPCnb/1RALoEWkrqetZtQStfjinBU/AlAAAAAAAAAAAAAAAAAAAAAAAAAAAAAAAAAAAAAAAAAAAAAAAAAAAAAAAAAAAAAAAAAAAAAAAAAAAAAAAAAAAAAAAAAAAAAAAAAAAAAAAAAAAAAAAw3gZMN4AZAAAAAV90uPQoUbGm3PLujb/AFkehsyIvSK789UO3qi70T6nnQoldeqmrfvZCvNx/s/v7y8AwiIjcJuQKiK3C70MgCnrrMir0ih/M1Dd6Im5F+hItVx6bC5sibE8W6Rv9ZYFHWp0G9U9WzcyZebk/Z/f3AXgAAGuT6209T6xg0tPcWMvdQ3nI6ZWu3phVT0sbKKqIqomcmxn5S5XKO4v5eL3d7U/FXYKCnujcdaRrEi/giO2l9iKB+rSpvl9t2mrPPdbvVtpKKmRFklflcZXCbkRVVVVcIiJlTGm77Tan01br1R/4iuhbMicdlVTe1fai5Rfahxn7QtwqdRV1Dom3Px0elmvNe5ODGRRuViL78LuXrVgHY6DU9ouemW6jpa+JbQ+J0/SnZa1GNztKu0iKmMLnKbsEiz3m33+1QXK11UdXRT5WOaNcouFVF+CoqKc05KKigpfsxUtTcqfpVBDRVslTDs55yNJZVe3C8coioWNo13prTXIdS6stVmlpLJEz81RR422qs3NqmVXH31VVVV38QOmA5RcOXa2RyL+RdPXy/08LWvqaqhp9qKDKIqtV29Fc3O/giL1m36K1xZte2Jt0ssr1hRyxyRSojZIXJ+i9EVUTdvTCqioBtBRaj1XZ9JUMFZe65KKCeobTMerXOzI7OE9FF6kVVXgmDU9Ycs9m0vfvyDSUFffbwmOcpqCPaWPKZRHL63sRF9uDl/LHyj2rW2hrfSRUtZa7pR3iFZ6Cuj5qVjVjlRHInW3O7PV1omUA/Qt7vlt07aZrldq2KipIEy6WRdyZ3InaqqvBE3qQ9K60sWtbfLW6fuDa6nhk5qR/NvjVHYRcYc1F4L2HGftLajfNQ0Gm3Wa5pBHXRVDqvmsU8/oPTm2Pzvd6XD2HSbBrShp+T+5XpNKXPTtFaY3vWjqaRKdz2sZtZjbuRUXhndvA30FJpLUdPq3SlBfaSJ8UFbHzjY5MbTN6oqLjduVCtodeW+t5S7homOnnSuoKRtW6VcbCouz6Kb85RHt/X2AWNPqqz1mqqvTcFajrtRwtnnp9l2WMdjC5xhfvN4L+kheHFdL/wCuBrP+iYv3KY2S98s+nrBqW82WuirOlWtsWyyNiPdVvkRFRkTc5VyZTjhOPYB0YHK7Jy6Wus1FTWa+WG8abqq12KZ9xh5tkmeGVXCpldyblT2m/X+/23TNkqbvd6ptLRUzdp8jt/HciIib1VV3IicQLYHG/wD2h7ekSV79I6kZZHLhLitKnN47eOzj/iydOpL/AGytsDb3T18D7W6FZ+lZwxI0TKuVV4Ywuc8OsC2ByF3L7Q1CS1dr0jqS62mBV5y4U9J+bwnFUz1e9U9pvlh1lY9RaUbqKgrU/Jqsc+SST0OZ2Pvo9F+6qY3+zem7eBsQOQu5faGoSWrtekdSXW0wKvOXCnpPzeE4qmer3qntOgaY1TatY2CC8WeodPSTZTe3Zcxybla5F4Ki/VN28C+AAAAAAAAAAAAAAAAAAAAAAAAAAAAAAAAAAAAAAAAAAAAAAAAAAAAAAAAAAAAAAAAAAAAAAAAAAAw3gZMN4AZAAAAAU2mf+5TZ+/zq5+CFyUdCqUN6qaR+5ky85H+3+/uLwAAABTal/wC5Q4+/zqY+ClyUdavTr1T0jN7IV5yT9v8Af3gXgAAHFKCnhrPtZajpqhjZIZrCkcjF4PavMoqL70O1nMrdpK8QfaMuuqZKVEs9Ram08c+23fJmP0dnO1+gq5xj2gU3I9cP4GXHVOgbtU7DLBK+upZJHcaR3pKvuTKOX2vUpdHU82otG8pPKPXxuSa90lXT0SP4spmRuRET3qiNX2xl1yy8l181Ze6G86WlZBWywPt1ftS82j4Hda9qJlyKnFUxjgb1VaVZb+Sqq0raWo7ZtclFTouG7bliVqKq8EVXLlV7VA0HQv8Aqe1P9D3L96c1ap/1HYPen/79ToektH3q3/Zyl0pV0qRXiS2VkCQue1UR8qyqxFciq39JM79xQz8n2o1+yszSLaDN8RqOWl51mf8AvXOY2s7Odn2+wDovJxbqa1cmun6WkibHGlBC9cJjac5iOc5cdauVVU55yKxpTcqPKdQwojKaO4NVkabkZl83BOo6rpiintmkrTQVKI2elo4YZERcojmsRq7/AHoaNydaQvOnuUrXt0uNKkVHd6xklJJttXnG5kcq4RVVMbTU343ga19m2CK40mp9SVDWvu1Zc3xyyO++jcI/GepFc5c9uPYhE+0/aaHoWnbtsRpXJW9G28ek+NUV2FXrRFTd2bXtJtRo/XfJprm63jQtvpr3ZbzJz09vklRjoX5VV2cuTgqqiKmdy4VNyKU+vdC8p3KHSUN3vFupaWalq2R09pp6hqpFEuVkmkerlarspGm5eGdyAbF9pj/NXTn9NRfuPN95U/8ARLqn+jZ/3FNb5bdI3rWNhsdLZqNtRPTXWKaXL2t2I9lyK70lTKIqpnG/2HQL3a4b1Ya61T7oa6nkppFTqa9qtX9oGo8h/wDoV03/ADDv+Y41PTyov2wtUY6rMzPwpiFpSm5W+Tu0/wAF6HS1BfaGne/odYtU2JEarld6SK5FxlVXCoiptYypYcnugNXWTlou2pNQviqkuFsXnauJURnPufGvNsbna2WpHhFVOCJ2gfGl/wDXA1n/AETF+5TEbS9upqv7XeraqoibJJR0Mb4ctzsOWOBu0nYuyqp/xKbHYdH3mi+0XqbVE9KjLRXW+KCGfnGrtPRsKKmznKY5peKdnaZ0zpG9UHL/AKq1NUUrWWqvpIo6efbaqyORsaKmyi5TCsXOUTqApPtPQMTk2oa1G7NRTXOJYpE4tyx+cL7cJ8EIP2jamsqG6KtsdKtbBXV+1JS7aMSd6bDWMVy7kzzj0yu5OJtfLrpG76y5PY7ZYqVtVVtropeb22s9FEc1Vy5UTdtJ+BY8pvJ+uvdKxUdPV9CutBI2eiqVzhkibsLjfhe1OC4XfjAFBNq/lEntz6CXkejfSSRrCsDrvDsKxUxs42cYxuwQOS/k4v8AT8jl/wBJ6hifa/yjLMynasrZXRMfG1MrsqqY2kzjO/fwyen8JeXBlAlt/gVbnV+zzf5S6XHzfZt7G3x68f8Ap6jZNMaIv1t5L66xXDUlZJfLgksslxZK5Vglem7m1XDtlFTqxlVVUxncGk6e1Dr/AJKbBBYL3oiW8WmgRWxV9qftrze0q5c1EXPHrRm7j2m2aaTR/KFyX3mg0giWulufPRzxti2HwTvbvVzEXHq8FwqbkXsprXfeWaw25lnq9H0t/qIW83Fc/wAoMjbIicHPRyoqrjjnZVfeTdB8l12sGhdQ0dVd+h37UL3zST0OWtpHqi7KMVMcFVcqmOxOGQNf09qHX/JTYILBe9ES3i00CK2KvtT9teb2lXLmoi549aM3ce03/kwvekr5pqar0fSsoqV9S6Sop0i5p0czkRXbTUVUyqbOMKqY3JwNTtd95ZrDbmWer0fS3+ohbzcVz/KDI2yInBz0cqKq4452VX3l9yQaBrtEWa5TXWpikut4qelVMcDcRQqucMb24VVyqbupOGVDo4AAAAAAAAAAAAAAAAAAAAAAAAAAAAAAAAAAAAAAAAAAAAAAAAAAAAAAAAAAAAAAAAAAAAAAAAAAGG8DJhvADIAAAACvulu6ZCjo12J4t8bv6iPQXlFXo1d+ZqG7lVdyL9C4ItXQ09azZnia/HBeCp+IElFRW5TegVURuV3IUyafdEv8Wr54U7P+ioP4PulX+M188ydn/VVA+q68pno1D+dqHbkVN6J9SRard0KFzpF255d8jv6j2pKGnombMETWZ4rxVfxJQAAAAAAAAAAAAAAAAAAAAAAAAAAAAAAAAAAAAAAAAAAAAAAAAAAAAAAAAAAAAAAAAAAAAAAAAAAAAAAAAAAAAAAAAAAAAAAAAAAAAAAAAAAAAAAMN4GTDeAGQAAAAAAAAAAAAAAAADV66fVtOtRNEy1LTx7T0zt7Wym/44A2gGlWm66uvFtjrqaO1JDLnG3tou5VRetetDb4ec5lnO7PO4Tb2OGevGerIHsAAAKOru9RBrGhtTUZzE8L5Hqv3spnGPgXgAAAAAABW3b8q8wz8kdF5zb9PpG1jZ9mOvJSVFRrClppJ5vyMyOJqvc5dvcib1A20FDp68VFfp1tzubYafO05VTKN2E/S3quCyZcKWS3Or45myUqNWTnG702U4/sAmA1CjueqL3CtbboaGkpFVeabUbSukROtcdv4f1ljp2+TXR9XR11O2mrqJyMla12WrnOFb8AL4Gr3C8Xl+pJbTZ4qPMMKSyPqNrr6kwvtQ9aRdXdLj6Wlr6PtJznN7e1s9ePaBsYBq96vN3g1LT2i1spHPlh53M+12u7F9gG0A06ovWpLK1Km7UVHPQoqJI+lcu0xF3Z3r/V+JY6jvr7dpr8p0WxIsmxzavyqYd143dQGwAq7FdW3myU9ajWosiYkYn6Lk3Knx/UfN/urLNZp6xWtc9iYjYv6Tl3In19gFsCj0vdZ73p+KtqEY2ZVc1djcm5cdeS8AAoNWXmqslqino2RPllmbEiSZVEyir1KnYQ3Ta1hbtrS2qfH6DHORf1qiAbWCisOo47xz1PLTvpK6m/xsD+Ke1OGUL0AAVkU1yW9SwyU0baBI0WOdH+k5+7KKnx6gLMFHY7xUXK73ilmaxGUMyRx7PHC54/AvAAAAAAAAAAAAAAAAAAAAAAAAAAAAAAAAAAAAAAAAAAAAAAAAAAAAAAAAAAAAGG8DJhvADIAAAAAAAAAAAAAAABEuf+Sav+Zf8AuqSyJc0VbTVom9Vhf+6oFBo+qZR8nkFTJ9yGOaRfcj3KQbRZ6vUtB+VbjdKyFZ1csMNO/ZbG1Fwm7C9hN0lTdN5O4aR3oc/FNHn3ucmf1kCxalp9OW5LTfGS0tTSbSIuwrkkbnKKiont9xRYabrq2mvNdYa+odVSUqJJFO/7z2Ljj24yn6yvttPU6ynqrhPX1VLQxyrFTw079jh+kvxJmmYprnqC46glgfBDO1Iadj9yqxMZXHtwhAs1zh0ZLUWi7I+GLnVlgnRqua9q9W5PZ8QPmmpqyi5SLdSVVS6qZHA/mZX/AH1YrXbnL1qi5Lm9UFZWXP8Ajd4/J9qbGmGxS7D5HdeVXq+JTU1dLdeUe3ViU8sNMtO9IecbhXtRHZdjqyq7jFydb6XWlXLqSJ76d7G9Ee9rnRomN6YT2+wCRaKv8maxgtdJd3XGhq4nLh8qSrE5EVcZThuQsLbUTUGtrjbaiV74apiVVPtrnHU5E/X+CFLRpTTa+tFRQW9KSjfHKkapFzfO4Y7Lsdm9ETJdawY6jWhvcTcut8yLJjisbtzk/v2gJqiev19BSQyyMp7dCssyNdhFe5MIi9u5UX4m0Gr6RjcltqrxU+hNcpXTLtdTEzsp7k3r7i2st3hvlrZXQsfHG5XIiP47lxncQWRqWq5pLlW0mnKd2H1TkkqFT9CJFz+vH6vabLU1EdJSTVEq4jhYsjsdiJlTXdHUstStVf6xuKi4O/Nov6EScET3/sRANi6HT9B6GsTVp+b5rm+rZxjHwFNSU9JSspoImxwMTCMRN2DFVHLNQzRQTcxM9itZIjc7Cqm5cewhRUtfTadWBtX0mvbE5GTPb95+/Gc/DeBGutwulvVkNssvTIUj++kqNRi8NnZ47kIWj1gmqbjVyTufdJpE6TE9ixrFjg1Grlce0+aDXNFDSJDeedorhEmJY3RO3qnWmEXifOnGT3PVddfm076ejliSGLnG4dJjZ9LH4FHk6nv38NLpLQU7IWzMjalTOi7DWo1M7KfpKq/DrPSS73zT1fA29yQVdDUv5tJ4W7KxuXhlN27++eo9qq/1Vhv9Q27pI62T4WCdrMpGuN7Vwmf2qV93uUetJKa02pkksDZUlqKlWK1rWplMJnfneBvZpF8r6W18o9DVVkvMwsolRX7KrxV6JwRVN3NQuMLZuU63pJE17OhOzluU3K8kDwv+qrfdrVJarQ59dV1f5trWMVEbld6qrkQxqujdb+TmCje7afDzTFX2pxNyighhT81EyPPqtRP2Gt8oaK7SMqImfzrP2lHxZv8AsbV9daV9GmrU6XTdmf00T+/BBeP+2tYUVqT0qegTpdR2bX6CL/fgp7axppm01LdqRivqrdKkuy3irF3OT+/VkxpClmWjqbpVsc2ouUiyuReKM4NT6ewDHJ3/AJoQ/wA4/wDabQaloWVtJods8uUZEsr19yKuf2F9aLnHeLVFXRMfGyZFVEdx3KqdXuJIouUL/I1H/v0f7rjbDUeURdmwUsio7EdWxy46k2XHo7lCsmziHpM7+pjIlyvxwUeFc1KflTtz4ty1NM5JUTrwjsKvwT4Eu9UFZWXP+N3j8n2psaYbFLsPkd15Ver4kew0VfctQSahuVM6l/N81TQP+8xvavZ1/FfYVtydb6XWlXLqSJ76d7G9Ee9rnRomN6YT2+wCRaKv8maxgtdJd3XGhq4nLh8qSrE5EVcZThuQsKKpndyj3GndKqwtpGKkedyL6O/H4qUtGlNNr60VFBb0pKN8cqRqkXN87hjsux2b0RMlxQtd/hPubsbuiM3/ACgeGnIlqL1qmFHuj5ybZ227lTO2mU9qEzRlbNNZ5aOre51VQSup5FV2V3LuX+r8Dy0o1yak1KqpjNS3/wB4q9Ty1FgvVXNSMc5t5puaRE6pkVG5+C/FQLfSs89zr7rdXyvWmmm5qnYrvR2W7sont/bk2cr7Pb22qzUtCz/wWIir2u4uX8VyWBAAAAAAAAAAAAAAAAAAAAAAAAAAAAAAAAAAAAAAAAAAAAAAAAAAAAAAAAAMN4GTDeAGQAAAAAAAAAAAAAAAAAA4Hy5rXfeRFx2n0AB8q1HJvbn3n0AMYTOQqIqYVMmQBjCcTWb/AEF5vMz7axsEFskVvOT7arI5qYVUx1bzZwBCqKNFs8tDTObAiwrDGvUz0cJ8D4tFubabRTULV2+ZZsq7hleKr+KlgABhEREwhkAAAB5rG1yormoqpwynA9AAMKiK3C70PlrGsbssa1E7E3H2AAAAAAAAAIF2on3Gz1VHHI2J80as21TKJnieluo2UFtp6Ni5bBG2PPbhMZ/ElgAAABhURUwqZMgDGE4jCZyZAGMYzjiavBa7tdL/AEtdeWU8EFHlYYInK7bev6Sr7MZQ2kAAAAAAAAAAAAAAAAAAAAAAAAAAAAAAAAAAAAAAAAAAAAAAAAAAAAAAAAAAAAMN4GTDeAGQAAAAAAAAAAAAAAAAAAAAAAAAAAAAAAAAAAAAAAAAAAAAAAAAAAAAAAAAAAAAAAAAAAAAAAAAAAAAAAAAAAAAAAAAAAAAAAAAAAAAAAAAAAAAAAAAAAAAAAAAAAMN4GTDeAGQAAAAAAAAAAAAAAACN0Ck7pB8ifQkgCN0Ck7pB8ifQdApO6QfIn0JIAjdApO6QfIn0HQKTukHyJ9CSAI3QKTukHyJ9B0Ck7pB8ifQkgCN0Ck7pB8ifQdApO6QfIn0JIAjdApO6QfIn0HQKTukHyJ9CSAI3QKTukHyJ9B0Ck7pB8ifQkgCN0Ck7pB8ifQdApO6QfIn0JIAjdApO6QfIn0HQKTukHyJ9CSAI3QKTukHyJ9B0Ck7pB8ifQkgCN0Ck7pB8ifQdApO6QfIn0JIAjdApO6QfIn0HQKTukHyJ9CSAI3QKTukHyJ9B0Ck7pB8ifQkgCN0Ck7pB8ifQdApO6QfIn0JIAjdApO6QfIn0HQKTukHyJ9CSAI3QKTukHyJ9B0Ck7pB8ifQkgCN0Ck7pB8ifQdApO6QfIn0JIAjdApO6QfIn0HQKTukHyJ9CSAI3QKTukHyJ9B0Ck7pB8ifQkgCN0Ck7pB8ifQdApO6QfIn0JIAjdApO6QfIn0HQKTukHyJ9CSAI3QKTukHyJ9B0Ck7pB8ifQkgCN0Ck7pB8ifQdApO6QfIn0JIAjdApO6QfIn0HQKTukHyJ9CSAI3QKTukHyJ9B0Ck7pB8ifQkgCN0Ck7pB8ifQdApO6QfIn0JIAjdApO6QfIn0HQKTukHyJ9CSAI3QKTukHyJ9B0Ck7pB8ifQkgCN0Ck7pB8ifQdApO6QfIn0JIAjdApO6QfIn0HQKTukHyJ9CSAI3QKTukHyJ9B0Ck7pB8ifQkgCN0Ck7pB8ifQdApO6QfIn0JIAjdApO6QfIn0HQKTukHyJ9CSAI3QKTukHyJ9B0Ck7pB8ifQkgCN0Ck7pB8ifQdApO6QfIn0JIAjdApO6QfIn0HQKTukHyJ9CSAI3QKTukHyJ9B0Ck7pB8ifQkgCN0Ck7pB8ifQdApO6QfIn0JIAjdApO6QfIn0HQKTukHyJ9CSAI3QKTukHyJ9B0Ck7pB8ifQkgCN0Ck7pB8ifQdCpEXKU0Ke3YRP6iSYbwAyAAAAAAAAAAAAAAAAAAAAAAAAAAAAAAAAAAAAAAAAAAAAAAAAAAAAAAAAAAAAAAAAAAAAAAAAAAAAAAAAAAAAAAAAAAAAAAAAAAAAAAAAAAAAAAAAAAAAAAAAAABhvAyYbwAyAAAAAAAAAAAAAAAAAAAAAAAAAAAAAAAAAAAAAAAAAAAAAAAAAAAAAAAAAAAAAAAAAAAAAAAAAAAAAAAAAAAAAAAAAAAAAAAAAAAAAAAAAAAAAAAAAAAAAAAAAABhvAyYbwAyAAAAAAAAAAAAAAAAAAAAAAAAAAAAAAAAAAAAAAAAAAAAAAAAAAAAAAAAAAAAAAAAAAAAAAAAAAAAAAAAAAAAAAAAAAAAAAAAAAAAAAAAAAAAAAAAAAAAAAAAAABhvAyYbwAyAAAAAAAAAAAAAAAAAAAAAAAAAAAAAAAAAAAAAAAAAAAAAAAAAAAAAAAAAAAAAAAAAAAAAAAAAAAAAAAAAAAAAAAAAAAAAAAAAAAAAAAAAAAAAAAAAAAAAAAAAABhvAyYbwAyAAAAAAAAAAAAAAAAAAAAAAAAAAAAAAAAAAAAAAAAAAAAAAAAAAAAAAAAAAAAAAAAAAAAAAAAAAAAAAAAAAAAAAAAAAAAAAAAAAAAAAAAAAAAAAAAAAAAAAAAAABhvAyYbwAyAAAAAAAAAAAAAAAAAAAAAAAAAAAAAAAAAAAAAAAAAAAAAAAAAAAAAAAAAAAAAAAAAAAAAAAAAAAAAAAAAAAAAAAAAAAAAAAAAAAAAAAAAAAAAAAAAAAAAAAAAABhvAyYbwAyAAAAAAAAAAAAAAAAAAAAAAAAAAAAAAAAAAAAAAAAAAAAAAAAAAAAAAAAAAAAAAAAAAAAAAAAAAAAAAAAAAAAAAAAAAAAAAAAAAAAAAAAAAAAAAAAAAAAAAAAAABhvAyYbwAyAAAAAAAAAAAAAAAAAAAAAAAAAAAAAAAAAAAAAAAAAAAAAAAAAAAAAAAAAAAAAAAAAAAAAAAAAAAAAAAAAAAAAAAAAAAAAAAAAAAAAAAAAAAAAAAAAAAAAAAAAABhvAyYbwAyAAAAAAAAAAAAAAAAAAAAAAAAAAAAAAAAAAAAAAAAAAAAAAAAAAAAAAAAAAAAAAAAAAAAAAAAAAAAAAAAAAAAAAAAAAAAAAAAAAAAAAAAAAAAAAAAAAAAAAAAAABhvAyYbwAyAAAAAAAAAAAAAAAAAAAAAAAAAAAAAAAAAAAAAAAAAAAAAAAAAAAAAAAAAAAAAAAAAAAAAAAAAAAAAAAAAAAAAAAAAAAAAAAAAAAAAAAAAAAAAAAAAAAAAAAAAABhvAyYbwAyAAAAAAAAAAAAAAAAAAAAAAAAAAAAAAAAAAAAAAAAAAAAAAAAAAAAAAAAAAAAAAAAAAAAAAAAAAAAAAAAAAAAAAAAAAAAAAAAAAAAAAAAAAAAAAAAAAAAAAAAAABhvAyYbwAyAAAAAAAAAAAAAAAAAAAAAAAAAAAAAAAAAAAAAAAAAAAAAAAAAAAAAAAAAAAAAAAAAAAAAAAAAAAAAAAAAAAAAAAAAAAAAAAAAAAAAAAAAAAAAAAAAAAAAAAAAABhvAyYbwAyAAAAA+HLsptLwQ0fU3KRQWd76WiTplS3c7C4Y1fa7rX2J8UIPKZq+S1Rpa6KTYnmbmV6cWtXgie1f1J7zkStVr3S7TlVeokzrpD6/wAG8CryaRnz9p7R8fq3Op5T9SVC7UcsVInYxiL+3IpuU/UlOu1JNDVp2PYifswUemNOz6pva0LJW07WtV7nK3Popjq696oNS6dn0te0oXy9IarUe1yNx6K56ureij7z6X3Pw32vuvlr5tb1r0+v+XVdMcpFBeHtpa1Oh1Ltzcrljl9jupfYvxU3dqo5MpwU/LmyrnpLtORU6jrvJlq+S6Rraq2Tbnhb+ae7i5qcUX2p+tPcWJ33fM+M+BV41Jz8ftHePh9HSQAHyLBj3jgU0+prXTXdtslqWsq34xGqLxXgmcYyvUmSrSlr7isbXCpxQxs7s/pGf0Sp/hBQPvjrR0hOmImebwvZnjjGcb8ZBWlrb1G9dVyACIAAAAAMHzlUDntRuVU1mo19pqnmfFLcU22KqLsxPVMp7URULDZjw5MvTHWZ+kbbNlevcM7Rr9v1pYLnKkVNcYle5cIj2q3K9ibSJlTYOLc/eKmTFkxT5b1mJ+fR9gAxYAAA+d2yYQdZX3W6U1moH1lY/YgjxlcZ4rhEwhStZtMVrG5lZZMNx1FfbLlT3i3xVlK/nIpN7VxjguF3L2KhYL2AmJrMxMdYfQAIPPCrxGFTh1EO53OltVBJWVcvNxRIm07ZVeK4Tcm/ifVur6a6W+OqpJOchkTLXb0z8d5V8lvL5tdO204AEQAAAAAAAAAAAAAAAAAAAAAAAAAAAAAAAAAAAAAAAAAAAAAAAAAAAAAAAAAAAAAAAAAAAAADDeBkw3gBkAADDl2WOXsMnzJ/ine4LD83airnXXU9XWudtbUrlT+Si4an4Jgj0douNYx81FST1DUXCujY57UX24RT4qYHQzzRP3PjerF96Lg3nRXKFbrJYUoaumle+Jy4WJGrlFXO/KpvTh7jGJ3PV+s8jLl4vEr7pXza1Gvk9+S+0XCh1LLJV0NRCzo7kR8sStRVVzVxlUTfuHKfaLjXalikpKGonZ0dqK+OJXIio5y4yiLv3m46c11btSXF9JSwVEUjYleqyI1EwionU5d+8aj11btN3FtJVQVEsjokeixo1UwqqnW5N+4y6PiPe+X7/wC29n9/XZxGrtFxo2MmraSanRVwjpGOY1V9mUQkacrnWrU1HXNds7MjVX+Sq4cn4pk27WvKFbr3YloaSlna+VyZWXZTCIud2FXevD3GjUsDpp4om73uejE96rgkzrs+34+XLyuJb3unl3uNfJ+nGLtNRe1D6PiP/Ft9yH2V+Sy+V4nDddUk9ZylVMVNlZcNVqJxVUjR2727tx3BP0jlNWiScuaRr6zf+UV73gd5x5cl49KTP5Nq0Hqht+taQVDsV9KiNkT1k6nfj1+38DV49/Ltnq2l/wCQp96rtVTo/UEOo7Yz8xI78+1OCKvFF/2V/Uv4FbZrlFduWKGtp1asUyKvtT8yuUX2ou4nwiXdx8FZjLyMP8FqW/CfWP7N71NrWi049tMqSVVa9MpFH1J1bS9WeripWWzlKppq1tLc6CW2PkxsvkXLd/DOURURe3BqLJrlJymVs1Lb2V1VHLJssc5EwiLsou9U4JjBaanpNVanp44ajTzIHRP2myMlbnhhU3u4L/UNy1x4dxqRSmTXWNzbzRExv4Q3DU2r6fTlTb45Y1kZVquXouEaiKmV9vHgTdRX2DT1ldWyNV+FRGRouFcq9WTTtaWaf/BzQz1CZqbeyPnN+dyojXJnr34z7iFd692qqPS9sa7bWoRr5v8Ah3Kv6nF6uTFwcV647x2iZi0/Tr+TftOX+G/2ZldExY8qqPjVcq1ydX9ZE0xq2HUlXXRQQvYyleiI9Vyj0XOF9nDgaXZbg/TVv1PbXO2XU21JD+O5F/W02LkrtvRNLrVuT06yRX/8Kein60VfxHVhyOHjw48mTXTcRX8ev5N0en5p38k47yb2ehvNyuLLhTMmSNrVaj+rKqdifuidn1ThejaK9XGtr2WSsippG45zbVUzv3cGqT1hv8Jifds+reX+Hr8Os/BsXKLpS1Wqzx1luhbTSo9G7COXD0wvUvWmOo27S93X+A9LcLlNsbMSq+R/Y1VTK9qqificzrYLhVayp7Pqe5PxtIxHpvbvTcrc4RM8M43dfA3PlKYtu0LT0dJHsUySxxYb6iIqonxRBE93TycM3ph4uS3mm0783yn4TPd5y8qjXSPdRWioqaZn3pc4wnbhEXH4qbTp7UtFqKi6RSuVFauHxv8AvMX2+zsU0jTNbqWk07T09t09FNSuZlJOdRFkzv2l38VPTQ1gvVv1RV1tXQpR08sb/wA2j2qiKqoqIiIq8P2CNufk8PjRS/l1Wa9vvRMz9Y9JWy8pdvjqa+CWmlR1JJzbERyKsq52dybsdvuPK0cp9FcLg6lrKV9AqIqo97st3JlUXciouPYUGhaaKflFubnRtejOdcmepVem9PbhVPrlEpYHa2tbOba3nEYj/wDbTaVN/wCA6623RwuJ7aeNNZ3Nd7326b7LeXlZpGViNW21DaVV3SuVEVydqN/tLzUV2tb9GzV1TEldRysaqR8NvKpjfxTC/ihB5SKKn/gJUSLE1roljVi7P3fSRu7s3Lg12V6y8hMSIu27ax8JlHWNtGLjcfNTHlxxNfvxWev4722am1Lb7VoCK7UlIsdMiYbAi42VV+yqZ9+VyQavlSomUcMtJRy1Mz2c5I1HYSL2KuF3/hwKWdrv8CEC9W3/APFU2fk6oaZmjKZ7Ym7cu06RetV2lRM/gmBvfQycfj4cds2Ss2mLzHf803SusaHU8UnNI+Coj+9E/GcdqY4oR9Ua6odNzpTLE+qqVTKxsciIxF4bS9WercpqekY4qXlTuUTPzcaLMmE4Y2kVE/DB42SCK6crtY6qa2RIpZHRo/fvauy39W9PcOumXuHHrmtaYnyRXza+vpt76j1tT33SFdSup30lTiNyRyO3Km2nBd37OBtfJzJzegKF73NRuHqq9SJtuK7lToaddK9I5trZYXpsL179yp+PH8CuppnxchTnw7nbDm7uxZla79SqXt3Zzjx5+DSuKPLFskR8ddNJ9XynwrXPgtltmuEcfGRPRTd1omFXHvwXmmNYUWpontiRYKmLc+B+M47U7UNH0TV6gorEjrXYIqmN7nKsqvRFcqLjfvThgkWLT9/dyiMvU9uSggdnnWMe3Z3tVF3Iqqqqu/37xGzkcDi1jJTpWax0nzRMzMekx82w3HlDorZfqu3TwPRtM3POI5PSdhFwifjjOSy0nqVNTUc1UlM+nSN+zvXKLuRdy4T8TQm0rKrlokhkY2VqSbWF3plI8p+tDrTGNb930UJEzLh52HBx6UpWv3rVid7/AEewADxwAAAAAAAAAAAAAAAAAAAAAAAAAAAAAAAAAAAAAAAAAAAAAAAAAAAAAAAAAAAAAAAAw3gZMN4AZAAAwv3VMgDhHKLYpbTqKSeNv8XqlWVF6sr95Pjv9ymobDEftpxP0ff7HS3+2Po6mPcu9jk4tcnBUOGaj0ZcLBO5Z4pHQZ9GdjcsX39i+xf1kmNdX6P4F4xjy4owZZ1aOn1XXJZVwwardz0rY0kgc1uVxl2Wrj4Io5UquGfVbVhlbIkcDWuwucOy5cfBUNKxIm9gxIu95N9Hqf6bX333zz+mtGyxZNteJt3JxY5btqOOeRv8XpVSVezKfcT47/chWab0ZcL/ADo6CKRsGfSme3DE93avsT9R3OwWOm0/bGUdMzcm9714ucvFVLEb6vK8d8Yx4sU4MU7tPT6LZv3TIBX5y+EXKnP5tLV8nKzFe0hToiJlZMpuwzZxjOc59hv6Km17z6LLo4/Ivx/NNP8AlEx+EotfRRXGjlpZ2NkimYrXNXsU5ppjQFwsnKAlWse1RxbSpLlN6bCtTdnOd+/cdV4oYb6KcStnH52Xj0vip2tGpc91JpG7U+okv2nnI6pd/jIlVEyuMKu/CKipxTKb96eyHV0OuNUOZR1kUVBSZ9NzFwi+9NpVX2JwOmNX0neiZxkmm2niWSIjdYma9ImY6x/16KyqtUdXp6S1ySK9HQ8ztrvX7uEVfb1mjaC0Zc7ZfnVt1g2IqeNWQemjsqqrnGFXdhV+PvOmIgTc1cFasXOy4sd8Ve1u/wDj6uZa60bc7hqFau1xbcVSxrZvTRuFRU45VN2ERfwOg2mgZbbVTUcaehBG1ifgmM/iTUXdvCLx9IkJm5mTNirit2r++r5e3bjc3/ZNB5O9L19hr7lLWQpGyRUbGuUXb3quUwq7vedCPkjDFyb4sdsVe1tb/BpHKJpOW90kVXb4tuug3bGURZGL1ZXrRd6fiT1slRfNDR2y7+hVuiTacnpbL04KuOK9vbvNo4ZPlMo5fSK2e/ZYx1xx/wAZ3E+sf4cxoabXmnKT8nUtHT1VOxVSKRVRcJx3b0XHvQvNGaevVFW1VzvVS51TUpjmtvKImc5XG7PUiJuRDdEQZ3CG3L4hfJWY8tYm3eYjrLQNH6Zudq1jdq6piayCTbSN+0i7eXIqLhFzwTrM6y01crtqu01lLE18UbmpK/KJsYdtZwq54dhv2MjGEwPTTH/UMvtvbdN61/TTWta2mru+j6qipGbdQ/YVG5RNrDkVUyu7ghSSaWuaclKWdIU6cnpc3lP/ADFdjOcZwvadAx6IxsoXbHFzsmGkY6xGot5vx/s5/UaWuT+SaOzNizXNTKx7SeursZzjOF7TY9I2yotGlKOiqW7E8bV2m5zhVVVxlN3WXv6OU4mP0MY3kgy83JlxzjtrU2m34z+jn9k0xdKTlGrblPAiUcm2rZMpv2lRcYzn37iPqvR91p9TMv8Ap9P4wq5dGioio7GFVM7lRU4odI2d+11jh+A1DbXxPNXJGTUdvLr0mPm5Zd9P601RaHOuPNxLDh0VNG5qLI7KIqrvVNzc4yvHqNq07p57dBxWe5xbLnse17EVFxtOVeKbspn4m1IZX7vYXbHL4jkyUjHERWIncajWnLaG1a00kslHbYY7hSuftNVcblXrRNpFT2pvQtNMWLUL9QOvd8nWOTZVrYWvyiou7ComURqdnHO9fbvi5yoa7fheJNLk8Rves7rWJt0mddZaDSaZr4eVaa7OiToe96SZTflmzjGc5z7Df9kbKH1gkdHLn5F+RMTf0iI/kyAA0AAAAAAAAAAAAAAAAAAAAAAAAAAAAAAAAAAAAAAAAAAAAAAAAAAAAAAAAAAAAAAAABhvAyYbwAyAAAAAHm6NsjFa9rVRdyou9FPQA7Ncq9C6crF2pLZC1f8A7vLP2KgpNC6co1zHbIXKn/mZf+1VNgwZxjgOjo97z68vnnX1l8sjbGxGsa1ETciJuQ9AA5+4AAAAAAAAAAAAAAAAAAAAAAAAAAAAAAAAAAAAAAAAAAAAAAAAAAAAAAAAAAAAAAAAAAAAAAAAAAAAAAAAAAAAAAAAAAAAAAAAAAAAAAAAAAAAAGG8DJhvADIAAAAAAAAAAAAAAAAAAAAAAAAAAAAAAAAAAAAAAAAAAAAAAAAAAAAAAAAAAAAAAAAAAAAAAAAAAAAAAAAAAAAAAAAAAAAAAAAAAAAAAAAAAAAAAAAAAAAAAAAAAGG8AAP/2Q==;" vertex="1" parent="3d76a8aef4d5c911-1">
          <mxGeometry x="335" width="428.33927286356817" height="761.8740629685158" as="geometry" />
        </mxCell>
        <mxCell id="weA9xtiZrkl5eeY-r4LS-13" value="" style="rounded=0;whiteSpace=wrap;html=1;strokeColor=none;" vertex="1" parent="3d76a8aef4d5c911-1">
          <mxGeometry x="340" y="4.881329305135951" width="480" height="123.05673716012085" as="geometry" />
        </mxCell>
        <mxCell id="weA9xtiZrkl5eeY-r4LS-14" value="&lt;h1 style=&quot;&quot;&gt;&lt;font style=&quot;font-size: 21px;&quot;&gt;Get-R-Done&lt;/font&gt;&lt;/h1&gt;" style="rounded=0;whiteSpace=wrap;html=1;strokeColor=#6c8ebf;fillColor=#dae8fc;fontStyle=1;align=center;" vertex="1" parent="3d76a8aef4d5c911-1">
          <mxGeometry x="10" y="40" width="330" height="47.91" as="geometry" />
        </mxCell>
        <mxCell id="weA9xtiZrkl5eeY-r4LS-15" value="" style="endArrow=none;html=1;rounded=0;entryX=0.909;entryY=0.115;entryDx=0;entryDy=0;exitX=0;exitY=1;exitDx=0;exitDy=0;entryPerimeter=0;" edge="1" parent="3d76a8aef4d5c911-1" source="weA9xtiZrkl5eeY-r4LS-14" target="weA9xtiZrkl5eeY-r4LS-11">
          <mxGeometry width="50" height="50" relative="1" as="geometry">
            <mxPoint x="135" y="136.74662668665667" as="sourcePoint" />
            <mxPoint x="185" y="87.90854572713643" as="targetPoint" />
          </mxGeometry>
        </mxCell>
        <mxCell id="weA9xtiZrkl5eeY-r4LS-18" value="&lt;h1&gt;&lt;font style=&quot;font-size: 25px;&quot;&gt;Bob&#39;s Tasks&lt;/font&gt;&lt;/h1&gt;" style="rounded=0;whiteSpace=wrap;html=1;align=center;fillColor=#d5e8d4;strokeColor=#82b366;" vertex="1" parent="3d76a8aef4d5c911-1">
          <mxGeometry x="340" y="92.79446374622357" width="450" height="35.14360271903323" as="geometry" />
        </mxCell>
        <mxCell id="weA9xtiZrkl5eeY-r4LS-19" value="&lt;h2&gt;&lt;font style=&quot;font-size: 21px;&quot;&gt;&lt;b&gt;Logout&amp;nbsp;&lt;/b&gt;&lt;/font&gt;&lt;/h2&gt;" style="rounded=0;whiteSpace=wrap;html=1;align=right;strokeColor=none;" vertex="1" parent="3d76a8aef4d5c911-1">
          <mxGeometry x="837" y="43.68" width="120" height="42.32" as="geometry" />
        </mxCell>
        <mxCell id="weA9xtiZrkl5eeY-r4LS-20" value="" style="shape=image;verticalLabelPosition=bottom;labelBackgroundColor=default;verticalAlign=top;aspect=fixed;imageAspect=0;image=https://www.svgrepo.com/download/42233/pencil-edit-button.svg;" vertex="1" parent="3d76a8aef4d5c911-1">
          <mxGeometry x="756" y="92.79446374622357" width="33.4607250755287" height="33.4607250755287" as="geometry" />
        </mxCell>
        <mxCell id="weA9xtiZrkl5eeY-r4LS-31" value="" style="html=1;shadow=0;dashed=0;shape=mxgraph.bootstrap.rrect;rSize=5;strokeColor=#CED4DA;html=1;whiteSpace=wrap;fillColor=#FFFFFF;fontColor=#7D868C;align=left;spacing=15;spacingLeft=40;fontSize=14;" vertex="1" parent="3d76a8aef4d5c911-1">
          <mxGeometry x="340.24" y="36" width="430" height="52" as="geometry" />
        </mxCell>
        <mxCell id="weA9xtiZrkl5eeY-r4LS-32" value="&lt;font style=&quot;font-size: 18px;&quot;&gt;Sort List by...&lt;/font&gt;" style="html=1;shadow=0;dashed=0;shape=mxgraph.bootstrap.leftButton;strokeColor=#6C757D;gradientColor=inherit;fontColor=inherit;fillColor=inherit;rSize=5;perimeter=none;whiteSpace=wrap;resizeHeight=1;fontSize=14;align=left;spacing=15;" vertex="1" parent="weA9xtiZrkl5eeY-r4LS-31">
          <mxGeometry width="170" height="48.73" relative="1" as="geometry" />
        </mxCell>
        <mxCell id="weA9xtiZrkl5eeY-r4LS-33" value="" style="shape=triangle;direction=south;fillColor=#6C767D;strokeColor=none;perimeter=none;" vertex="1" parent="weA9xtiZrkl5eeY-r4LS-32">
          <mxGeometry x="1" y="0.5" width="10" height="5" relative="1" as="geometry">
            <mxPoint x="-17" y="-2.5" as="offset" />
          </mxGeometry>
        </mxCell>
        <mxCell id="weA9xtiZrkl5eeY-r4LS-34" value="&lt;font style=&quot;font-size: 24px;&quot;&gt;Custom Sort&lt;/font&gt;" style="text;html=1;strokeColor=none;fillColor=none;align=center;verticalAlign=middle;whiteSpace=wrap;rounded=0;fontSize=24;" vertex="1" parent="weA9xtiZrkl5eeY-r4LS-31">
          <mxGeometry x="172.76" y="16.182499999999997" width="194.24" height="24.365" as="geometry" />
        </mxCell>
        <mxCell id="weA9xtiZrkl5eeY-r4LS-36" value="" style="shape=image;verticalLabelPosition=bottom;labelBackgroundColor=default;verticalAlign=top;aspect=fixed;imageAspect=0;image=https://cdn-icons-png.flaticon.com/512/6438/6438882.png;" vertex="1" parent="weA9xtiZrkl5eeY-r4LS-31">
          <mxGeometry x="378" width="52" height="52" as="geometry" />
        </mxCell>
        <mxCell id="weA9xtiZrkl5eeY-r4LS-37" value="" style="ellipse;whiteSpace=wrap;html=1;aspect=fixed;fillColor=#d5e8d4;strokeColor=#82b366;" vertex="1" parent="3d76a8aef4d5c911-1">
          <mxGeometry x="353" y="254" width="26" height="26" as="geometry" />
        </mxCell>
        <mxCell id="weA9xtiZrkl5eeY-r4LS-62" value="" style="ellipse;whiteSpace=wrap;html=1;aspect=fixed;fillColor=#dae8fc;strokeColor=#6c8ebf;" vertex="1" parent="3d76a8aef4d5c911-1">
          <mxGeometry x="353" y="537" width="26" height="26" as="geometry" />
        </mxCell>
        <mxCell id="weA9xtiZrkl5eeY-r4LS-64" value="" style="ellipse;whiteSpace=wrap;html=1;aspect=fixed;fillColor=#0050ef;fontColor=#ffffff;strokeColor=#001DBC;" vertex="1" parent="3d76a8aef4d5c911-1">
          <mxGeometry x="352" y="722" width="29" height="29" as="geometry" />
        </mxCell>
        <mxCell id="weA9xtiZrkl5eeY-r4LS-65" value="" style="shape=cross;whiteSpace=wrap;html=1;" vertex="1" parent="3d76a8aef4d5c911-1">
          <mxGeometry x="358" y="726" width="17" height="21" as="geometry" />
        </mxCell>
        <mxCell id="weA9xtiZrkl5eeY-r4LS-67" value="Status: Ready" style="html=1;shadow=0;dashed=0;shape=mxgraph.bootstrap.popover;fillColor=#1A1A1A;strokeColor=none;dx=45;dy=5;rSize=5;whiteSpace=wrap;verticalAlign=top;spacing=10;fontSize=12;spacingLeft=0;align=center;spacingTop=-10;fontColor=#FFFFFF;" vertex="1" parent="3d76a8aef4d5c911-1">
          <mxGeometry x="320" y="110" width="94" height="37" as="geometry" />
        </mxCell>
        <mxCell id="weA9xtiZrkl5eeY-r4LS-69" value="Status: In Progess" style="html=1;shadow=0;dashed=0;shape=mxgraph.bootstrap.popover;fillColor=#1A1A1A;strokeColor=none;dx=45;dy=5;rSize=5;whiteSpace=wrap;verticalAlign=top;spacing=10;fontSize=12;spacingLeft=0;align=center;spacingTop=-10;fontColor=#FFFFFF;" vertex="1" parent="3d76a8aef4d5c911-1">
          <mxGeometry x="320" y="220" width="126" height="34" as="geometry" />
        </mxCell>
        <mxCell id="weA9xtiZrkl5eeY-r4LS-70" value="Status: Complete" style="html=1;shadow=0;dashed=0;shape=mxgraph.bootstrap.popover;fillColor=#1A1A1A;strokeColor=none;dx=45;dy=5;rSize=5;whiteSpace=wrap;verticalAlign=top;spacing=10;fontSize=12;spacingLeft=0;align=center;spacingTop=-10;fontColor=#FFFFFF;" vertex="1" parent="3d76a8aef4d5c911-1">
          <mxGeometry x="320" y="505" width="126" height="32" as="geometry" />
        </mxCell>
        <mxCell id="weA9xtiZrkl5eeY-r4LS-71" value="" style="line;strokeWidth=2;html=1;" vertex="1" parent="3d76a8aef4d5c911-1">
          <mxGeometry x="300" y="-5.12" width="463.34" height="10" as="geometry" />
        </mxCell>
        <mxCell id="weA9xtiZrkl5eeY-r4LS-24" value="" style="html=1;shadow=0;dashed=0;shape=mxgraph.bootstrap.rrect;rSize=5;fillColor=#ffffff;strokeColor=#999999;fontSize=16;" vertex="1" parent="1">
          <mxGeometry x="380" y="-1780" width="170" height="127.37" as="geometry" />
        </mxCell>
        <mxCell id="weA9xtiZrkl5eeY-r4LS-25" value="All Tasks (default)" style="fillColor=none;strokeColor=none;align=left;spacing=20;fontSize=18;" vertex="1" parent="weA9xtiZrkl5eeY-r4LS-24">
          <mxGeometry width="170" height="30" relative="1" as="geometry">
            <mxPoint y="10" as="offset" />
          </mxGeometry>
        </mxCell>
        <mxCell id="weA9xtiZrkl5eeY-r4LS-27" value="Status" style="fillColor=none;strokeColor=none;align=left;spacing=20;fontSize=18;" vertex="1" parent="weA9xtiZrkl5eeY-r4LS-24">
          <mxGeometry width="170" height="30" relative="1" as="geometry">
            <mxPoint y="70" as="offset" />
          </mxGeometry>
        </mxCell>
        <mxCell id="weA9xtiZrkl5eeY-r4LS-28" value="Title" style="fillColor=none;strokeColor=none;align=left;spacing=20;fontSize=18;" vertex="1" parent="weA9xtiZrkl5eeY-r4LS-24">
          <mxGeometry y="37.759194606031826" width="170" height="34.73727272727273" as="geometry" />
        </mxCell>
        <mxCell id="weA9xtiZrkl5eeY-r4LS-29" value="Due Date" style="fillColor=none;strokeColor=none;align=left;spacing=20;fontSize=18;" vertex="1" parent="weA9xtiZrkl5eeY-r4LS-24">
          <mxGeometry width="170" height="30" relative="1" as="geometry">
            <mxPoint y="98" as="offset" />
          </mxGeometry>
        </mxCell>
        <UserObject label="" id="weA9xtiZrkl5eeY-r4LS-72">
          <mxCell style="html=1;shadow=0;dashed=0;shape=mxgraph.bootstrap.rect;fillColor=default;strokeColor=none;whiteSpace=wrap;rounded=0;fontSize=18;fontColor=#000000;align=center;" vertex="1" parent="1">
            <mxGeometry x="1598" y="-1660" width="1376" height="2050" as="geometry" />
          </mxCell>
        </UserObject>
        <mxCell id="weA9xtiZrkl5eeY-r4LS-73" value="Company" style="html=1;shadow=0;dashed=0;fillColor=none;strokeColor=none;shape=mxgraph.bootstrap.rect;fontColor=#999999;fontSize=14;whiteSpace=wrap;" vertex="1" parent="weA9xtiZrkl5eeY-r4LS-72">
          <mxGeometry width="115" height="39.07046476761619" as="geometry" />
        </mxCell>
        <mxCell id="weA9xtiZrkl5eeY-r4LS-74" value="People" style="html=1;shadow=0;dashed=0;shape=mxgraph.bootstrap.rect;fillColor=#000000;strokeColor=none;fontColor=#ffffff;spacingRight=30;whiteSpace=wrap;" vertex="1" parent="weA9xtiZrkl5eeY-r4LS-72">
          <mxGeometry x="115" width="129.375" height="39.07046476761619" as="geometry" />
        </mxCell>
        <mxCell id="weA9xtiZrkl5eeY-r4LS-75" value="84" style="html=1;shadow=0;dashed=0;shape=mxgraph.bootstrap.rrect;rSize=8;fillColor=#ff0000;strokeColor=none;fontColor=#ffffff;whiteSpace=wrap;" vertex="1" parent="weA9xtiZrkl5eeY-r4LS-74">
          <mxGeometry x="1" y="0.5" width="25" height="16" relative="1" as="geometry">
            <mxPoint x="-30" y="-8" as="offset" />
          </mxGeometry>
        </mxCell>
        <mxCell id="weA9xtiZrkl5eeY-r4LS-76" value="Violations" style="html=1;shadow=0;dashed=0;fillColor=none;strokeColor=none;shape=mxgraph.bootstrap.rect;fontColor=#999999;spacingRight=30;whiteSpace=wrap;" vertex="1" parent="weA9xtiZrkl5eeY-r4LS-72">
          <mxGeometry x="244.375" width="158.125" height="39.07046476761619" as="geometry" />
        </mxCell>
        <mxCell id="weA9xtiZrkl5eeY-r4LS-77" value="42" style="html=1;shadow=0;dashed=0;shape=mxgraph.bootstrap.rrect;rSize=8;fillColor=#ff0000;strokeColor=none;fontColor=#ffffff;whiteSpace=wrap;" vertex="1" parent="weA9xtiZrkl5eeY-r4LS-76">
          <mxGeometry x="1" y="0.5" width="25" height="16" relative="1" as="geometry">
            <mxPoint x="-30" y="-8" as="offset" />
          </mxGeometry>
        </mxCell>
        <mxCell id="weA9xtiZrkl5eeY-r4LS-78" value="Statistics" style="html=1;shadow=0;dashed=0;fillColor=none;strokeColor=none;shape=mxgraph.bootstrap.rect;fontColor=#999999;whiteSpace=wrap;" vertex="1" parent="weA9xtiZrkl5eeY-r4LS-72">
          <mxGeometry x="402.5" width="115" height="39.07046476761619" as="geometry" />
        </mxCell>
        <mxCell id="weA9xtiZrkl5eeY-r4LS-79" value="Settings" style="html=1;shadow=0;dashed=0;fillColor=none;strokeColor=none;shape=mxgraph.bootstrap.rect;fontColor=#999999;whiteSpace=wrap;" vertex="1" parent="weA9xtiZrkl5eeY-r4LS-72">
          <mxGeometry x="517.5" width="100.625" height="39.07046476761619" as="geometry" />
        </mxCell>
        <mxCell id="weA9xtiZrkl5eeY-r4LS-80" value="Profile" style="html=1;shadow=0;dashed=0;fillColor=none;strokeColor=none;shape=mxgraph.bootstrap.rect;fontColor=#999999;whiteSpace=wrap;" vertex="1" parent="weA9xtiZrkl5eeY-r4LS-72">
          <mxGeometry x="948.75" width="100.625" height="39.07046476761619" as="geometry" />
        </mxCell>
        <mxCell id="weA9xtiZrkl5eeY-r4LS-81" value="Log Out" style="html=1;shadow=0;dashed=0;fillColor=none;strokeColor=none;shape=mxgraph.bootstrap.rect;fontColor=#999999;whiteSpace=wrap;" vertex="1" parent="weA9xtiZrkl5eeY-r4LS-72">
          <mxGeometry x="1049.375" width="100.625" height="39.07046476761619" as="geometry" />
        </mxCell>
        <mxCell id="weA9xtiZrkl5eeY-r4LS-82" value="" style="rounded=0;whiteSpace=wrap;html=1;" vertex="1" parent="weA9xtiZrkl5eeY-r4LS-72">
          <mxGeometry x="13" width="1150" height="761.8740629685158" as="geometry" />
        </mxCell>
        <mxCell id="weA9xtiZrkl5eeY-r4LS-83" value="" style="shape=image;verticalLabelPosition=bottom;labelBackgroundColor=default;verticalAlign=top;aspect=fixed;imageAspect=0;image=data:image/jpeg,/9j/4AAQSkZJRgABAQEAkACQAAD/2wBDAAcFBQYFBAcGBgYIBwcICxILCwoKCxYPEA0SGhYbGhkWGRgcICgiHB4mHhgZIzAkJiorLS4tGyIyNTEsNSgsLSz/2wBDAQcICAsJCxULCxUsHRkdLCwsLCwsLCwsLCwsLCwsLCwsLCwsLCwsLCwsLCwsLCwsLCwsLCwsLCwsLCwsLCwsLCz/wAARCAU2Au4DASIAAhEBAxEB/8QAHAABAAIDAQEBAAAAAAAAAAAAAAQFAQYHAwII/8QAYRAAAQMDAQMIBwMGCAsFBAgHAAECAwQFEQYSITEHExRBUVST0iJSYXGRktEIMoEVI0KhsbIWJHJzdcHh8BczNTY3OGJ0grPxJTRDU6IYwsPTJkVXY2SDhLRGZXaUo6XE/8QAGwEBAQADAQEBAAAAAAAAAAAAAAECAwQFBgf/xAA4EQEAAgIBAgMFBgUEAQUAAAAAAQIDEQQhMQUSQRMUUWFxBiKBscHwMpGh0eEVNELxciMkUlOS/9oADAMBAAIRAxEAPwD9IgAAAeckjYo3yO4NRVX3IB6AgUd0hrZHRxNeiomfSb1fEqbXWVMt0YySZ72OzlFXdwUDZQDQuUnlOpOTpts563SV8lfK7bbG/ZWKFmOclXDVzjKbt2e1AN9Br+pLrd6CzQ1en7H/AAinkkanMNrGU6c2qKu3tvyi9SY68miRcq2tJ9SVFgj5MnLdKaBtTLB+W4PRjVcIu1s7K5XqRcgdbBptfrafT3J1PqfUllltdRAnp2+OoZUO2lfsMaj24au1lF9iL7CFateXqHU9ssuqtMtsj7wki0UsVa2pbtsbtOjkw1Nl2OCplFXcgG/g1HU9/wBWWq5RQ2HRTr/TOi231CXOKm2H5VNjZemV3Ii54el7DU7Hyra01HSzVdp5MnVMEMz6eR/5bgbiRi4cmHNRd3bwA60D5aqq1FVNlew0TlH5VrJyb0jErGrV3OobtQ0MTkRz04bTl37LcpjOFVepFwuA30H5Yj5UeWPlCndJpe2yUdFlzUdSUqbG7qdNJlNpE7FT3H3LW/aG03F0ueK4VMbVyrEZDV5Re1rdp2PdjAH6kBwPQH2kqW610dq1hSRWqqe7m0rI8pDtZxh7XZVntXKpnjhDvgAAAAAAAAAAAAAAAAAAAAAAAAAAAADm+quVKpterV0rpfTlRqW+RxJNURslSGOnaqIrdp6oqb0VF6k9JN+VwB0gHP8AQPKa3V15r7Fc7NU2HUFsTamo5n84is3JtNdhM73J1cFRUVUU2mh1JZ7leKy1Udypp66gx0mBj8uiz2p/fAFuDjl6+0PZ6TU1La7NbJb1Ty1LaWSvZLzUCSKqJhjtldvCLleCdiqm833W+tLZoPTNRe7m5yxtVI4om/fmkXg1ufcqr2IiqBswOMN5b73amU1x1Zyf11lsdXIjW1iT86seeG2zYRd/twuOCKdhhljqIGSxPa+KREc1yLlHIu9FRQPYHMNfcrNdpHXFv0tbdLS36tr6ZKliR1XNO+89Fajdhc4SNVzlDysfLLz+qKXT+qNLXHS1bXrs0rqh3ORSuVcI1HbKb1VcbkVM8QOqA5jrzljpdCa+tWna21rLBXxxyyVvSNlIGvkcxVVmyuUTZyvpIdIkkZDE+WR7WMaiq5V3IiJxVQPYHM+TLlgg5Sb1d6OltLqKG3ojo53z7azNVyoi7OymzuTOMqdMAAAAAAAAAAAAAAAAAAAAAAAAAAAAAAAPzVfOXLUmhdUXqlutRT3msWVzYqCHZbTUDUd6OZEbtPfs4y3OEzvXayiR7vy/amqny2GtjZpC7RzN/jbGJKxi4+5Kx7XKjVyiq5qqqdipkD9OgqtPSV82nKCS6pElfJTRrUc0uWc4rU2tlU3YzwweWqL43TWlbpfHRc+lvpnz83tbPOK1FVG5wuMruzhQLoHMqXXvKFWUcVTByVOfDMxskbvy7TplqplFwqIqbu02HUd/1VbOh/kTRq3zno9qf/tKKn5h270fTT0uvenYBtgOXJynaqo9VWOzXrQC21bzUczE9LvFOqIm979hjVVUa3evBPaWuo+UGqtF4utJa7C66x2SlZWXOTpSQrExyOcjWNVq7b9lquxlEx15UDfAUddqm1W/Rz9S1NRs2tKZtUkmN7mORFaiJ1uXKIidarg9dP3Ctulho6+4211rqqliSOpHSbawou9EcuE9LGMpjcu4C3BqOq6+OKeaOsnlht1DQyXCq5rc57GZyn6vxOBSfaD06kr0i5PnvZnc593e1VT2ojFx8VA/VYPyh/7Qlg/+zn//AHL/AP5Z1Lkq1FpblOttdLDp99BU0L2JNA6qfKmH52VR27OdlepOAHXQUP8AAqwdw/8A8r/MQ57fHpy40E1vkkjp6qobTSwK9XNXazhyZzhUwBtRhvAIqLwDeAGSl1Jqiz6QtS3S+1raOj20j5xWOf6S8ERGoqrw7C6OX8vOi7xrjQNPbrHTtqa2CujqeaV7WbbUY9i4Vyom7bzxA9dZcpVNJyL3jV2j7hFUrTqyKKZ0SojHrKxjsteiLlEdlMp2Gt8g/KHqLXVk1KzUVYytfQMi5qRImRLh7ZMoqNaifopjcV2nuSrVNF9nLUOlKikihvNxrekxU6zMVMI6HcrkcrcqkS439aZLLkC5OdR6KtWo236jZRS3HmmQx86yRfQSTKqrXKn6aY3gdK07/lB/80v7UPCy/wCWIf8Ai/YpPs1uqaaqfJOzYRW4T0kXrTs9x5222VNPcWyysajGZ37Sb8oqAbAcBrtY6NvPKvrD+FF5gpqSlofyFSRyNcuUdnn3phFRFR/oovHB3C4rWLbqpLckXTVid0fnnKjOcwuztKiKuM4zhF3Gucnmim6P0VRWmr5iqrm7UtZO1NrnpnuVzlyqIqpvwiqiLhEAp+QzUrdQ8mVLA6obU1Foc63yyJuR6M/xbkzvwsas39uTytH+s1qH+g4P30LmzaRrrHyn3m90j6RlkvFNEs1OjlSRlSz0Uc1qN2dlW8VzlV6j6otK19LyuXTVLpad9DV22KkZG1zudR7XZVVTZxj8VX2AVvK9c6N+modLSW2S71+pFdS0lGx6R7Tm4csivXKNRi4dnC78dWTTtMz11h1hIvKbcH1WorLQyS2d7pESkmhSP86+N2yiulwio5Xb8b8dZ0DXWjrjf6qzXmw1sFDfLFK+WlfUsV0MjXojZI349JEVE4pv+OU1XVegNacplFDbNUv09aqKnkWVJaBslRUK9EVE2VeiI1q9acVA6Bom+VGptF2q91VMylmr4EmWJiqqNReGFX2YNR5B/wDM68f05WfvIbZoujvds0tR26/NoVrKSNIEfQq7m3saiI1cOamyuOKJlOzsSt5N9K1+jrDcKGvlp5pKm5T1bFgc5URj1RWouWpv7er2gboaZqzk00xrS5UNxvVsWeqoVRUex2ysrEyvNyes3O/HUvBURVzuYA/L991fyq6v1TXaW0paKmwU1tVIlpKdrYXQM/QV8u5rcoiqmyqIqcM4yQa2j5duT2mfep7hcaykgTnJlfVpWsY1N67THKqoiJxciYROtD9CcoFivOoNH1tv09d32m5SpmOdm7ax+grk9JqLw2m7092UXmvITpDX1tuFbc9T3K4UtEivhS31T1kWdyKuX+kq7LUXgqb3duzxCz0vpay8rtntOsdV6U6DdIlyrU9GOuaiei9zd7nMVd6I7fuxlzePXmtRjUa1MIm5EQ+kRGphNyIZAAAAAAAAAAAAAAAAAAAAAAAAAAAAanqS5aX0HSXDVdwpKWileiNlqY4mpPVO/RZlMK9VxuRV3YyuETJthxHX/Jlygar5RIb1TXCwTW2gVFoKOvdI5jPRTKvjRitVVdv4rwTqTAE/kosF2vOr7tynX+ldQz3mJIKGi646dNnDne1UYzHDO9cb0N6s9k0tQapu9faIaNl5qlTp7opdqTK702m5XZzx4JnjvKTSNDypQX9r9WXSwVNq5t2Y6Fr0l2v0fvMRMdu8ubLoSyWDVN21FQwSMr7sual6yqreOV2U6srvUDlPLfZrfYIdAW+1UMVFSRXVEbFE3CJvZv8Aaq9arvXrPT7SlZJRXLQ8vR+l00VdJLJTKuEmc1Yla1dy8UV6fiblyq8n911vUackt1RRxJaq5KmbpD3Ny3Ldzdlq5Xd1495ZcpegYOUHS6UCz9ErqaVKikqkbnmZE7eC4VNy/gvUBz/V9w5VNB2ZNU3S9Wm922OWPptsZStYyFrnIiIx+ztKmVRMqucqi4U7PaLhBdbJQ3Gl3U9XBHPF/Jc1HJ+pTjlz0Dyp65oaawauvdlp7NFIx1TJQNcs9Ujd6cWo3Of5KZ34XB2a30MFst9LQ0rObpqWJsETPVa1Ea1PwRAOD8qV+i0z9pfSt4no6ytjpbYuYKRiSTPytQ30WqqZxnK7+Bm/1145ZdZaXhtelrtarRaatKupr7jDzK4RzVVrMZTOE3IiqqqqcETJvl80Ddrly56f1rT1FGlutlG6nlje9yTOcqTJlqI1Wqn51OLk6zowH575XNMxav5frVY5Gt2qvT0yRKv6Eqc+5i/g5EPSs5Qa26/Z4obbA5y6luc7dOujX76TIuw9V68rHjK9SvQ366aGudby5WbWUU1KlBQUD6WWNz3c8r153CtTZVuPzicXJ17inoOR2Sj5cajWDqiB1n2n1dPSbTtplW9qNe5W42cLvdlFznG7cBQ8i9jp9M8r+tbLSf4mhgpYUXhtqjUy5faq5Vfap3g0DSuh7nZOVPVupamelfR3rmujsje5ZGbKYXbRWoiezCqb+AAAAAAAAAAAAAAAAAAAAAAAAAAAAAAfgOCC01V+ui6uuVxo6rnnK9aalbO58iuXnNrae3GF9+fYfOvb5Sam17dbzQJK2lq5tuNszUa7CIib0RVROHad+1r9nau1bfLtfo7pQUNfW1T5GU0cDuY5vcjVc773OLjacqNVFVVx2lFaPsrXVkcktzv1ClRGm1DDDE+SJ7+KI9ztldleC4TIHa+SVateSPTK1uee6DHjPHYx6H/owffKdZ7nf+Ta82mzwtnr6yFIoo1ejUXLm7W9yoiejk2K3sljttLFOyGOZsTUkZBlI0ciJlGZ37KLw9hX6r0+3U+mK6zdLnonVcey2pgVUfC5FRzXJhU4KiZTKZTcBot2pOUvTGnZtQx6jt1W23w8/LZW0CNhSJiZcxk2dtXI1FwqpvXqQ6HYbzBf9O2+8wehBXU0dS1Fd91HNR2F9qZwpz2tsPKnfbHJpu7V+noKGoj6PVXKm511RLCu52zGqI1Hq3KL1b9xsuptLXN/Ju7SulqiCif0eOhZPUPcnNQIiMcqbLVy/YTCcN65ygFDoJy621xd9eyenQQ7VrsqLw5li/nZk/lv3IvHCKhK1HojUE96v9Tp+vt8EWpqSOlrulter4FY1zEki2dyrsOxh2N6Iueo3KxWWk09Y6K0UDObpaKJsMadeETGV9q8VXrUg6vo73ctPz0FiqoKKsqFSJ1VIrkWCJVw97ERFy9G8EXCZ353Ac9qKu2z/wAYnc9+ieT+JrE2Uz0+siajWonU5se5E4Ir17ENz03rKout/msd1sstnuaUra+KF87ZkkgV2znabwc12EVq8M7soLnoK3VPJdPoqhxSUi0vR4V4qxyLtNe7tXaTaXtXJG07pzULtaP1PqaS3MqoreltggoXve1UV/OPkcrmoqKqomGoi4TrAjco/wDk/Vf/APStX+x5+Hz9+ajtkk1V0lKPp9PNTPo6um2sK+J3HHbx3nHZfs/6Ikle5tHrSNqrnYY2JUT2JmNV+KgfmU/SH2Rv/wCLv/0f/wAc9/8A2fdEd31z8kP/AMs3/QOnbFyc2+ppbLY9QvWqejpp6iBHSP2co1F2cJhMrjCdYHTCg1R/9T/0nD/WP4Uf/wAjvX/9r/aR3Pq7/caJVoJ6OipJUnV1Q3Zc9yfdRGgS9Nw1MEVx6Q1yNfcKh0SL6iv3Y9irlS7bwMmG8AMgAAAAAAAAAAAAAAAAAAAAAAAAAAAAAAAAAAAAAAAAAAAAAAAAAAAAAAAAAAAAAAAAAAAAAAAAAAAAAAAAAAAAAAAAAAAAAAAAAAAAAAAAAAAAAAAAAAAAAAAAAAYbwMmG8AMgAAAAAAAAAAAAAAAAAAAAAAAAAAAAAAAAAAAAAAAAAAAAAAAAAAAAAAAAAAAAAAAAAAAAAAAAAAAAAAAAAAAAAAAAAAAAAA6gPngDnmpuUyO03VlFb6dK7YkRkz8rjPqtVP0vbw/q3Gy3qjvltjrqOXnI3ce1q9aOTqVDffjZcVIyWrqJc9ORjyXmlZ6wtAAaHQAAAAAAAAAAAYBHqKuCljdLPNHDG3i6RyNT4qWImekJM67pCApWassKv2EvNBn/AHhv7clpFPHPEj4pGyMXg5jsov4oJpeO8aY1yVt2l7gAjMAAAw3gZMN4AZAAHwq4xhDxnqIqWB8s0jY4mIque5cIiJxVVMVdTDR0z6iokSKGNFc5zlwiIhxjVOrLhrm6ss1nik6Ir8JGm5ZVT9J3Y1OOF4cV9nbxOHbk2+FY7z8HFyuVXjx8bT2hN1Byg3a936Kh006VkaPxGrG+lK7tXPBvs7N6+zrNFz6UcPSdlZ+bbzmOG1jfj2ZNa0Voml0tSKsiJNXyJ+cm7P8AZb2J+39SbchlzsmG2seCv3a+vrKcOmWN3yz1n0+D6AMO+6pwO58tVF4GTQOSBf8A6MVi/wD4t37jDfjZlx+yvOOZ3ppxZPaUi2u6JHcKKaslpI6qJ9RCmZImvRXMRe1OKEtOBq9spNPRawuMlE7/ALV2f4yz0sIi4VVTKY3rjOFJV11hYrJLzNfXxxy4zzbWq5yZ7Uai4/EThmbRFImekenX/ojLEVmbTEfiv+owmCrtd+t17pnTW6sZUtZudjKKnvRcKnwNDn5QaX+HlPJFdXfkdIFSVuw7Z28O/RxnjjqNmLiZMtrVrE7rG+0/y+rG/Ix44ibT3dQyhhFVStjvduntKXNtYxtEqK7nXZamEXHXheJWU/KBpmqqujx3RjXquEc9jmtVf5SoifrNdcOS2/LWZ136T0Zzmxxrdo6tpBhMLvQya20AAAAAAAAAAAAAAAAAAAAAAAAAAAAAAAAAAAAAAAAAAAAAAAAAAAAAAAAAAAAAAAAAAAAAeTnbLSm1NQXO52volrro6OSV6JLI/OUj/S2cdf8AfKGtazrLlcNVW7TdBVvo0qI1lfKzKLj0uzC7kau7O89Kfk0SKpjlXUFe9Y3o7Cu3Lhc9p248NMcRkveImesRrbitktebVrXcdu+lVqmxUWnnaWoKNmGpWor3L96R2WZcq9psUOlKi0apS42epjp6Sf8A73Svzsr7WIm7Pwx7lwV/KOjluumfZWp+8wv9S6WTUSUqLcamk5ja/wAT+lnHH3YOi2SZx4/PbUWidzrfr8GimKPaW1XtrXp6L5r0Vu5T6OVX+x3LRMMd2t96q52xytbJHMq4VF7UzhU6uH4nT6SoSpo4pkTCStRyfimThzceKRF6W81Z/DrDsxZptM0tGphJABodAAAAAAwAQbrXx2y1VVZJ6TIInSKnbhM4/EVrMzEQkzERuWt6v1g60TR2q1RdLu9RubGm9I0XrX29ifiu7jV0PJzNdZkrtUXCerqHb+bY/DWezP8AU1EQ9OTm0vq4anUlwXnKuvkdsPX9BiLhcdmVTHuahvzW4cvpHo5M3u0+yw9Jjvb1mfhHwiHBTF7x9/L29IaovJppbm9ltswvbz0mf3ilqtA3SwvdW6WuUsbk3uppVRUk9meC+5U/E6ONxopzM9Z+9bcfCesf1bbcXFMfdjX06NV0hq2PUMUlPPH0e5U+6aFd3DdlM78Z4pxRTaMojnJsnOte0btP3yg1XQtw5sqRVLW/+Iipuz70yi/gdBp52VNPHNGuWSIitXtRUyheRjpqMuONVt6fCY7x/YwXtucdu8f1hJQAHI6ww3gZMN4AZAAHKeWGW6tSmZHt/kxU9LY4LJldzvwxj8SdyUw2VlofJSO27hwqOc+8idSN/wBn9q8Tfa2hp7hRyU1VE2WKVMOa/gqHGNQ6buegbyy62yWRaTa/NycdjP6D+1F+C+897i5Kcrj+6b8tvT4T9XjZ8dsGb3iY3H5O4YMcTV9IazpdT0OU2YauJPzsWeH+03tav6us2lfaeJkxXxXml41MPUx5K5Kxes9H0fLvuqfR8u+6vuMYZz2c+5HlVdM1ue+O/cYdAzu3HHNBa2tmmrLU0tYyoWSSpdKmwxFTCtananYbnbOUuy3S4QUNO2q56ZyMbtxYTK9u89HmcXLOa94rOvi4OLnpGOKzPVX2Fu1yr6g2f/Kb/wC4U1rq4dH3+5N1FbpXyVMyujrOb20Vqqq8V6l4rjK9SpuLvT27lX1Bj/ym/sYfTdeMoqypoNT0TqKRq4a5jFfHI3t61/ah0TNvNNax5omtdxE6nt6fq0xFdRaZ1O5+ibp+m01W3ea72KdizSR7MscS7LcL1qxURU4ewpay30ycs9BGtPEka0iqrNhNlV2ZOrgeWmqZLryjfliy0T6S0xxK2V7mc22Zyoqei334X8MrvU9dW1LtP8pFvv1TTyyUKU/NOfG3OHemmOz9JFFKTXNatbTMzWek94nXZJmLUibV6Rb8Pqnco1nqaiy0TqCjdPBSzc5LSxNxtt9iJ2b+HbkiM1DojUdu/JtbEyhdhGIyWLmljVOx6JhvxQubtquqjsVJebVbnV1BIqrNuVHtYi4yifgvu3Guaj1ZpzUlmmpaOilrrjK3ZhZ0f043rwXa9nsVc8DHBW80ilonpM9YnrHXruP+mWWaxebVmOsdpjv9HRLfSw2+3QU8DnPhhYjGK52V2UTdv69xNKDR9DV2zTFBS1zvz8UeHpnOMqqon4IqIbAeTkjV5je+s9fj83pY53SJ1pkAGLYAAAAAAAAAAAAAAAAAAAAAAAAAAAAAAAAAAAAAAAAAAAAAAAAAAAAAAAAAAAAAAAAAADnt3/032P8A3R37JjoCcDn93/032P8A3R37JjoCcDq5H8OP/wAf1lycf+K/1/SGgcpO+6aa/wB8T95hvzeBV3OzUV3npZKqDnHUkqSxLlUw78OKbkLVv3TDLli+OlI713/Wds8eOa3tafXX5NL5Vf8AMaf+dj/abNZf8iUX8xH+6hrXKr/mNP8Azsf7xstk/wAiUX8xH+6huv8A7Wv1n9Gqn+5t9I/VYAA4naAAAAAPlfumrco22mg7lsccM+G23P6jZ1XO4gXq3NutkrKFztnn4nMRexVTcv4LvNuC8UyVtPaJif6tOas2x2iPWFLZVqIeTSlW3Na+qShRYk7ZNnP7Sp5Oa7UlTJXLekqeYZjYdUM2XI/O9Eyibscew9OTO7KtomslV+brLdI5qxrx2M/1LlPgb0meCHXnvOGcmOaxO53v1+PT6ufDT2kVvFu0dnNbfX6wk5S1hqWT9A516OYrMRpFv2VRcY7MLnKqfeu67VlNqKkis7KnomwipzEe2jn5XKO3L8F3YOkrjgYRDGOZWLxf2cdI1r0+qzxZ8s1809Z21DlEaq8nNb0hGpI5IsonBHbbc4LjSG1/A60K7j0SL4bKY/UapykVr7nVUGl6JduoqZWvlxv2Wpwz+8vsab5SU8dJRw08TdmOFiMansRMIMv3ePWs95mZ/DpCYvvZ7Wj0iISgAcLuDDeBkw3gBkAAYI9XSw1tNJT1ETZYpE2XMemUcikgyImYncMZjfSXFr3om76Xv8ddp6OeaFX5jdEiufGvquTrb7eGOJ12idM+ihdUMRkysasjU4I7G9E/EkrlU3BPu8Tq5HLvyKxF46x6+sufDxq4ZmaT0n0fYAOV1MbKdiDZTsQyAx8rGE7D4WNr27L2tVOxd59gLo2U7Bsp2AZBphGoiYTgfLY2Ncrka1FXivaegG00AAMgAAAAAAAAAAAAAAAAAAAAAAAAAAAAAAAAAAAAAAAAAAAAAAAAAAAAAAAAAAAAAAAAAAAABzi/yso+WSzVUz2wwrTLHtv3Irl5xETPvVPidBTG1ucmz2FPqHS9u1HTtironOczKxyMdhzc8cL7exdxrf8Agesmf+/XHxGeQ7pthzUr57TWaxrtv1n5x8XnxTLitby13Ezvvpv+0nsG0nsNB/wP2Pvlx8VnkH+B+x98uPis8hj7PB/9k/8A5/y2+0zf/H+v+H3ypVUDNKup3yt52WRmwm1vXC5VcdiG32pix2ikjcnpshYip7Uahqtt5MbHba1lSvSap7FRWpM9FblOG5qJn8dxuzU9EmfJT2dcOOZnUzO9a76/sYaX89r2jW32ADkdYAAAAAGF4GQBoOq9KVr7hHfrAvM3SL7zOCSom73Zxuwu5UFn5S6NzujXyCW110e6RHsXYz+1PxT8Te9xX3KyW27NRtfQwVOOCyMRVT3LxT8Dsrya3pFM1dxHaY7x8vnDjnBalpvinW/T0Ql1np5ke2t6o8fzqKvw4mvXXlIjqJOgaZpZblWSbmv2FRjPbhcKuPwT2lsnJzpZkm3+Sm5/nX4+G1guqC0UFsh2KGkgpWO4tjYiZ9+OJfNxadaxa0/PUR/RjNeRfpaYj6d2u6P0hLapZLrdZelXap3veu9I0XqRe3tX8E3cdx6h1Geo5b5LZJmbd3Tjx1x11DIAMG0MN4GTDeAGQAAAAAAAAAAAAAAAAAAAAAAAAAAAAAAAAAAAAAAAAAAAAAAAAAAAAAAAAAAAAAAAAAAAAAAAAAAAAAAAAAAAAAAAAAAAAAAAAAAAAAAAAAAAAAAAAAAAAAAAAAAMN4GTDeAGQAAAAAAAAAAAAAAAAAAAAAAAAAAAAAAAAAAAAAAAAAAAAAAAAAAAAAAAAAAAAAAAAAAAAAAAAAAAAAAAAAAAAAAAAAAAAAAAAAAAAAAAAAAAAAAAAAAAAAAAAAAMN4GTDeAGQAAAAHnhNkJlUOScpeprrSXvoVJUTU8MTGuxE9Wq9V3qqqm/2YLzkt1HV3m3z09dK6aWDZVHPdlytXPFevCpx9pdvWv4TmpxI5czGvh9XQuCHyrka3Kmeo5TymatrKK4toKOofAyNiOkWNytcrl4JlN+ETf+JHJwuHk5mWMWPu6s1UXegwcu5L9WVlxq5LdWVEk/5vbifI7Lty4VMrvXjn8DqKdY9E5nEycPLOHJ3fG11GePDec85UNS1tqhgoaCZYXzZdI5jsO2U3IiL1ZXPwKzkt1Lda66SUNXUSzxOiWT86quVqoqJuVd+N/Au3ZTwnNbiTzNxr4fJ1oAEeSAAAAAPhUyNnCGeJS6puUlp03WVkP+MYz0c78KuERfwyVljxzkvFK956LhHJ/sn0cBsusbvHfYpX3CeVFkTnI5JVc16Ku9MLuT2Y4He4nbTGu7UES9DxDw3L4fatck729QAR5oAAAAAAAAAAAAAAADzVTPsNLu/KZZrVc30TmzzPjdsufGiKiKnFN6pnHWbXQ1kFwooqume2SKZqOa9OtFK3ZOLlxVi+SsxE9kwAEaQAAAAAAAAAAAAAAAAAAAAAAAAAAAAAAAAAAAAAAAAAAAAAAAAAAAAAAAAAAAAAAAAAAAAAMN4GTDeAGQAAAAHJeWG37E9Fc2N+8ixOX3b2/tUqOS2u6Nq1kKr6NRG6P8U9JP3TovKLbW3HRlUuzl8GJm/hx/9OTitjrvydfaOr6opkVfci7/ANRjPSdvvvDJ988Kvg9Y3H6w/STk3OPzpqivW6aorqtFy2SZ2yv+ynot/UiHddR3L8maZra5HYcyJdhf9pdzf1qhw/SVudd9WUtLjLdtHO/kp6S/FEwWfSHD9nKRhrl5V+1Y/wAz+jOjbitt1lQVKrhvOJG5v+y70V+Gcn6GafnTUVuWz6mrKRqbKxSqrf5K+k39Sod2styS46bprgqt/Owo9V7Fxv8AguSx8D7R0jN7LlU7WjX6x+rkHKZX9N1lURo7KQNbEn4JtL+tVNk5H7dllZcnJx2YWr7t6/8AunOLlUur7zUVi8ZpXO+K5O2aMpmWPQkE0zthOadUPX2L6X6kJHWdu7xafdfDMfGr3nUf3XdxulHaaVZ62pZTxp1vXivYicVX2IanUcrFmherIIKqfC/fRiIi/FUX9Ry7U+oqvUN2fNLt7KqqMjzhI29ie3tXrU2HT3JjW3u3Mqaip6DHImWJsbblTqXimEXq3l3Ljx+CcXi4K5edfUz+/TrLebZym2OtlSKV0lIq8FlREb8UVcfjg26GaKaNHxPa9jkyitXKKi9eTgOrNFV+mVj/AD+1A5cMlY3CZ7FTqUv+TPVU9FXstlW9z6adcMVy/cf1Y9i8Mdv4kje2nmeC4J43vXDvuPh+/wAnXK6sgt9BNVVL+bhhYr3OXqRDVbPyi2q73JlG1JoZJFw1ZGoiOXs3KuFXqyS+UZys0DcFb2M/facJt08lBPFUpvkjej2+9FyhlvTV4R4Nj53GvktPXeo/k7feeUSy2OtWlkfLUzouHNiRF2F7FVVRM+48dUXakvPJpW19Ku3E5icdyou0iKip2oc0odE6gvGxVxUkjo5PSR8r0bnPXvXK57cG/XCxTad5KayilekkuEdIrOGVcm5M9gjr3bMvC4fFyYYxX3fzRvr8+v0cnoERK6LH/mJ+0/TEX+Kbn1T8y0CL+UIs+un7TuuqdWUumrcjlc2Spkb+bi7favYiGNfV3/abDfNmw0xxuZ3+iRqHVlv01E11U9Xyu+7EzCuX24VUwntVTOmdTUOpqSSak22OiVEdE/COZnhwVUwuNxwW51tdf7p0iSV8tXM/GE3pheCIn7EOx8nulJtO26SerdirqdlXN9RqZwnv37y9XmeIeE4OBxYte3/qT+5/D5t3AMOXZa5ewPmEWrq4KCBZ6qdkETN6vcuENPr+VOyU8ytp2zVSJ+m1iI39aov6jnmuNUz6guckbHuSlherYmIu5cbttfav6kPvSnJ5XajpOkTzNpaTK7LlTaVypxxvTcnbkm5mX2HH8E4+DjxyOdfXy/fWZdBt/KnZamVGVDZqVq/puYit/Uqr+o2+lqoa6mSelnZNE9Mtexcov4nD9U6Ar9NU6TxTNq6TOFkRuyrVXhtJv3L25Gg9VzWK7RwyPctLO5GSscu5qruRydip19qfgImdseR4Jx83HnkcG+/l++sS7lJJHDC6WRzWtaiqrl4IicVNOg5T7JNdEpPz7I3O2UleiIz3rvyifh7y+1S9G6QubupaV+PlU/OqRsbUul61XBlM67uXwXwrFzqZLZN9OkP1G3CtRSDdLnT2mhkq6p+zDGmVVfgiJ7VU96Fy9Agcu9VY39hqnKiqpoudU9dn7SejxeNgjLyK4Z7TOn3ZOUS03u5pQxtmgkfuZzrURFXsyirhSxvuqrbp9rErpsSyouGImVVE6/YnvOH6VakOrLcjeuqjX/1odX1poRdSviqYalIpYm7Lkc3KK3OU9yplS7297neG8Xh82mO9pikw45cJ462unqWuVWSSuemeO9VU6XovXtotmmaK31Uz2vj2kcuwqomXqqb038F7DmFbA+knkpud3terFVG9i4Nw0zybVd5slJWpXxRQv2v0FVyIjlavYnV2mMfJ9T4ti4luLSM9tV30/lPydqilbNGj2uR6ORFRU4Ki8FPci0VIyiooKePOxDG2NM8cImEJRX5fbW+gAAgAAAAAAAAAAAAAAAAAAAAAAAAAAAAAAAAAAAAAAAAAAAAAAAAAAAAAAAAAAAAAAAAAABhvAyYbwAyAAAAAjVULaiklhkbtMkYrXJ2oqYU/NtfSuoLnUUz/AL8Mjm/ii4P0wq4Q4bymW/oes3TNbhlS1JE9/wB1f1pn8STHTb6z7L5/LyLYZ/5Rv+S51jful8mNphSX85WI3nPbsJh3/qwOSO2rJcq64OTdC1Im+9VyvwRP1mgS1ctRRU9M5csp9rYTsyuV/Wdr5NbclBo2nkVuJKlXSr+O5v8A6UQR16vR8Txx4d4fbDH/ACtP9Z3+Uaabys21aa9U1ciejUM2V/lNX6KnwPXTeoUi5I7jEr/zlMjo2O68P4L8XL8DZ+VC3dN0i6Zrdp9LI2RO3C+iv7c/gcXiq5aa31VLGuIp3Mc9O1Uzj9pZZeG448R8PrjnvS0f0n+0ve0UTrjdqOjb6Szyo33Iq71/BDtGvX9B5Pq1GLsIxjGJjqRXImPgc/5K7d0vU/SXN9CkY53/ABLuT9Sqv4HTda0K3LR1wpmt23KzbRO3ZVHY/HBK+rk8a5FZ8RxY57VmJn8Z/s4JboW1NdBE77ssjW/FcH6Wga2OnaxqYREwiJ1H5mhndSVLHt+/G9FT3pvP0dZ7lBdbXBVQOy2ViO9y9aL7UXcpas/tVW0zjtHbr+ik5Q4GVGiq1Hfei2Xtd2Kjk/qyhw+imWlqqeZHY5uRqoqdqLk7Fym3aGk01JRI9vPVTmtRvXhFRy/hux+JyWw0Trjf6GjY3a25W/DO9fwTeSe7p+z8TTgZLZO25n8NO08of+j6t90f77Th1DE2a7U8TuDpGtX3KuDuPKKmzoCuT+b/AH2nE7X/AJZpP55n7yC3c+zk64WWfnP5Q/SULUbC1rUwiNREROo1/X/+Y1w/kt/eQ2KP7ifyTXdf/wCY1w/kt/eQsviuH/uaf+Ufm4JA5YKpJU45Rfgelfd6i7V76qoe6Rz1wq9mOCInUiHnCxZ6lkadaonxN71Tyd/kbT8VbSOdKsDfz/t/2kTqROCp2b+0xjcw/VeTyuPx81Iy/wAVukfv+S05K7PbJ6V1zVWy1sblarFT/FIvDCe1Ov8ADtOoY3bj85ac1BV6cvTKqH/F8Hx9T0Xin09p3603Knu9tiraZ+3HImUXs7UX2pwUyjtp8J9oeHmxcj2t53W3b5fJO47ir1JUOptN3GVi4e2nkVFTt2VwWi7sqQbxS9Ps1XScFmhexM+1qoWHzuGYi9Zt22/NyJ+c2u0/Rmn6RlHYaKnYmGshan6kPzpMjoKnmntw9jlRUXqVDvujLtFdtL0s6Pa6SNiRyJ1o5EwuffxT2KSr7n7UUtbDjvHb96StTUjarTVfC9Mo6F37q4X4n53VPT2uxTvmt7tFbNLVb3SI2SZjoo061cqY3e5N5wSBr6mpSFjdtZHojUTrVdyIYz3PszW1cGS89t/9u7XCoWp5MppnLlZaBXKq9qx5ODomZvxP0BdaPmNBVNI3esVE5ie3DMf1H5/ziYt2X2bmLVzeX4v0xRNxRQp/9239hqvKh/mdL/OM/aXem7tBdbDSVMb2rljUVE6lRMKi+5TUOVS8QR2yO2Rva6eR7Xqifot371968CzPR8xwMOT3+tddYnr+Dm+mP867d/vMP76H6NX/ABK/yT85aY/zrt3+8w/vofo1f8Sv8klez1/tR/uafR+a7t/lqr/nn/vKdt5Nv8w6H3yfvuOJXb/LVX/PP/eU7TyayNdoWiTaarmukRfYu25f2KKvS+0Mf+wxfWPylt4CAr8/AAAAAAAAAAAAAAAAAAAAAAAAAAAAAAAAAAAAAAAAAAAAAAAAAAAAAAAAAAAAAAAAAAAAAAw3gZMN4AZAAAAAfPUpz3lWsslfaYK2GNz3Uyrt447C8V/BUT4nQ+o+XRtc3Cj006OJyLcbNXNT0fmm0WuruV2ipoGOe+V6ImOpOtV9icVP0dQUzKShhp2N2WxMRqJ7ETCCCgpqdXOhp2RuXiqIiZ+BIagiHo+K+K28RtWdaiES6Uja62VNM/e2aNzV9ypg/ONwtlXb7nJTzo5j43K1yL7P6l6j9NKhFmoKWd6Plp2SPbwVURVT3ZGl8K8Wt4dNtRuJaXyXWOS2WN1TMxWOq1RyI7jsY3fFVVfcb6rUVuFMtajU3bkM9Qh5vK5F+Tmtmt3lxjWvJ3V0tRJWWuJ01JIu2scbcujVeO5OLezHD9ZqlDdbrZMx0dTNA7PpMRVRM+1O0/SCouMLvIctsoqpV6RRwSfymIv7Rr4Pe432gvTFGHkU88fvu/O72XPUFXh3SKuZfe9y/t3HVNAaHWyr06ua3pStxGzjzaLx39q8N3BPebxBRU9M38zAyNOxERP2ElPu8REaaed45k5OL2GOvlo1zXNJNW6LuMMTVe9WtfhOKo1yOX9SHD9PW2pm1HQRQtc9Vmbw7EXKr7kTefpJyI5uFI0NvpYJFlip4mSO4vRiIq+9UGmvw/xe3CwXwxXfm/tp7tb6Ce4odaUktbpK4Qwtc+RWZRG8VwqKuPgbEfLmo5Fym4u3jYrziyVyR6Tt+bLNRT1N5p4Y2Oe58rURE9/9R+jWxpJS7D2oqK3CovDB8R2+mglfKyniY93FyNRFX3qSuBIer4n4pbxC9ba1pwjX+jpLHcOepmOdQzqqsd/5a9bF/q9nuNl5H31yNrI3bXRE2cZ4I/2e9OP4HTJ4I52KyVjXs60VMoop6eKmhSOCJkbE4I1qIifggiNN+bxq+fh+65K7n4/v1SDCplDIDwHKdd6BnnqJLlaottr/AEpYWfe2utzU689accnP6KtuljqFZTS1FNJwcmVRfcqfU/SSpluNkjVNvpKhv5+nik/lNRf2kmPg+k4Xj98OL2Gennr+/wCb87VdZdL7UNZUPqKuVdzU2lVfcifQ6HoHk/nppo7ldYthzN8US8UXqcvZjqTjnfuOj01vpaZmIKaKL+SxE/YSETDcYLEfFOZ49fNi9hgp5Kvl8SSQujcmWq3ZVDg+r9GVtguEksET30rsrHI1uUROx3YqfrO+dh8PY16YcjXe8aef4b4lk8PyTekbie8PzPR1VdTPesU0sCrx5t6tz8DZYdF3KbTdbeKuCVZURro2Pztqm0ivcqcdzc4zx49h2htro2z8+2miSbtRiJ+vBMRGuZj9ERHxevyPtJa8xOKnl7b/ALPzzpCiqKvV9C2Niv2Z2u3dTWuRyr8EP0Ojfzez+BGgoaaB7pIYGRvdxVrURV9+CQ3cmCxDyvFPEp8Qyxk8uoiHCNe6VqLZe6ipWB8lJM9ZWSInoorlyrV7FRfihS2quucEscdufURSOXcyLaRXr7k4n6RcjFbvRDybTwxplkUaKvHDUTJjrq9PF9oprx4wZaeaY+f6aeVs5/8AJVKtXuqViZzv8vCbX6yd2mE3Ar5i07mZZAAQAAAAAAAAAAAAAAAAAAAAAAAAAAAAAAAAAAAAAAAAAAAAAAAAAAAAAAAAAAAAAAAAAAAw3gZMN4AZAAAAAAAAAAAAAAAAAAAAAAAAAAAAAAAAAAAAAAAAAAAAAAAAAAAAAAAAAAAAAAAAAAAAAAAAAAAAAAAAAAAAAAAAAAAAAAAAAAAAAAAAAAAAAAAAAAAAAAAAAAAw3gZMN4AZAAAAAAAAAAAAAAAAAAAAAAAAAAAAAAAAAAAAAAAAAAAAAAAAAAAAAAAAAAAAAAAAAAAAAAAAAAAAAAAAAAAAAAAAAAAAAAAAAAAAAAAAAAAAAAAAAAAAAAAAAAAw3gZMN4AZAAAAAAAAAAAAAAAAAAAAAAAAAAAAAAAAAAAAAAAAAAAAAAAAAAAAAAAAAAAAAAAAAAAAAAAAAAAAAAAAAAAAAAAAAAAAAAAAAAAAAAAAAAAAAAAAAAAAAAAAAAAw3gZMN4AZAAAAAYVURuV4FPNeJZ5nU9th596cZF+6hi6TS1lWy207sZ3yu7E7CxpaSKjgSKFuET4qvaoFa233Wf0p7lza9kf9mAtvusHpQXLnF7JP7cl2AKaG8SwTJT3KHmHrwkT7qlwiorcpwI9VSRVkDopm5Rfii9qFda5paOqfbah2dnfE7tTsAugAAAOOat5SNbx8qtRozR1otdZJT0ralXVquRVyiKuFR7URE2kTHEDsYOIV3KTyqaOj/KerNE26SzxqnSJrbKqujaq4yv5x/D2oidWUOs2G+UGpLFSXi1z8/RVcfORP4buCoqLwVFRUVOpQLYAAAc85Pde3DVurdZ2mrp6eGKwV/Rad8Wdp7NqRvpZVcr+azuxxM8jmvbhyhaPqbtcqampp4q6SmRsCKjdlGscnFVXPpY/ADoQAAAAAAAAAAAAAAAAAAAAAAAAAAAAAAAAAAAAAAAAAAAAAAAAAAAAAAAAAAAAAAAAAAAAAAAAAAAAAAAAAAAAAAAAAAAAAAABhvAyYbwAyAAAAApLEnP1FXWO3rJJhPdx+hdlNpz83DVU6/fjlXP7P6i5AAAAUl8TmKikrG7ljkwvu4/Uuym1F+chpadPvySpj9n9YFyAABw+kljh+2Fc3SPaxv5IbvV2E+7GdwPzpqLRtp1x9qm42i9MlkpPyaybEb1Yu0jGIm9PeB1HlN1bYbHyf3pK+vpXOnpJYIqbnUV8z3sVqNRucrlV3r1JvOYW2rv8AoX7JSV9NPLb7hJKksKq30445J0RMIqbst3p7HG+2fkB0BabhHWNs76qWJUexKqd0jUVOGW52V9yoqHz9oKCSfkTvXNpnm1gkVP8AZSZmfgBvOnKyav0raqyodmeppIpZFxjLnMRVXHvU0Hky1Zeb7yicoNuuFY6eltdeyGkjVqIkTdqVqomE60YnHr95tuhbhTVfJ1Y6yGZiwLb4VV+0mExGiOyvVhUVF7MHMeQa40915R+Uy4Uj2yU1TXxyRPTej2rJOqKnvTeBK5D/APSZyr/0x/8AFqB9lj/RXXf0tL/yohyH/wCkzlX/AKY/+LUD7LH+iuu/paX/AJUQHY6p7oqOZ7fvMjc5PeiHOeQbVF21Zyb/AJRvVY6trG1csXOvREXZTZVE3IibsnRqqN0tJNG37z43NT3qhx37MVREvJpWUKualVS3CRJYv0mZa3GU7FwvwUC21Dqu80n2i9K6dgrFbaqyhllngwmHu2ZVRVXGdyxsx/aavd9da8n5cdQaO05NE9Z2Qtp31EaLHQMSNj5JcYyq+ku5c5VU3cEPW/3SlrvtgaVpqaVsr6Khkhmwudh6xTu2V9qIqL+JGsl6orT9sPUUNa9ka3GlZSwOfu/OLHA9G59qNVE7VwgHrqV/KjyV0Uep6jVDNU2qJ7UrqaanSLYRVRMpjKomdyKiphVTLcZN71tyissfJA/WVoibUdIhikpWycEWVURqvx2ZyqZ4pjJG5d71Q2nkgvEdU9iSV0aU0EbuL3q5OCexEV3/AAkGyssVg+z1aaPXOxHa5aKKKoZMxy4WRdpiKjUVyKmU3pvaqZ3YAqKLTXKxX6bg1LR8okVRXTwNqorelGzo8iK1HoxH8N6LjOz+PWdQ0lcbrd9KW6uvVudbblLF/GaVf0HoqouEyuEXGURVyiLhd5yyo5JrtpOyz3Xk+1/cKGkiidVRUlQ9s1M9MbW5fuoipwVWr7V6zc+SDWVbrrk9prtcII461JXwSujbhsitX7yJ1ZRd/tz7gN9AAAAAAAAAAAAAAAAAAAAAAAAAAAAAAAAAAAAAAAAAAAAAAAAAAAAAAAAAAAAAAAAAAAAAAAAAAAAAAAAAAAAADDeBkw3gBkAAAABRVSrab0lXj+L1O6T2L/ff8S6a5HtRzV2mrvRUPieCOqgdFKm0xxTIy4WZcRo6rpPV62f3+AF+Cpi1DQub6bnwr2K3P7MiXUNC1voOfMvYjcftwBZuckbVc5cNTeqqUtKq3W9Oq8fxem3R+1f77/gfKsuF5XEiOpKT1et/9/gXNPBHSwJFEmyxoHsAABqsWhbTDyjT60a+p/Kc1KlG5ivTm9lMekiYztYRE449mTagAIlfQ0tzt89FW07KilqGrHLFI3LXtXcqKhLAHIoPs56Wp53Rsu1/ba3u2321K3ED17Fw1HKn459puGk+T2zaLu94r7Qksf5WdG6SBVTm4kYio1rEREwnpLxVTbQBqumdC2zSl8v91oHzvnvtV0qpSVUVrXZcuG4RMJl71354mdC6GtvJ9YprRaX1ElPLUPqVdOqOdtORExuRNyI1qG0gAcvvXIRpq66gqbvQ3C7WOqq3KtQltqEibJn725WrjK71xuz1HUABz6ycjmmNP3+zXe2pVRVNpjlamZUdz7pEVHPlVUy52HLwVE4bsIiHPotJWjWf2jtd2m9U/P0rqGFyKjtl0bkbBhzXJvRU/sXKZQ/QRBZbqKG4zV0dHAyrqEayWdkSJJIifdRzkTKonVldwHNbV9n7S9Jeorjcq+73xaZU5mC41CSRsxwRURqZROzOO1Dol8sdv1HZqm2XOlZVUdU3ZkjfuRU4pvTeiou9FTeiloAOSt+z3Y2wvov4S6m/JDv/AKuSuRIMdips70/X7To9kstu09Z6e2WyjjpKSmbsRxR8E619qqq71Vd6rvUswAAAAAAAAAAAAAAAAAAAAAAAAAAAAAAAAAAAAAAAAAAAAAAAAAAAAAAAAAAAAAAAAAAAAAAAAAAAAAAAAAAAAAADDeBkw3gBkAAAAAAAHi+ngmXMkDH/AMpqKI6aCHfHAxn8lqIewAAAAAAAB8LIxFwr2/ED7B8c6z12/EyqoioirvXgB9AAAAAAAAAAAAAAAAAAAAAAB8bbdjb2k2MZz1YA+wAAAAAAAAAAAPlVRqZVcAfQAAAAAAAAPlVRFRFXevA+gAAAAAAAAAAAAAAAAAAAAAAAAAAAAAAAAAAAAAAAAAAAAAAAAAAAAAAYbwMmG8AMgAAAAAAAAAAAAAAAGqXbRdjfTVtYtK/nla+XPOu+9hVzjPabWRLn/kmr/mX/ALqgaXpTSFnummqWsq6dz55NvbVJXJweqJuRexCdfuaotV6cbtc1BCkqb13I1Gom9V9hP0H/AJk0P/5n/McV+q6aKt1fp+CdqPjc9+UXg7GFwvwKLKn1rY6mrbTRVfpyLhivY5rXL71Q+9Rx0DmUCV9TPAnSmc1zSqm0/qRdy7iJr2nifpCpe5jdqFWLGuPuqr0Td+CkPVTnSWnT8j1yr6qFVX2q0DY7peKC0UyS11QkLHLhvFVVfYibyPatTWu7VDoKedefamebkYrHY9meP4EHUdruE11oLtbooqmWj2kWnkdhHovWiruz/YeMF6oay/0bLra57dcm5SnfJwXKYVEcmM8etMfiBtpQ22OhTUl0dBVTy1eGc9G9V2Gbt2zu/rXBfGqWL/P7UPui/YQTq7V9nt1S+lmqXPmZ99I41dse9UTBY0FxprnStqaOdssLuDm/sVOKKatSQ3jStXWoy1/lGjqJnTJLC7863PUqcVLbTNZaayCqfaoXUyrKrp4XoqK16+zKonDq3FF6qo1qqq4ROKmvS64sEUyxrW7WFwr2ROVqL70Tf+BZ3d9LFaap1c7FLzTklxnOyqYVEx1qa5RXKaSzpTWvSkr6BW4bz0rYke1ev0s5zxzvINtp54qmJk0L2yRvTLXtXKKhHuVyprTQvq6x+xExURVRFXiuE3IUnJ5I52kYkc7KMkeiexM5/rM8oP8AmfUfzjP3gLOjv9ur7lPRU0/OS06Ksio1dlMLhfS4EGbXFignWFaxX7K4c9kbnNRfeib/AMDz1GiWvQE7KNvNoyFkaY3blVGr+pVIVoqLrS2GCjh0o2SmWJMr0uPEmU3uVMdfEo26CaKpgZNC9skciZa9N6KilHUa3sFPUOhdW7asXDljY5zU/FEwv4ZIumaKps+n66O7xdGpUe+RrFejlZGqb0y08LVc3NtiU9k0vPNQrnCzStjSTPWu1nOQNgrKuGt07VVNLK2SF9M9WPav+ypq0ar/AIHc5/8ACX/mn1pN7l0Ld2ObsJHJOiM2s7CbCLjPvU+Wf6G//wApf+aBsFDdKWgtdmgqXuSSrijji3KuXbKcV/Etaqqio6SSpndsRRNVzndiIatdrc+u5PqSWFcVNJBFUxKnHLWpn9WfxPi/3Jb1p61UVM7El5exFx+g1MK/4KBtVFVxV1DFVQKqxTNRzVVMbl9h5XC40trpXVNZM2GFvWvb2Iib1UkQwsp6eOGJNmONqManYiJhDVbwxtw5QrXQ1CbdNFTumbGvBX+lxT2YQgsqDWFnuVUlNBVbMrvuskYrdv3Ku4sbhcqS10rp6ydsESbsr1r2Iib1X3HndbLR3mFkdUx2YnI+N7Fw5qp2Ka/eY2V3KLaqKpRr6eKndMka8Ff6XlRfwKLK36ys1yq0poapzJXfdbIxW7fuVdxaVlbTW2kfU1UzYYmcXO/vvUotd0cE2lqid7WpNTbLon9bV2kTcvtzgrLk913vGl6at3wTwpPIxeD37KLv/Z/xAXNHrWyVtU2njq3Me5cM5xitR3uVd3xI/KGqppuPDsfxmP8ArJer6KnqtLVnOsZ+ZjWSNdn7rk4Y9/A1+/1EtVycWyaZzlkc+LLl4ruVM/iBv5p2oNWst2oqGlZUKyKNzulpzSruVE2cLjfxXgbianqb/O7TP87J/wC6SBeLdqNlqS5STtjpXNR6PeipuXhuXfn2FdSazsdZVMp4qzD5FwxXsc1H+5VT9pjVc9sioqdtxp5KtVmRYaePKrI9EwiY603mv6tuFwrdNS9IsDqSBisVs8k7Mx+kiJhqJnfwKN1r7jS2yldU1kzYYm9a9vYiJvVSvoNXWi4VTaeGpcyWT7jZGK3b9yruIt/tdbeLRbZ6R0clRSvZUc3J92RccFIc99pp6ikg1FZJ6GWOVr4ZXelGj04YcmPhvTtAkahVU1xpzC9cv7ELusu1HQVNPTTy4mqnpHGxqKqqq9eE4J7TWdY1E9Nqayy01P0mdvObEfaq4RPw7T10a2CtmqLjWSOlvKPWOZJEwsCZ3NanUn/QDcQAQAAAAAAAAAAAAAAAAAAAAAAAAAAAAAAAAAAAAAAAAAAAAAAAAAAAMN4GTDeAGQAAAAAAAAAAAAAAACNVwrUUU8DXYWWNzEVfamCSAKfTVrms2nqagmcx8kW1lWZxvcrt2cdp53Szz1upLVcI5GJFRq/nGuzlcpuwXgAp9R2ya8aeqqKFWMklRuFfw3OR2/Gewi3iw1FwoLVTxSsatHPHJIq53tamFx7TYgBRXq2XOeqpq211rYJ4UVqxS55qRq9qJ1kNlku9zu1HW3mWjbHRO5yKKlRy5du3qrvcbSABR26zz0eprrcpHsWGrRnNomcphMLkvABq7LbqW2TzMt1XS1dLK9XMStc9XR56spxQmadsklqSqqKmds9bWSc7M9jcNzvwiexMqXgAr7vbmXe01FDI7YSZuNpN+FRcov4KhR01p1N0RltqauhZRsakaywtdzysRMYTOERcbsm2ACj0taJrHY0oqiRj5GyOdlmcYVd3HBnVFonvVikoad7GSPc1Uc/KJuXK8EUuwBDqqGGttslFUJtxyR82/wCHE12ntmq7ZSJQ0Vbb5qdvoxSztckjW9SYRFTd+JtwAoaDTnMaeqbdVVT6iSr21mmXjtOTGUz2FfQ2nU9LRNtyV9CykjTYSdrHLMjPYn3c4NuAGtWPTs1qsFxtrpGO6TJKsbm5XDVajW53cd28+Wadqk0D+Q9uLpHNqm1tLs529rjjP6jZwBEoadaa2U9I/Ze6KJsa9i4REU03RdtR+oK6oa/naO3ufBSr1JlyquPcn7xtl1tdPdqZKaqdKjM7X5t6tXswuOKbz0t1upbXRspaOJscTOCdq9qr1qBNKHUFhkuctPWUVR0WvpFzFIqZRUXii+wvgBqUlkv96fFDeKqkho43o50dJtZlxwRVXgn98E/UNhkuctPWUdR0WvpFzFJ1Ki8Ud7C+AGoT2K/3t0cN7qqSOijciujpdrM2O3P9/YWV/sH5VpqdaabolVRrt08qcG+z3bkL0AadVWbUt6jSjutbRwUeU53orXc5Iib8b0x/fgWOodPvudggt1ErIUhkjVqPzhGt3Y6+o2AADXtSWOsuc1BWW+aKGroZFeznc7K5xnOM9hsIA1y7WWvu1FQT8/BBdaN3OIrEVYtrdlN+/G5Cvuti1FfLZJDcKyjjVuFijgRyNe5FTe9VyvDOETrNzAFHdLPW1FvpG0Ne6lq6TCtdv2H4TCo5OxStqrHfb66CnvMtvhpInpI5lKjldIqfyuCG3ACjulnnrdSWq4RyMSKjV/ONdnK5Tdg8rnY51vlNd7XKyCqRyMqEfnZlj68460/vwNhAAAAAAAAAAAAAAAAAAAAAAAAAAAAAAAAAAAAAAAAAAAAAAAAAAAAAAAMN4GTDeAGQAAAAAAAAAAAAAAAADXJtb6fp5pIZK1yPjcrXpzT13puXqA2MGt/w905353gP8pfwysnhZKx20yREc1e1F3oB6gAAAAAAAAAAAAAAAAAAAAAAAAAAAAAAAAAAAAAAAAAAAAAAAAAAAAAAAAAAAAAAAAAAAAAAAAAAAAAAAAAAAAAAAAAAAAAAAAAAAABhvAyYbwAyAAAAAAAAAAAAAAAAQbpDEtqq3KxueZfvx/sqTiJc/wDJNX/Mv/dUCj0LHCuiaJ72M/8AEyqtT13HkzVNyuUkzrHZul0sSq3n5JUjR6p6qKeWnGSS8lqxw/4x9PUIzHHKufgm6Glhk0hRthVPze016djtpVXPvzkol2K/RXuKZqwyU1VTO2JoH8WL/WhV0+qq+4uqoLdaOkVFPM+Ncyo1jWpuaqqvWu/cnYfFoc2blKu8sG+FkDY5FTht+j+zCoeuhE/N3hf/AMfJ/UB80+sKiqa+lgs8r7rG5WyU6vRGsRP0leu7G8mWbUE9Zc5rXX0C0VdEzbxt7TXt7UX8faRbGif4QdQL/sRfuoKj/SpSf7gv7zgPe5almiuy2q10Dq+tYm3J6aMZGi9qr1/AzbNSTTXRLXdKB1BWvTaj9NHNkROxU/tIOk3Ni1TqKCXdUOqecRF4qzLsY9iZT4oNUvbLqvTkEO+oZOsionFGZbnPvRF+CgSazVFRBf6q00ttdV1MbWLEjX428plVcq7kRMnrddRzWW32+etpGskqZWxzMa/PNoqZXGOKoRbcif4T7uuN6UzP2MM64RHPsiK3LVr2ZAmRX6qp7fWXC8W38nwRYWJOdR7356lROC8P7oQP4UX1KT8oLp53QMbeeeTb2OO1jjw9h9cobFXT0L1a50UdUx0qJ6uFT9qobKtRB0PpKys6Psbe3n0dnGc57MAVFbqSOPSn5booukR+iuwrsKiK5EXPHeh73m+R2ywOuUac9lG80zhtq7GP25KLRdD07RVbTSJsw1UsqR56mqiJ+pckG11D7tHp20yffpJXyVKerzW5iL7+AG10l9jqNLpeVbss5l0rmbXBUzlM+9MHvZq+S52imrZYeZfMzb2EdnCLw+KbzSayR9Jb7lpiNcSS3BkcKerHIu2n4Jjf7zoMELKenjhjTDImo1qexEwhB7AAAAAAAAAAAAAAAAAAAAAAAAAAAAAAAAAAAAAAAAAAAAAAAAAAAAAAAAAAAAAAAAAAAAAAAAAAAAAAAAAAAYbwMmG8AMgAAAAAAAAAAAAAAAHlNC2enkhd9yRqtXHYqYPUAV9qtkVotkNBTOcscWcOfvVcqqrnGOtSpqdGUMtVJPS1VZb3TLmRlLLsNfnjux/YbMAK60WaistH0ejZhqrlz1XLnr2qpi02eG0tqUhc93SJnTP21zhV6k3JuLIAVlLZ4aW7VtxY57paxGo9HLuTCY3busPs1O+/x3VXP5+OFYUbn0cKqrnhnO9esswBR3bTFFdattWsk9LVsTCT079h2PaLPpmjtFS+qSSeqqpEws9Q/adjsQvABWQ2engvtTdGq/n542scir6OExw+CGbnZ4LqtIs7nt6LM2ZmwuMqnUu7gWQA8ammhrKaSnqI2yRSJhzXcFQ1v+ANBs810+49EznovPeh7sY4fr9ptQA8aanhpKaOngY2OKNNlrU4IiFbb9PUluvNZc4Vfz9X99FVMJlcrjd1rvLgAU02naOp1BBeX7fSIW7LWoqbK8cKqYzlM9pcgAAAAAAAAAAAAAAAAAAAAAAAAAAAAAAAAAAAAAAAAAAAAAAAAAAAAAAAAAAAAAAAAAAAAAAAAAAAAAAAAAAAAMN4GTDeAGQAAAAAAAAAAAAAAAAAAAAAAAAAAAAAAAAAAAAAAAAAAAAAAAAAAAAAAAAAAAAAAAAAAAAAAAAAAAAAAAAAAAAAAAAAAAAAAAAAAAAAAAAAAAAAAAAAAAAAAAAAAMN4GTDeAGQAAAAAAAAAAAAAAACNsVveIPBXzkkARtit7xB4K+cbFb3iDwV85JAEbYre8QeCvnGxW94g8FfOSQBG2K3vEHgr5xsVveIPBXzkkARtit7xB4K+cbFb3iDwV85JAEbYre8QeCvnGxW94g8FfOSQBG2K3vEHgr5xsVveIPBXzkkARtit7xB4K+cbFb3iDwV85JAEbYre8QeCvnGxW94g8FfOSQBG2K3vEHgr5xsVveIPBXzkkARtit7xB4K+cbFb3iDwV85JAEbYre8QeCvnGxW94g8FfOSQBG2K3vEHgr5xsVveIPBXzkkARtit7xB4K+cbFb3iDwV85JAEbYre8QeCvnGxW94g8FfOSQBG2K3vEHgr5xsVveIPBXzkkARtit7xB4K+cbFb3iDwV85JAEbYre8QeCvnGxW94g8FfOSQBG2K3vEHgr5xsVveIPBXzkkARtit7xB4K+cbFb3iDwV85JAEbYre8QeCvnGxW94g8FfOSQBG2K3vEHgr5xsVveIPBXzkkARtit7xB4K+cbFb3iDwV85JAEbYre8QeCvnGxW94g8FfOSQBG2K3vEHgr5xsVveIPBXzkkARtit7xB4K+cbFb3iDwV85JAEbYre8QeCvnGxW94g8FfOSQBG2K3vEHgr5xsVveIPBXzkkARtit7xB4K+cbFb3iDwV85JAEbYre8QeCvnGxW94g8FfOSQBG2K3vEHgr5xsVveIPBXzkkARtit7xB4K+cbFb3iDwV85JAEbYre8QeCvnGxW94g8FfOSQBG2K3vEHgr5xsVveIPBXzkkARtit7xB4K+cbFb3iDwV85JAEbYre8QeCvnGxW94g8FfOSQBG2K3vEHgr5xsVveIPBXzkkARtit7xB4K+cbFb3iDwV85JAEbYre8QeCvnGxW94g8FfOSQBG2K3vEHgr5xsVveIPBXzkkARtit7xB4K+c+XMrE4zwKn8yuf3iWYbwAyAAAAAAHlLNHAzble1jO1y4A9QVMmo6CNcNc+T+Q364EWo6CRcOc+P+W36ZAtgeUU0czNuJ7Xs7Wrk9QAAAAAAAAAAAAAAAAAAAAAAAAAAAAAAAAAAAAAAAAAAAAAAAAAAAAAAAAAAAAAAAAAAAAAAAAAAAAAAAAAAAAAAAAAAAAAAAAAAAAAAAAAAAAAAYbwMmG8AMgAAAAIVyuDLdTc470nruYztUgU9rlrXpU3J7nKu9IeCInt+hinZ+Ub/ADTP3w0votTqz/1yvwL0Dxhp4YG4iiYxP9luBLTwztxLEx6e1uT2AFHUWuWie6ptj3NVN6xcUVPZ9Cfbbgy403ON9F6bnM7FJpRTx/k6/wAUzN0NV6Lk6s/9cL8QL0AACAlzt7ro619Op3V7YueWlSVvOpGq42lZnOzndnGCecSt/wDrjXP+iE/djA7aAa/edX2ex3+z2avqHR1t3kdHStRiqiqmM5VNyb1REz1gbACJW10Ftt9TXVT+bpqaJ00r+OGtRVcu7sRCmt2tLJctELq2mqnOs7YZKhZXMVFRse0j/R45RWru+AGyA5xc+W7Q9pttDWVF1ev5QhSeKKOFzpEYu7LkRPR3pjeuV6jZdKazsOs7U+vsFwZWwxv5uT0XNdG7GcOa5EVPZuwvUBsQNL1hyqaT0NUNpLxcsVrmo/o8DFlkRF4K5E3Nz1ZVM9RBg5adDTWBl5ZedunfUspFTm3c5HI/Kt2mYyiYa5c8Ny4A6ECJXV9LbKKatrqmKlpYGrJJNI5GtY1OKqqnOmfaG5OnXHon5Yla3OOfWmkSPPvxnHtxgDqAI0VTBPSsqYp2SQSNSRkjXIrVaqZRUXhjG/Jzqu+0ByeUNydSLeX1Gwuy+eCne+NF/lIm9Pa3KAdOBW2m8W++2yC42ysirKSoTajlidlrk4L+KLuVOKLuUsgAAAAAAAAAAAAAAAAAAAAAAAAAAAAAAAAAAAAAAAAAAAAAAAAAAAAAAAAAAAAAAAAAAAAAAAAAAAAAAAAAAAAAAYbwMmG8AMgAAAAKbTW+inevFZVz8ELko7WvQ7tV0T922vOR+7/p+wvAAAAFNqTdRQPTikqY+ClyUd0Xpl2pKJm/YXnJPd/0/aBeAAAcSt/+uNc/6IT92M7acB1VNqLSP2h6zVNHpC736hnt7Kdq0cD3JnZai+kjVRFRW8F3gd+OK8rf+m7kv/3uT9+Mkf4btTf/AGQ6q8GT/wCWfXKxYdQ32g0nrWw2qV91skrat9tk/wAarX7DlYqJxVFbhUTfvXAHQtd/6OtSf0ZU/wDKccp0P/qbVn9GXH9+Y9b7rfV/KDpeusFm0Dd7VNVU0kVVU3BisZCxWrttZlEV71T0UTcuV3pgl6OsN2h+ytPZ5aCpjuUltrmtpnxKkqq98qtTZXflyKmE68gS/s/aZttDyUW64tpInV1y5ySedzMuciPcxrcrv2UaiJjhx7Sn0XRwWH7VGq7ZbomU1DU21tSsEbcNR/5lVVETdxc9f+I3fkct1Xa+SKw0dfTy09THC5XRStVjm5kc5Mou9Nyoa9aLJdIPtS327yUFQy3S2djGVSxrzb3fmk2UdwVctXdx9EDX/s/Wqm1PcNR65ukDKu6T3J8Ub5U2lgTCPXZReH3kRF6kbhOsrvtK6UtlK2y6ho6aKmq5qxKadY2o3nkVFc1zkTiqYVM8fSwvUTaKi1byLa1vTrVpmq1Jpe7TdIjZQtV0tO5VzhUa1V3IuN6YVMLlFyhq3LNdNWaptlpvl4sr9P2iKuZTUlDUOzUTPcjnOlcmEVqIjEREVOvrA3b7SlzmZbtM2JWVEtFdK5VqYqZuZZWsViIxqbsqqvyidbkQ9ajXenZ9MO08/kn1b+S1i5pKZLOiIiYxlPSyjk9bjnfnJs/K/oi56x09SVFkkbHfLNUtq6LbVER7k4tyu5FXCKmd2Uwu5cmvLy0aqbb0o38l9/8Ay4rdjY5l/R1dw2kds52c7/d+l1gQuSiw6muPIRf9NV0FZbppVqKa3rXROjdzb40wmHb0btKu9O1ccCt0Xr+k5NNKxaQ1zo2utSQ7UUlUylSWnqkVy+k5f0uON22i+zgdD01buUFvJdXNu11iTVlWks1O5zGK2kVyehGuEVq4VOOFRM43ohrdByranorZ+SdUcm+oKy7xtWKRaSk5ynqlTdtZTLURevZ2k7N24DcuTKk0nSaSVdFVXSLRUVL5kTnXO5t64yzDvSZhMeiqZ6+vJupynkM0Xd9J2O61d2pWW6S8VXSY6Bi56KzC4Rexd+MdSImd+UTqwAAAAAAAAAAAAAAAAAAAAAAAAAAAAAAAAAAAAAAAAAAAAAAAAAAAAAAAAAAAAAAAAAAAAAAAAAAAAAAAAAAAAAAMN4GTDeAGQAAAAFXd7fJPsVVNuqYd6f7Sdh9W67RVrebf+bqE3Kxd2/2FkQK2001au09uxJ67Ny/j2gTwUiW66UybNPcdpvVzn9uQluulQmzUXHDevm/7MASa+7RUTebZ+cqF3IxN+/2nzaLfJBt1VTvqZt6+xOw9KK0U1Cu0xu3J6796/h2FgAAAAAAAAAAAAAAcjumhNf6e1hctQaGvtLPT3ORZ6i2XVz1Zzi8dhUz+G9uE3ZVEQ8IOTnWetdWWy78olxtraG1Sc9Bare1ysfImFy9XdWUTO92U3bsqdjAAAAAAAAAAAAAAAAAAAAAAAAAAAAAAAAAAAAAAAAAAAAAAAAAAAAAAAAAAAAAAAAAAAAAAAAAAAAAAAAAAAAAAAAAAAAAAAMN4GTDeAGQAAAAAAAAAAAAAAAAAAAAAAAAAAAAAAAAAAAAAAAAAAAAAAAAAAAAAAAAAAAAAAAAAAAAAAAAAAAAAAAAAAAAAAAAAAAAAAAAAAAAAAAAAAAAAAAAAAAAAAAAAAMN4GTDeAGQAAAAAAAAAAAAAAACN02P1J/Af5SSAI3TY/Un8B/lHTY/Un8B/lJIAjdNj9SfwH+UdNj9SfwH+UkgCN02P1J/Af5R02P1J/Af5SSAI3TY/Un8B/lHTY/Un8B/lJIAjdNj9SfwH+UdNj9SfwH+UkgCN02P1J/Af5R02P1J/Af5SSAI3TY/Un8B/lHTY/Un8B/lJIAjdNj9SfwH+UdNj9SfwH+UkgCN02P1J/Af5R02P1J/Af5SSAI3TY/Un8B/lHTY/Un8B/lJIAjdNj9SfwH+UdNj9SfwH+UkgCN02P1J/Af5R02P1J/Af5SSAI3TY/Un8B/lHTY/Un8B/lJIAjdNj9SfwH+UdNj9SfwH+UkgCN02P1J/Af5R02P1J/Af5SSAI3TY/Un8B/lHTY/Un8B/lJIAjdNj9SfwH+UdNj9SfwH+UkgCN02P1J/Af5R02P1J/Af5SSAI3TY/Un8B/lHTY/Un8B/lJIAjdNj9SfwH+UdNj9SfwH+UkgCN02P1J/Af5R02P1J/Af5SSAI3TY/Un8B/lHTY/Un8B/lJIAjdNj9SfwH+UdNj9SfwH+UkgCN02P1J/Af5R02P1J/Af5SSAI3TY/Un8B/lHTY/Un8B/lJIAjdNj9SfwH+UdNj9SfwH+UkgCN02P1J/Af5R02P1J/Af5SSAI3TY/Un8B/lHTY/Un8B/lJIAjdNj9SfwH+UdNj9SfwH+UkgCN02P1J/Af5R02P1J/Af5SSAI3TY/Un8B/lHTY/Un8B/lJIAjdNj9SfwH+UdNj9SfwH+UkgCN02P1J/Af5R02P1J/Af5SSAI3TY/Un8B/lHTY/Un8B/lJIAjdNj9SfwH+UdNj9SfwH+UkgCN02P1J/Af5R02P1J/Af5SSAI3TY/Un8B/lHTY/Un8B/lJIAjdNj9SfwH+UdNj9SfwH+UkgCN02P1J/Af5R02P1J/Af5SSAI3TY/Un8B/lCVkecbMyL/ADL8fsJJhvADIAAAAAAAAAAAAAAAAAAAAAAAAAAAAAAAAAAAAAAAAAAAAAAAAAAAAAAAAAAAAAAAAAAAAAAAAAAAAAAAAAAAAAAAAAAAAAAAAAAAAAAAAAAAAAAAAAAAAAAAAAAGG8DJhvADIAAAADzfIyKNXvciMRMqqlMtwrblI6O3M5uJNyzP/v8A2ivV9yubbdG7EUfpyqn9/wC6lzFEyCJI427DG7kRAKlLBzm+qrZ5l9n9uTCaf5rfS1s8K+3+zBdgCibX1tukSO4s5yJdyTM/v/aXMcjJY0exyOYqZRUEsTJonRyN22O3KilNblfbbm+3SOzFJ6cSr/f+6gXoAAAHD9Val5QLvy31WjdLagpLRBT0balFmpmSI7c1XZVzHLn0t3VuA7gDhd3quWvQtuffq662nUtupfzlTTxwJG9I0+85NljVwidaKuOOFQ2PV/KM+q5A6zW2mJ3U8skcfNK9jXOhcszY3oqLlMplU7OsDqIKTSFxqLromyXGqVq1NbQQVEqo3COe+NrnLhOG9S7AAAAAcwsWsbzWfaI1NpWeqa+0UFvimgi2GorXq2FVXaxlc867ivYB08AAAAAAAAAAAAAAAAAAAAAAAAAAAAAAAAAAAAAAAAAAAAAAAAAAAAAAAAAAAAAAAAAAAAAAAAAAAAAAAAAAAAAAAAAAAAAMN4GTDeAGQAAAAFLp9Oc6XVLxllx/X/WXRS6fXm+l0q8Ypc/1f1F0AAAApb+nN9Eqk4xS4/r/AKi6KW/rznRKVOMsuf6v6wLoAADgVTfLZp77WlyrbtcKahpfyW2PnaiRGN2lYzCZXrXB304BXWC06l+1ncrfd6CGupfyY2Tmpm5TaRjML+sDZ+UPli0fSaNulNQ3qlutfV076aCnpHc7tve1WplW5RETOVz7k3mnXTTVw0t9jquoLlE6CskWOeSJ/GPbqo1a1exdnCqnUu46/auTfRtkrWVlu01bqepjXMcqQIrmL2tVcqi+1Cg+0F/oM1B/+n//AHEYEm3S32LkHtLtLwxVF5SzUraVkjmom0sbEzl2EyiZVEXcqphTVaXkRvVRavyheuUK/s1FI3aWaCrVIInr+iibnK1OG5W+xEMaz1DeNM/ZksldZZZIKh1BQwvnZ96Fjomormr1Kq4bnq2t28rqbk35J6XSMeoNQXx98asSSyVc9ycqyOwiq1rWORc54N3u6uIEvR2ub3qH7P8Aq2a51TvytZqeqpUq41w5+zDlr8p+kiqqZTsReJXcnuiL7ym6Atdy1Hq270lvijWGipaCbYV6McrVklc7O05XIqJu3NRMLvKjkqRE+z3yjo2F0CJ0rEa5yz+Lp6K535TgdY5Cf9CWnP5qT/mvA1rksul+sHKdqHk6vN4nvMNBC2rpKqocrpNhdj0VcqquMPbu6lRcbiqpL7b9N/ai11drrVMpKKntETpJH/yKbCInFVVdyIm9VLKyf64eof6GZ+yA1e5aFtXKF9qHVtsu7p0git8czOZfsLt8zAxqr242847UTO7KAbdpT+E/Khqyk1fXS1dj0tQSc5bKBj1jkrFT/wASTHFq9nBU3JuyqwOU+81t15X7Tomq1HPpmxz0nSJaiGTmXVD1V2GpIq4RPRRERd2c7lXBM5MtUXPSGpl5MtYy5qqdP+yK5fu1cP6LMr1oibvcreKJm41xWaA1Hq+DQ+rqL+OOp+k0tROnMsXOU2Y5Ucjkdu4fdXGN67gIds5ONS6K1daqvTGpa+6WOWTm7lQ3Wq28Rr/4ka7KJlOO5EXON6oq460fmzU9odyO6p09/ArU1dUtuNY2KWyzVCTNexVRMo1MblzsoqpnK7lP0mAAAAAAAAAAAAAAAAAAAAAAAAAAAAAAAAAAAAAAAAAAAAAAAAAAAAAAAAAAAAAAAAAAAAAAAAAAAAAAAAAAAAAAAAAMN4GTDeAGQAAAAFFXtfbrm24xtzFJ6EqJ/f8AupcxSsniSSN22x29FQPjZLGrHtRzFTCopTLb622yOktz+ciXesL/AO/9oF6ClS/83uqqKeFfZ/bgx+X+d3UtFPMvt/syBbyysgidJI7YY3eqqU1uR9yub7jI3EUfoRIv9/7qG2+tuMiSXF/NxJvSFn9/7S5jjZFGjGNRrETCIgHoAABRR6Ts7NYSanZRNbeZYEpX1G27fGiouNnOzncm/Gcbsl6ABVX+w23VFjqbNdafpFDVIiSx7StzhUcm9FRUVFRFLUAVi2W2rYUsr6KKS2MgSm6O9u0zm0TZRqoucoiIanZ+RbQNkvLLnRaeiSqjdtxrLLJKyNydaNc5W5zvTdu6sG/gDW7fobT1utN3tdLbWx0V5kllrY9ty866RNl+9VyiKnBEwidRPsdloNO2WltFrp+j0NI3Yij2ldspnPFVVVVVXO8tQBSQ6UtFPrCo1RFRI27zwJSyVG270o0VFxs52epN+M7jFPpSzUeq6zUkFDs3ashbBNUbbvSY3GExnCfdbwTqQvABr9/0fZNUVVvnu1A2omtk6VNNJtK10b0VF4oqKqKqJlF3LhD41TobTutKZkF+tkVakeebeqqx8eeOy9qo5EXrTOFNjAGl6X5KtGaPrUrbNY4oatEVEnke+Z6duyrlXZ7N2DdAAAAAAAAAAAAAAAAAAAAAAAAAAAAAAAAAAAAAAAAAAAAAAAAAAAAAAAAAAAAAAAAAAAAAAAAAAAAAAAAAAAAAAAAAABhvAyYbwAyAAAAAAAAAAAAAAAAAAAAAAAAAAAAAAAAAAAAAAAAAAAAAAAAAAAAAAAAAAAAAAAAAAAAAAAAAAAAAAAAAAAAAAAAAAAAAAAAAAAAAAAAAAAAAAAAAAAAAAAAAABhvAyYbwAyAAAAAAAAAAAAAAAAARuhR+vP47/MBJBG6FH68/jv8w6FH68/jv8wEkEboUfrz+O/zDoUfrz+O/wAwEkEboUfrz+O/zDoUfrz+O/zASQRuhR+vP47/ADDoUfrz+O/zASQRuhR+vP47/MOhR+vP47/MBJBG6FH68/jv8w6FH68/jv8AMBJBG6FH68/jv8w6FH68/jv8wEkEboUfrz+O/wAw6FH68/jv8wEkEboUfrz+O/zDoUfrz+O/zASQRuhR+vP47/MOhR+vP47/ADASQRuhR+vP47/MOhR+vP47/MBJBG6FH68/jv8AMOhR+vP47/MBJBG6FH68/jv8w6FH68/jv8wEkEboUfrz+O/zDoUfrz+O/wAwEkEboUfrz+O/zDoUfrz+O/zASQRuhR+vP47/ADDoUfrz+O/zASQRuhR+vP47/MOhR+vP47/MBJBG6FH68/jv8w6FH68/jv8AMBJBG6FH68/jv8w6FH68/jv8wEkEboUfrz+O/wAw6FH68/jv8wEkEboUfrz+O/zDoUfrz+O/zASQRuhR+vP47/MOhR+vP47/ADASQRuhR+vP47/MOhR+vP47/MBJBG6FH68/jv8AMOhR+vP47/MBJBG6FH68/jv8w6FH68/jv8wEkEboUfrz+O/zDoUfrz+O/wAwEkEboUfrz+O/zDoUfrz+O/zASQRuhR+vP47/ADDoUfrz+O/zASQRuhR+vP47/MOhR+vP47/MBJBG6FH68/jv8w6FH68/jv8AMBJBG6FH68/jv8w6FH68/jv8wEkEboUfrz+O/wAw6FH68/jv8wEkEboUfrz+O/zDoUfrz+O/zASQRuhR+vP47/MOhR+vP47/ADASQRuhR+vP47/MOhR+vP47/MBJBG6FH68/jv8AMOhR+vP47/MBJBG6FH68/jv8w6FH68/jv8wEkEboUfrz+O/zDoUfrz+O/wAwEkEboUfrz+O/zDoUfrz+O/zASTDeBH6FH68/jv8AMEo40XO1Mq/zz8ftAkgAAAAAAAAAAAAAAAAAAAAAAAAAAAAAAAAAAAAAAAAAAAAAAAAAAAAAAAAAAAAAAAAAAAAAAAAAAAAAAAAAAAAAAAAAAAAAAAAAAAAAAAAAAAAAAAAAAAAAAAAAAYbwMmG8AMgAAAABX1t3paFdl7tuT1Gb1/HsPO718kGxS02+pm3J7E7T6t1oiom84/8AOVC71eu/f7AIyXC6VCbVPbsN6uc/twEuN0p02qi3bTevm/7Ml2AK+iu9NXLssdsSeo/cv4dpYFbcLRFWt5xn5uoTej03b/afNor5J9ulqd1TDuX2p2gWgAAAHN9YctWndF6nWw1lDd62uaxsrko6dr0aiplM7T0XOOxAOkA5Jb/tF6LrLjFR1bLpaHSKiJLXUyNYme1WvVUT2qmE6zq0b2ysR7HNcxyZRU3oqL1oB6gAAAAANW0zrm26rvV+tVvZUNnsNV0WpWViI17suTLMKuUzG5N+DaQAAAAAAAAAAAAAAAAAAAAAAAAAAAAAAAAAAAAAAAAAAAAAAAAAAAAAAAAAAAAAAAAAAAAAAAAAAAAAAAAAAAAAAAAAAAAAAYbwMmG8AMgAAAAKO1p0y7Vda/fsLzcfu/6ftLwptNbqKdi8UlXPwQuQAAAFHdE6HdqStZu215uT3f8AT9heFNqXfRQMTisqY+CgXIAAHErf/rjXP+iE/djO2n5x1LbNQ3b7UlxpdM3tlmuH5PY/pD4kkTYRjMtwqLx3Adf5TrVa7ryb3uO7RQvghpJZmvkamYntYqtc1V4Ki8O3h1nNNCa8uGkPswQainpenOoZXU9OyR6tR7Fm2EyuFXDcqie7BYVXI7rTU6R0useUSettaOR0tLTU6Rc6iLnCqmE/FWrjsJvLhaaOzfZ/uFvt1Kymo6Xo0cUbE3MakzP7qq71XiB06zXBLrZKG4ozm+l08c+xnONpqOxn2ZNV0Xr52rdX6ssrqFtOmn6ptOyRH5WVFV7VVUxu3xr+Cl9o1UdoWwuRcotvp1Tw2nL+RV7ZeVflUex2Wrcmb09kk4FnX8q1/uuqLlZdCaSW+/kqRYaqrnqGwRNkTKK1u1jOFRUznfjcmN5c6C5SJtU3qvsF4sk9h1BbmJJNSSPSRr2KqJtsciJlN6Z6t6YVTVZ+T/XWhNUXe9cn9bQ11BdJlqZ7VX7sPVVX0XZRN2Vwu03dhFzjJb6G5TJr3refTOpdNfkHU8UGdpHJI2eNPSwjk3om/KJlycd+QOdaH1jUaZ5SeUqjtVmqb3e6+8P6LRwu2EVrJZ9t73qio1rdpOPFXIntTerNywXmh1nQ6c15pR2np7muxSVEcySxPeq4RqqmU3qqJlHLhVTKIi5K3kQgidyr8qdQqfnWXVY0Xsas06qn4qifA9PtFojafR87XbMsd5YjX9aZTP8AUgHawaVrqz63ujqRdG6kpbJze10hJ6VsvOZxs4VzXYxv3YTiUWntNcrVLf6Ke865t9bbY5UWop2UTEWRnW1FRiKir253fqAudX6+fpfXOlbC2gbUsv0z4pJFfhYkTZRFRMb97t/sQ2e+3L8i6duN05rnOhU0tTzecbew1XYz1Zwco5XfR5aeTBy7kWskTPt24jo+vnsi5NtSukdhiWypyq/zTgNPXldnTkGTlBS0s59fR6Jzq7O1z/NfexnHXw9ntK//AAwam1DTLVaH0NNeKCFE56qlnSJivwivZGi4V+FXGU49hpLv9R1n85//AN6na+TCGkg5K9Mso0a2FbdA7cmPSViK9V9quVc+0Cu5NuU6i1/FV076KW1Xi3v2KygmdlzFzjKLhFVMphcoiou5erNdqrlRuUOsptIaP01JqG8UrGyVSulSGGnRURURXLuVcK3O9E343rlE1uiYym+2HXNoFxz1rzWom5M7DF347cRr7y21Lyd6ttXKDW620FcqNlTXxo2tt9cn5ubCJwVO3CLxaqLnDsLgCz0hymXGv1eukNW6dk0/fZIlmp0SVJoahqJldlydeEVdyqnorvRdx0o5Fp7lQukeu7fpjXulI7PeKpHJRVcT0lieq8UauVVqLjG5y78IqIddAAAAAAAAAAAAAAAAAAAAAAAAAAAAAAAAAAAAAAAAAAAAAAAAAAAAAAAAAAAAAAAAAAAAAAAAAAAAAAAAAGG8DJhvADIAAAACip3/AJOv80L90NV6TV6s/wDXKfAvSFcrey4U3Nu9F6b2P7FIFNdJaJ6UtzY5qpuSXiip7fqBeA8YaiGduYpWPT/ZdkS1EMDcyysYntdgD2KKd/5Rv8MLN8NL6Tl6s/8AXCfEzUXSWte6ltrHOVdyy8ERPZ9Sfbbey3U3Nt9J673P7VAmgAAc7ptA3CHl3rNbLVU3QJrelMkSZ53nPRTemMbOG5znPVjrOiAAUmq9OUurdLV9irnPZT1sewrm8WKiorXJnrRyIpdgDilk0Vyw2S1Raco9U2VlqhakUVasTnVEUXBEa1W4yicEVd3rF5yU8mFXydX7U00tayrpLnJCtM9Xq6VUYj1c6TKIm0qv6lXrOngDjv8AAHX+jNQ3Oo0LebZUWq51LqqSgu22vNSOXLlarcqqe3KLjGcqmSz0bydXql1xPrXWN2p7he3Q9GghomK2np48Y3bSI5V4om7rXOVXd08Ac75PNB3DSWrta3WsqKeaK/1/SqdsSrtMZtSP9LKJhfzuN2eB98qmhLhrqmsUVDUU8C2+5R1UvOqqZjRFRdnCLlydSLjPah0EAAABoHKlydya7tdC+31y228WmfpNDUL91jsplFxvT7qKipwVENZqtDcqWr7ZNadWaltUFtWNWvZb2OSSqcieij3K1Nliuwq7PFN2DsoA4HrTSlboz7Jc1guMkElXSuYr3QKqsy+sR6IiqiKuEdjge+m9HcpOntIW5uiNQ259prqWKpZS3Jiq+kfIxrn825Grlu0qqiLwzwVcqvV9XaUoNaaZrLBc3zspKrZ21gcjXorXI5FRVRU4onFFLK3UEVstdLQUyKkFLEyGNFXK7LURqb/cgGg8mHJjPo+puN8vly/K+pbov8Zqkzssaq7StZlEVUVcKq4TgiIiYIV90DrO1a4rtVaDvNHE+6I3ptvuW0sT3IiIjmq1F37vZjfhcLg6uAOUWfk41Retc0Gq9fXa3zzWpP4jQ21jkijcv6TnORFXC4XG/Kom/CYXq4AAAAAAAAAAAAAAAAAAAAAAAAAAAAAAAAAAAAAAAAAAAAAAAAAAAAAAAAAAAAAAAAAAAAAAAAAAAAAAAAAAw3gZMN4AZAAAAADylhjmZsSsa9nY5MnqAKmTTlBIuWtfH/Id9ciLTlBGuXNfJ/Ld9MFsAPKKGOBmxExrGdjUweoAAAAAAAAAAAAAAAAAAAAAAAAAAAAAAAAAAAAAAAAAAAAAAAAAAAAAAAAAAAAAAAAAAAAAAAAAAAAAAAAAAAAAAAAAAAAAAAAAAAAAAAAAAAAAAAMN4GTDeAGQAAAAAAAAAAAAAAAACNt1vd4PGXyASQRtut7vB4y+Qbdb3eDxl8gEkEbbre7weMvkG3W93g8ZfIBJBG263u8HjL5Bt1vd4PGXyASQRtut7vB4y+Qbdb3eDxl8gEkEbbre7weMvkG3W93g8ZfIBJBG263u8HjL5Bt1vd4PGXyASQRtut7vB4y+Qbdb3eDxl8gEkEbbre7weMvkG3W93g8ZfIBJBG263u8HjL5Bt1vd4PGXyASQRtut7vB4y+Qbdb3eDxl8gEkEbbre7weMvkG3W93g8ZfIBJBG263u8HjL5Bt1vd4PGXyASQRtut7vB4y+Qbdb3eDxl8gEkEbbre7weMvkG3W93g8ZfIBJBG263u8HjL5Bt1vd4PGXyASQRtut7vB4y+Qbdb3eDxl8gEkEbbre7weMvkG3W93g8ZfIBJBG263u8HjL5Bt1vd4PGXyASQRtut7vB4y+Qbdb3eDxl8gEkEbbre7weMvkG3W93g8ZfIBJBG263u8HjL5Bt1vd4PGXyASQRtut7vB4y+Qbdb3eDxl8gEkEbbre7weMvkG3W93g8ZfIBJBG263u8HjL5Bt1vd4PGXyASQRtut7vB4y+Qbdb3eDxl8gEkEbbre7weMvkG3W93g8ZfIBJBG263u8HjL5Bt1vd4PGXyASQRtut7vB4y+Qbdb3eDxl8gEkEbbre7weMvkG3W93g8ZfIBJBG263u8HjL5Bt1vd4PGXyASQRtut7vB4y+Qbdb3eDxl8gEkEbbre7weMvkG3W93g8ZfIBJBG263u8HjL5Bt1vd4PGXyASQRtut7vB4y+Qbdb3eDxl8gEkEbbre7weMvkG3W93g8ZfIBJBG263u8HjL5Bt1vd4PGXyASQRtut7vB4y+Qbdb3eDxl8gEkEbbre7weMvkG3W93g8ZfIBJBG263u8HjL5Bt1vd4PGXyASTDeBH263u8HjL5Aj6xXf4iFE7eeXP7oEkAAAAAAAAAAAAAAAAAAAAAAAAAAAAAAAAAAAAAAAAAAAAAAAAAAAAAAAAAAAAAAAAAAAAAAAAAAAAAAAAAAAAAAAAAAAAAAAAAAAAAAAAAAAAAAAAAAAAAAAAAADDeBkw3gBkAAAAAMKqI3K7kI1ZWRUNM6aV25OCdar2FTFS1l3xNWSOip13tjZ1p/frUCyku9DCuH1TP+HK/syIrvQyrhlUz/iyn7cCK0UMLcJSxu/l+l+0S2ihmbhaWNP5Ho/sAmoqK3Kb0Mmvvpau0bUtHI6WnTe6N/Un9+tC3o6yKtpkmiduXinWi9gEkAAAAAB4QVEM6OWGVkmyuF2XIuF/A9wAAAAAAAAAAAAAAAAAAAAAAAAAAAAAAAAAAAAAAAAAAAAAAAAAAAAAAAAAAAAAAAAAAAAAAAAAAAAAAAAAAAAAAAAAAAAAAAAAAAAAAYbwMmG8AMgAAAAKJW/lW/va/wBKnpOrqV3/AF/YXpTab9OlnlX77pVz8EX+suQAAAFE1v5Kv7Ws9Gnq+rqR3/X94vSm1J6FLBKn32ypj4Kv9QFyAABwTVjblypcudXoGqulTbNP2mlbPUQ07tl1SqtY5c54/wCNREyioiJnGVO9nL+UDkjfqXUcGqNPXmawajgRG9IYiqyVETCbWMKi43Z3oqblRQKG9fZ4tdstj6/RVfc7XfaNiyU0iVKqkr0TKNduTGeGUVETrRUN40hqmuj5MaO964Z+RKqGPm6t1W3mt6O2EeqbsbW5cYTeu7dg5/Wak5a+T+mfWXu2WzVFtp02556b0Xo1OK+ijVTdxXYVE4qenKhrC365+zVX3y3I9kcssLZIXfehekzNpq43e1F60VFA7XBLHPCyWJ7ZI5ER7XNdlFRd6Ki9ikKivtruddXUdHXwVFRb5EjqY43oroXLvRHJ1cF+C9h46P8A8xrH/uFP/wAtpzDkX/0u8qv9JM/5k4HS3av0/HT19RJeaFkVumWCrkfO1GwSJ+i5VXcvs7dxiw6201qeR8NlvtDXzRpl0cMqK9E7dnjj24wcH5NtD0Gs+VfXMt6Y6sttruk0jKNyrzUkz5ZERzkTjhrV3f7XxtuWvRVs0Nb7drnSdJFZblbq1iSJSt2I5GuzjLU3cURFwmFRyouQO+ue2JjnvcjWomVVdyIiGrN5T9EOuPQG6rta1GdnHSG4z2bX3c/ic45ftYOXRGnLe2qfQUWo5WyVUzMqrKdEY5ybkyqfnGquE37OOvBUT3f7PU2mXWVi08Kc3sMq2W+bpKOxhH85sbSrnfv3ezAH6Bq6unoaKarqZ2QU8EbpZJHuw1jUTKqq9SIm8pH690rFNbY336gR91Rq0ic6mZkcuGqidiruRV69xyDk+1DcL79mLVkFwmkqvybS1dLBO/PpxJDtNTK71xlU9iYQvOQvQmn5eT6yair7ZBX3efMjKiobziwIyRzWJHtZRuEai7t+cqB02p1VY6WruFNNdaOGW2RtlrEklRvMNdvar88EX+tO087DrTTWqHSx2W90dwkiTMjIZUVyJwyreOPbjBxui0tQ6q+1PqyluzOkUEFPDUupVcuxO9I4Ubtp+k1NpVwu7OCLyyaJtNh1ppCTTUCWCS9VL7dVOoG8yixvVjFw1u5F2XvRcJv/AAA7JHyjaOku/wCSo9UWx1btc3zfSW73ZxsoucK7O7Gcm0nG+VPkr0dQckl1lt1ho6Got0HPU9RCzEqK3H3n/edlNy7Sr28S2s0VRrP7O1DBW3t1qkq7YyOe4q7Ksa3COc5XKnFrVRyqqcV3gbFPynaJprh0GbVVqjqEXCtWpbhF7FdnZRfepssM0dTCyaF7ZI3ojmvYuUVF3oqKnFFOB01Z9n6wWD8hzz0FxVI+bkq1pJJp5F63JK1i4XPDZVETqLb7NtxmquTi7Uq1MlTS0NdJHSrJxSNWNciJngmcrjtcoHR5teaUgsrLzLqGgZbpJHRNnWZNl70XCtb1qqdie8nWLUtm1LSuqbPdaSvhZhHLTyo7YVeCORN7V9inCPs76Bsuo9HT3m/Ukd1WCqfTUtPU/nIYGo1rnKjF9Hacrt6qi7kQto7JRaE+1FZKOwwdBoL5QSLU0sLlSPaRsi5RvBEzGxcdS5wB3kAAAAAAAAAAAAAAAAAAAAAAAAAAAAAAAAAAAAAAAAAAAAAAAAAAAAAAAAAAAAAAAAAAAAAAAAAAAAAAAAw3gZMN4AZAAAAAUlmXo1fW0Ltyo/bZ7U/6YLsp7rSStmZX0qfnovvJ2oTKC4w3CHajXD0+8zrQCYAABSXlek19HQt3qr9t/sT/AKZJ9dcYbfDtSLl6/dZ1qQ7RSSumfX1Sfnpfup2IBcAAAcU1HqvU/JfynXO7XqKvvWjLqjFjfF6aUL0TGEaq4b15TcjkVFzlFQ7WAOKXv7Remqm1TUemaK43e61MaxwU6Uqom2qYTazlVx2Ii54FbauSm90f2Yrrp6SB35Zr5PyglLlMscjo1SPs2lbHw7Vwd0hpKeCR8kNPFG9/FWMRFX3qhJA4XpHl9sVBpK22ett91/L1HTx0i0EVKrpJpGNRqbPvxwXCp2KfP2f23Rddcokt3pVpa6aqglnh4pG97pnq3PXjaO480znuc2G7eMbWzvx2ZPpGoiqqNwq8faB+YdD6wq9C8pmvLrUWyqrdPS3SWGumpWbb6V6SyrG9W5T0fvoq+7rwi2mu9af4cZqDRmi6KqmpHVLZq6vmiVrImJlEXjwTKqucKqtRERTf+S7Rt50vqfW9Zc4GRxXa6OnpXI9Hc5HtPcjsIq4++m5cLxOkxxRxN2Y2NYmc4RMbwOWcsmjLjX6Xstx03TdKr9Lzsnp6XZ2lkjTZyiJ1qmyxcdaIuN+Cu/8AaK0W21bb7bcEuuMLbei+nznq7XDGd2ePs6jtJ5czEsySqxqyImEfjfj3gct6bqe8/Z91LW6mtsVBXVVDWPhpIo1ascKxrsI5q5Xa4+3GM78ltyHNczkW041yK13MvXf2LK9U+KHQT4a1GNRrUwibkRAON6PikT7VWuXqxUZ0CHfjdvbDj44UcucMkmseTZWMVcXpqbkzvV8S/wBSnZMIjlcib14r7grUXCqmcb09gGn8rTHP5I9TI1FVegSLu7ETKnMrxYrvevskWektUU75Y6eGeWCNq7U0SOVVRE6+KOx143Hf1RFTChERqYTciAcO0xytaIpbDS2rSOl6mS9ujSOO2QUSNdzqIiZfIm7ZzxeqquN6n39nCnrKfSmqYatn8aZdpY5MJuWRGNRyJ+J2psbGPc9rER7+Kom9cdp9tajfupjO8Djv2Y43xck0m2xUzcpsZ3cGsT9qYPjV8Ui/aq0O9GKrOgTb8btzZs/DKHZGta1uGphPYNlFcjlTenBfeB9gAAAAAAAAAAAAAAAAAAAAAAAAAAAAAAAAAAAAAAAAAAAAAAAAAAAAAAAAAAAAAAAAAAAAAAAAAAAAAAAGG8DJhvADIAAAAAVVVZo5pufppHU8/HaZwUtQBSJ+XoPRTmKlO1cf2Bfy9P6K8xTp2pj+0uwBVUlmjhm5+pkdUT8dp/BC1AAAAAAAAAAAAAAAAAAAAAAAAAAAAAAAAAAAAAAAAAAAAAAAAAAAAAAAAAAAAAAAAAAAAAAAAAAAAAAAAAAAAAAAAAAAAAAAAAAAAAAAAAAAAAAABhvAyYbwAyAAAAAAAAAAAAAAAAARun0ne4PnT6gSQRun0ne4PnT6jp9J3uD50+oEkEbp9J3uD50+o6fSd7g+dPqBJBG6fSd7g+dPqOn0ne4PnT6gSQRun0ne4PnT6jp9J3uD50+oEkEbp9J3uD50+o6fSd7g+dPqBJBG6fSd7g+dPqOn0ne4PnT6gSQRun0ne4PnT6jp9J3uD50+oEkEbp9J3uD50+o6fSd7g+dPqBJBG6fSd7g+dPqOn0ne4PnT6gSQRun0ne4PnT6jp9J3uD50+oEkEbp9J3uD50+o6fSd7g+dPqBJBG6fSd7g+dPqOn0ne4PnT6gSQRun0ne4PnT6jp9J3uD50+oEkEbp9J3uD50+o6fSd7g+dPqBJBG6fSd7g+dPqOn0ne4PnT6gSQRun0ne4PnT6jp9J3uD50+oEkEbp9J3uD50+o6fSd7g+dPqBJBG6fSd7g+dPqOn0ne4PnT6gSQRun0ne4PnT6jp9J3uD50+oEkEbp9J3uD50+o6fSd7g+dPqBJBG6fSd7g+dPqOn0ne4PnT6gSQRun0ne4PnT6jp9J3uD50+oEkEbp9J3uD50+o6fSd7g+dPqBJBG6fSd7g+dPqOn0ne4PnT6gSQRun0ne4PnT6jp9J3uD50+oEkEbp9J3uD50+o6fSd7g+dPqBJBG6fSd7g+dPqOn0ne4PnT6gSQRun0ne4PnT6jp9J3uD50+oEkEbp9J3uD50+o6fSd7g+dPqBJBG6fSd7g+dPqOn0ne4PnT6gSQRun0ne4PnT6jp9J3uD50+oEkEbp9J3uD50+o6fSd7g+dPqBJBG6fSd7g+dPqOn0ne4PnT6gSQRun0ne4PnT6jp9J3uD50+oEkEbp9J3uD50+o6fSd7g+dPqBJBG6fSd7g+dPqOn0ne4PnT6gSQRun0ne4PnT6jp9J3uD50+oEkEbp9J3uD50+o6fSd7g+dPqBJBG6fSd7g+dPqOn0ne4PnT6gSTDeBH6fSd7g+dPqOm0irhKqFfZtov8AWBJAAAAAAAAAAAAAAAAAAAAAAAAAAAAAAAAAAAAAAAAAAAAAAAAAAAAAAAAAAAAAAAAAAAAAAAAAAAAAAAAAAAAAAAAAAAAAAAAAAAAAAAAAAAAAAAAAAAAAAAAAAAw3gZMN4AZAAAAAAYVURuV4FPNeJZ5nU9th596cZF+6gFyCkbb7rP6U9y5teyP+zAW33WD0oLlzi9kn9uQLsFNDeJYJkp7lDzD14SJ91S4RUVuU4AZAAAAAAAAAAAAAAAAAAAAAAAAAAAAAAAAAAAAAAAAAAAAAAAAAAAAAAAAAAAAAAAAAAAAAAAAAAAAAAAAAAAAAAAAAAAAAAAAAAAAAAAAAAAAADDeBkw3gBkAAAABS3SaWsq2W2ndjO+V3YnYWNLSRUcCRQtwifFV7VK2xJz9RV1jt6ySYT3cfoXYAAARqqkirIHRTNyi/FF7UK61zS0dU+21Ds7O+J3anYXRSXxOYqKSsbuWOTC+7j9QLsAADjmrOUfW8XKrPozR1mtdZJT0ralVrXORVyiKuFR7URE2kTB2M/OWpNaWvQv2prjd7vz/R1trIfzDNt20rGKm7KbtwGwXLlC5XNJ0Ul21Hoq11Frhw6d9BOqPjb1qvpvXCduzhOs6ppnUdDqvTdHfLa9z6WtbtN2kwqKiq1zVTtRUVF9xxnWP2gtP6h07V6esNPUOq7pC+lSev2Kenia9qtc5znO6kVerBuFrtb+Tz7O9TDbK+KpqqK11FVHVwORzFlVrpNpi70VEVdy9aIB081O337UdRyj3Oz1WnnQWKnp2yU1z2/wDHPXZy3HDrfu4psb+KHO+Tl3KJr602DUNVqj8mWqmc1qwsgbJJX7D8SOkXcjcqitTjwzjPG9sOq71W/aR1RpqesV9oorfFLDT7KYY9WwrnOM7+dfn8OwDqZp3Khqus0Vyc3S/0DIJquk5tI2TIqsy+RrMqiKirhHZ4mi6o1hq7WXKbU6G0NXRWuG3R7VwuT2I9Uduy1MouMKqNwm9VzvRENT5XqfX2kuT2ttV9vMWp7Lc3RxtrVgSGamla9r0RyJnLXI1U3qu/rTgofoPT1yfdtNWu5SsbHJWUsVQ5icEV7EcqJ7EyWhyHUmv5tAciemZbfClTdrhRUtLRRublNpYm5cqdeOzrVUItJpTlnorcl7drSmrbmjedfZ5advMv3Z5vbTCIvVuREz+ljeB2gHHuQ7XV81vcdWz3WR/NQ1bHU1O9qZp2u2/zeURM4RqJv69/WQ11DrTlU1fdrdo+8s07p2zS9Gkr0iSWWokRcLs56tyqmFTdhVXK4QO2g4rbdT6u5ONfWzTWtLqy/wBqvbuaoLkkSRvjlyibL0Tqy5ucquMoqLuVCXr/AFZqW4cqFt5PdMXSCxyVNMtVUXCSNJHqnpLsMau7g3O7eueKYXIdfBye2W/lL0Zq21Q1N5drKw10vM1T307YZaPP6e5VXZTiu9UwmMIqop1gAAAAAAAAAAAAAAAAAAAAAAAAAAAAAAAAAAAAAAAAAAAAAAAAAAAAAAAAAAAAAAAAAAAAAAAAAAAAAAAAAAAAAAGG8DJhvADIAAAACm05+bhqqdfvxyrn9n9RclFVKtpvSVeP4vU7pPYv99/xLprke1HNXaau9FQD7AAAptRfnIaWnT78kqY/Z/WWznJG1XOXDU3qqlLSqt1vTqvH8Xpt0ftX++/4AXoAAHErf/rjXP8AohP3YztpzbV/Irp7Wep33+ruF5oa6SJsbloqhjEVETCcWKucdi4A2/U9PYqjT1Y3UUVK+1oxVnWqRNhrcb1yvBexU354bzhPJfVVc32a9dQvWV9BTsrGUSyZyjFhyrU9iKud3Wqm3x/Zt0g+oY+tul/uLGrnm6qtarV+ViL8FOhO0hZnaMn0vTUqUVqmpn0vN0/oqxj0VFVFXPpb85XOV3rkDXeQn/Qlpz+ak/5rzVtL/wCuBrP+iYv3KY6fpTTVJpLS9DYaGSWSnoo9hj5VRXLlVcqrhETeqr1EGh0NbLfyjXPWcMlS643KmZTSsVU5tGtRqZRMZyqRs6+r2gc05MZ4rD9oHX1luDmw1t0n6VS7e5ZGbT5MN7fRkRcdjfYpZfaVvFFR8lktslexauvnjSGNfvYY5HucidiImFX2m0a65KdOa/mgqbk2opbhTJiKtpHoyZERcoiqqKioi8MplOpUyUbPs/6WdZrjR1lbda6ruEbYn19TUJJPG1r2vRGZbhEyxM5RVxuyBpHKgjqDR3JNqKaNz7falplqd2UwrIXplE7Uieh3x17trLGt5dWwJbUh6R0rbTm+bxnaz2YNM5Rp7PpDkrZSXHT89+scKQ0c0LHJtRwomykiru3phMKmPSVN6cTmFr0ryHQUDLxJq6eotjF59LVVVyYR3HCwtakiqnDG/PaqAXP2bK6O6XfXlwgZsQ1VfHNGnDDXOlcifBTWeSDQjLvU6istTq3UVkutsr3pLSUFZzCPZubzitwuVyioqp1Y9md4+z1QzzQ6o1QtItJRX64umpI1bs/m0c9conDGX7KY9VTaNYckWndW3lt5e+utV3RMLW22bmZH4TCbWUVFwm7O5cbs8ANOvHJ7pGx6v01BqTW+pLlcJq1i0FJV1fP7T0cmFVNhVa1XIiKuUz27t2x6601oXlA1fBYbjXyUmp6SBJqeSnesc7Y8qqYcqK12F37P3k3qmN6kvR/I5p3SN5/LHPV13u+/Zq6+XnXR5TC7KIiIiqnWuV9pM1ryYWHXU9NV1/SqS5UrdmGuopOanYmc4zhUVMr1pu34xlQObXys1tyMXmyOm1bLqay3GqSndS1zMzpw+65VVy4RdyouM4y0/QBzew8jNis99p71cbhd9RXGl3wSXWp55IVRcorW4TenVnOF3pvwdIAAAAAAAAAAAAAAAAAAAAAAAAAAAAAAAAAAAAAAAAAAAAAAAAAAAAAAAAAAAAAAAAAAAAAAAAAAAAAAAAAAAAAABhvAyYbwAyAAAAA8Z4I6qB0UqbTHFMjLhZlxGjquk9XrZ/f4F+AKmLUNC5vpufCvYrc/syJdQ0LW+g58y9iNx+3BYPp4JlzJAx/8pqKI6aCHfHAxn8lqIBTKy4XlcSI6kpPV63/3+Bc08EdLAkUSbLGnsAAAAAAAAAAAAAADxkjZLG5j2o9jkVFRUyiovFFQ1h3Jjod1alU7SVn51Fz/AN1Yjc9uzjZX4G2gDxjiZFGkcbEYxqIiIjcIiJwREPYAAAAAAAAAAAAAAAAAAAAAAAAAAAAAAAAAAAAAAAAAAAAAAAAAAAAAAAAAAAAAAAAAAAAAAAAAAAAAAAAAAAAAAAAAAAABhvAyYbwAyAAAAAAAAAAAAAAAAAAAAAAAAAAAAAAAAAAAAAAAAAAAAAAAAAAAAAAAAAAAAAAAAAAAAAAAAAAAAAAAAAAAAAAAAAAAAAAAAAAAAAAAAAAAAAAAAAAAAAAAAAABhvAyYbwAyAAAAAAAAAAAAAAAAR+jS99n+DPKSABH6NL32f4M8o6NL32f4M8pIAEfo0vfZ/gzyjo0vfZ/gzykgAR+jS99n+DPKOjS99n+DPKSABH6NL32f4M8o6NL32f4M8pIAEfo0vfZ/gzyjo0vfZ/gzykgAR+jS99n+DPKOjS99n+DPKSABH6NL32f4M8o6NL32f4M8pIAEfo0vfZ/gzyjo0vfZ/gzykgAR+jS99n+DPKOjS99n+DPKSABH6NL32f4M8o6NL32f4M8pIAEfo0vfZ/gzyjo0vfZ/gzykgAR+jS99n+DPKOjS99n+DPKSABH6NL32f4M8o6NL32f4M8pIAEfo0vfZ/gzyjo0vfZ/gzykgAR+jS99n+DPKOjS99n+DPKSABH6NL32f4M8o6NL32f4M8pIAEfo0vfZ/gzyjo0vfZ/gzykgAR+jS99n+DPKOjS99n+DPKSABH6NL32f4M8o6NL32f4M8pIAEfo0vfZ/gzyjo0vfZ/gzykgAR+jS99n+DPKOjS99n+DPKSABH6NL32f4M8o6NL32f4M8pIAEfo0vfZ/gzyjo0vfZ/gzykgAR+jS99n+DPKOjS99n+DPKSABH6NL32f4M8o6NL32f4M8pIAEfo0vfZ/gzyjo0vfZ/gzykgAR+jS99n+DPKOjS99n+DPKSABH6NL32f4M8o6NL32f4M8pIAEfo0vfZ/gzyjo0vfZ/gzykgAR+jS99n+DPKOjS99n+DPKSABH6NL32f4M8o6NL32f4M8pIAEfo0vfZ/gzyjo0vfZ/gzykgAR+jS99n+DPKOjS99n+DPKSABH6NL32f4M8o6NL32f4M8pIAEfo0vfZ/gzyjo0vfZ/gzykgAR+jS99n+DPKOjS99n+DPKSABH6NL32f4M8o6NL32f4M8pIAEfo0vfZ/gzyjo0vfZ/gzykgAR+jS99n+DPKOjS99n+DPKSABH6NL32f4M8phKaVVytXMvsVGeUkmG8AMgAAAAABFq66nombU8rWZ4JxVfwAlApW390q/xagnmTt/6Io/L7ol/jNBPCnb/1RALoEWkrqetZtQStfjinBU/AlAAAAAAAAAAAAAAAAAAAAAAAAAAAAAAAAAAAAAAAAAAAAAAAAAAAAAAAAAAAAAAAAAAAAAAAAAAAAAAAAAAAAAAAAAAAAAAAAAAAAAAAAAAAAAAAw3gZMN4AZAAAAAV90uPQoUbGm3PLujb/AFkehsyIvSK789UO3qi70T6nnQoldeqmrfvZCvNx/s/v7y8AwiIjcJuQKiK3C70MgCnrrMir0ih/M1Dd6Im5F+hItVx6bC5sibE8W6Rv9ZYFHWp0G9U9WzcyZebk/Z/f3AXgAAGuT6209T6xg0tPcWMvdQ3nI6ZWu3phVT0sbKKqIqomcmxn5S5XKO4v5eL3d7U/FXYKCnujcdaRrEi/giO2l9iKB+rSpvl9t2mrPPdbvVtpKKmRFklflcZXCbkRVVVVcIiJlTGm77Tan01br1R/4iuhbMicdlVTe1fai5Rfahxn7QtwqdRV1Dom3Px0elmvNe5ODGRRuViL78LuXrVgHY6DU9ouemW6jpa+JbQ+J0/SnZa1GNztKu0iKmMLnKbsEiz3m33+1QXK11UdXRT5WOaNcouFVF+CoqKc05KKigpfsxUtTcqfpVBDRVslTDs55yNJZVe3C8coioWNo13prTXIdS6stVmlpLJEz81RR422qs3NqmVXH31VVVV38QOmA5RcOXa2RyL+RdPXy/08LWvqaqhp9qKDKIqtV29Fc3O/giL1m36K1xZte2Jt0ssr1hRyxyRSojZIXJ+i9EVUTdvTCqioBtBRaj1XZ9JUMFZe65KKCeobTMerXOzI7OE9FF6kVVXgmDU9Ycs9m0vfvyDSUFffbwmOcpqCPaWPKZRHL63sRF9uDl/LHyj2rW2hrfSRUtZa7pR3iFZ6Cuj5qVjVjlRHInW3O7PV1omUA/Qt7vlt07aZrldq2KipIEy6WRdyZ3InaqqvBE3qQ9K60sWtbfLW6fuDa6nhk5qR/NvjVHYRcYc1F4L2HGftLajfNQ0Gm3Wa5pBHXRVDqvmsU8/oPTm2Pzvd6XD2HSbBrShp+T+5XpNKXPTtFaY3vWjqaRKdz2sZtZjbuRUXhndvA30FJpLUdPq3SlBfaSJ8UFbHzjY5MbTN6oqLjduVCtodeW+t5S7homOnnSuoKRtW6VcbCouz6Kb85RHt/X2AWNPqqz1mqqvTcFajrtRwtnnp9l2WMdjC5xhfvN4L+kheHFdL/wCuBrP+iYv3KY2S98s+nrBqW82WuirOlWtsWyyNiPdVvkRFRkTc5VyZTjhOPYB0YHK7Jy6Wus1FTWa+WG8abqq12KZ9xh5tkmeGVXCpldyblT2m/X+/23TNkqbvd6ptLRUzdp8jt/HciIib1VV3IicQLYHG/wD2h7ekSV79I6kZZHLhLitKnN47eOzj/iydOpL/AGytsDb3T18D7W6FZ+lZwxI0TKuVV4Ywuc8OsC2ByF3L7Q1CS1dr0jqS62mBV5y4U9J+bwnFUz1e9U9pvlh1lY9RaUbqKgrU/Jqsc+SST0OZ2Pvo9F+6qY3+zem7eBsQOQu5faGoSWrtekdSXW0wKvOXCnpPzeE4qmer3qntOgaY1TatY2CC8WeodPSTZTe3Zcxybla5F4Ki/VN28C+AAAAAAAAAAAAAAAAAAAAAAAAAAAAAAAAAAAAAAAAAAAAAAAAAAAAAAAAAAAAAAAAAAAAAAAAAAAw3gZMN4AZAAAAAU2mf+5TZ+/zq5+CFyUdCqUN6qaR+5ky85H+3+/uLwAAABTal/wC5Q4+/zqY+ClyUdavTr1T0jN7IV5yT9v8Af3gXgAAHFKCnhrPtZajpqhjZIZrCkcjF4PavMoqL70O1nMrdpK8QfaMuuqZKVEs9Ram08c+23fJmP0dnO1+gq5xj2gU3I9cP4GXHVOgbtU7DLBK+upZJHcaR3pKvuTKOX2vUpdHU82otG8pPKPXxuSa90lXT0SP4spmRuRET3qiNX2xl1yy8l181Ze6G86WlZBWywPt1ftS82j4Hda9qJlyKnFUxjgb1VaVZb+Sqq0raWo7ZtclFTouG7bliVqKq8EVXLlV7VA0HQv8Aqe1P9D3L96c1ap/1HYPen/79ToektH3q3/Zyl0pV0qRXiS2VkCQue1UR8qyqxFciq39JM79xQz8n2o1+yszSLaDN8RqOWl51mf8AvXOY2s7Odn2+wDovJxbqa1cmun6WkibHGlBC9cJjac5iOc5cdauVVU55yKxpTcqPKdQwojKaO4NVkabkZl83BOo6rpiintmkrTQVKI2elo4YZERcojmsRq7/AHoaNydaQvOnuUrXt0uNKkVHd6xklJJttXnG5kcq4RVVMbTU343ga19m2CK40mp9SVDWvu1Zc3xyyO++jcI/GepFc5c9uPYhE+0/aaHoWnbtsRpXJW9G28ek+NUV2FXrRFTd2bXtJtRo/XfJprm63jQtvpr3ZbzJz09vklRjoX5VV2cuTgqqiKmdy4VNyKU+vdC8p3KHSUN3vFupaWalq2R09pp6hqpFEuVkmkerlarspGm5eGdyAbF9pj/NXTn9NRfuPN95U/8ARLqn+jZ/3FNb5bdI3rWNhsdLZqNtRPTXWKaXL2t2I9lyK70lTKIqpnG/2HQL3a4b1Ya61T7oa6nkppFTqa9qtX9oGo8h/wDoV03/ADDv+Y41PTyov2wtUY6rMzPwpiFpSm5W+Tu0/wAF6HS1BfaGne/odYtU2JEarld6SK5FxlVXCoiptYypYcnugNXWTlou2pNQviqkuFsXnauJURnPufGvNsbna2WpHhFVOCJ2gfGl/wDXA1n/AETF+5TEbS9upqv7XeraqoibJJR0Mb4ctzsOWOBu0nYuyqp/xKbHYdH3mi+0XqbVE9KjLRXW+KCGfnGrtPRsKKmznKY5peKdnaZ0zpG9UHL/AKq1NUUrWWqvpIo6efbaqyORsaKmyi5TCsXOUTqApPtPQMTk2oa1G7NRTXOJYpE4tyx+cL7cJ8EIP2jamsqG6KtsdKtbBXV+1JS7aMSd6bDWMVy7kzzj0yu5OJtfLrpG76y5PY7ZYqVtVVtropeb22s9FEc1Vy5UTdtJ+BY8pvJ+uvdKxUdPV9CutBI2eiqVzhkibsLjfhe1OC4XfjAFBNq/lEntz6CXkejfSSRrCsDrvDsKxUxs42cYxuwQOS/k4v8AT8jl/wBJ6hifa/yjLMynasrZXRMfG1MrsqqY2kzjO/fwyen8JeXBlAlt/gVbnV+zzf5S6XHzfZt7G3x68f8Ap6jZNMaIv1t5L66xXDUlZJfLgksslxZK5Vglem7m1XDtlFTqxlVVUxncGk6e1Dr/AJKbBBYL3oiW8WmgRWxV9qftrze0q5c1EXPHrRm7j2m2aaTR/KFyX3mg0giWulufPRzxti2HwTvbvVzEXHq8FwqbkXsprXfeWaw25lnq9H0t/qIW83Fc/wAoMjbIicHPRyoqrjjnZVfeTdB8l12sGhdQ0dVd+h37UL3zST0OWtpHqi7KMVMcFVcqmOxOGQNf09qHX/JTYILBe9ES3i00CK2KvtT9teb2lXLmoi549aM3ce03/kwvekr5pqar0fSsoqV9S6Sop0i5p0czkRXbTUVUyqbOMKqY3JwNTtd95ZrDbmWer0fS3+ohbzcVz/KDI2yInBz0cqKq4452VX3l9yQaBrtEWa5TXWpikut4qelVMcDcRQqucMb24VVyqbupOGVDo4AAAAAAAAAAAAAAAAAAAAAAAAAAAAAAAAAAAAAAAAAAAAAAAAAAAAAAAAAAAAAAAAAAAAAAAAAAGG8DJhvADIAAAACvulu6ZCjo12J4t8bv6iPQXlFXo1d+ZqG7lVdyL9C4ItXQ09azZnia/HBeCp+IElFRW5TegVURuV3IUyafdEv8Wr54U7P+ioP4PulX+M188ydn/VVA+q68pno1D+dqHbkVN6J9SRard0KFzpF255d8jv6j2pKGnombMETWZ4rxVfxJQAAAAAAAAAAAAAAAAAAAAAAAAAAAAAAAAAAAAAAAAAAAAAAAAAAAAAAAAAAAAAAAAAAAAAAAAAAAAAAAAAAAAAAAAAAAAAAAAAAAAAAAAAAAAAAMN4GTDeAGQAAAAAAAAAAAAAAAADV66fVtOtRNEy1LTx7T0zt7Wym/44A2gGlWm66uvFtjrqaO1JDLnG3tou5VRetetDb4ec5lnO7PO4Tb2OGevGerIHsAAAKOru9RBrGhtTUZzE8L5Hqv3spnGPgXgAAAAAABW3b8q8wz8kdF5zb9PpG1jZ9mOvJSVFRrClppJ5vyMyOJqvc5dvcib1A20FDp68VFfp1tzubYafO05VTKN2E/S3quCyZcKWS3Or45myUqNWTnG702U4/sAmA1CjueqL3CtbboaGkpFVeabUbSukROtcdv4f1ljp2+TXR9XR11O2mrqJyMla12WrnOFb8AL4Gr3C8Xl+pJbTZ4qPMMKSyPqNrr6kwvtQ9aRdXdLj6Wlr6PtJznN7e1s9ePaBsYBq96vN3g1LT2i1spHPlh53M+12u7F9gG0A06ovWpLK1Km7UVHPQoqJI+lcu0xF3Z3r/V+JY6jvr7dpr8p0WxIsmxzavyqYd143dQGwAq7FdW3myU9ajWosiYkYn6Lk3Knx/UfN/urLNZp6xWtc9iYjYv6Tl3In19gFsCj0vdZ73p+KtqEY2ZVc1djcm5cdeS8AAoNWXmqslqino2RPllmbEiSZVEyir1KnYQ3Ta1hbtrS2qfH6DHORf1qiAbWCisOo47xz1PLTvpK6m/xsD+Ke1OGUL0AAVkU1yW9SwyU0baBI0WOdH+k5+7KKnx6gLMFHY7xUXK73ilmaxGUMyRx7PHC54/AvAAAAAAAAAAAAAAAAAAAAAAAAAAAAAAAAAAAAAAAAAAAAAAAAAAAAAAAAAAAAGG8DJhvADIAAAAAAAAAAAAAAABEuf+Sav+Zf8AuqSyJc0VbTVom9Vhf+6oFBo+qZR8nkFTJ9yGOaRfcj3KQbRZ6vUtB+VbjdKyFZ1csMNO/ZbG1Fwm7C9hN0lTdN5O4aR3oc/FNHn3ucmf1kCxalp9OW5LTfGS0tTSbSIuwrkkbnKKiont9xRYabrq2mvNdYa+odVSUqJJFO/7z2Ljj24yn6yvttPU6ynqrhPX1VLQxyrFTw079jh+kvxJmmYprnqC46glgfBDO1Iadj9yqxMZXHtwhAs1zh0ZLUWi7I+GLnVlgnRqua9q9W5PZ8QPmmpqyi5SLdSVVS6qZHA/mZX/AH1YrXbnL1qi5Lm9UFZWXP8Ajd4/J9qbGmGxS7D5HdeVXq+JTU1dLdeUe3ViU8sNMtO9IecbhXtRHZdjqyq7jFydb6XWlXLqSJ76d7G9Ee9rnRomN6YT2+wCRaKv8maxgtdJd3XGhq4nLh8qSrE5EVcZThuQsLbUTUGtrjbaiV74apiVVPtrnHU5E/X+CFLRpTTa+tFRQW9KSjfHKkapFzfO4Y7Lsdm9ETJdawY6jWhvcTcut8yLJjisbtzk/v2gJqiev19BSQyyMp7dCssyNdhFe5MIi9u5UX4m0Gr6RjcltqrxU+hNcpXTLtdTEzsp7k3r7i2st3hvlrZXQsfHG5XIiP47lxncQWRqWq5pLlW0mnKd2H1TkkqFT9CJFz+vH6vabLU1EdJSTVEq4jhYsjsdiJlTXdHUstStVf6xuKi4O/Nov6EScET3/sRANi6HT9B6GsTVp+b5rm+rZxjHwFNSU9JSspoImxwMTCMRN2DFVHLNQzRQTcxM9itZIjc7Cqm5cewhRUtfTadWBtX0mvbE5GTPb95+/Gc/DeBGutwulvVkNssvTIUj++kqNRi8NnZ47kIWj1gmqbjVyTufdJpE6TE9ixrFjg1Grlce0+aDXNFDSJDeedorhEmJY3RO3qnWmEXifOnGT3PVddfm076ejliSGLnG4dJjZ9LH4FHk6nv38NLpLQU7IWzMjalTOi7DWo1M7KfpKq/DrPSS73zT1fA29yQVdDUv5tJ4W7KxuXhlN27++eo9qq/1Vhv9Q27pI62T4WCdrMpGuN7Vwmf2qV93uUetJKa02pkksDZUlqKlWK1rWplMJnfneBvZpF8r6W18o9DVVkvMwsolRX7KrxV6JwRVN3NQuMLZuU63pJE17OhOzluU3K8kDwv+qrfdrVJarQ59dV1f5trWMVEbld6qrkQxqujdb+TmCje7afDzTFX2pxNyighhT81EyPPqtRP2Gt8oaK7SMqImfzrP2lHxZv8AsbV9daV9GmrU6XTdmf00T+/BBeP+2tYUVqT0qegTpdR2bX6CL/fgp7axppm01LdqRivqrdKkuy3irF3OT+/VkxpClmWjqbpVsc2ouUiyuReKM4NT6ewDHJ3/AJoQ/wA4/wDabQaloWVtJods8uUZEsr19yKuf2F9aLnHeLVFXRMfGyZFVEdx3KqdXuJIouUL/I1H/v0f7rjbDUeURdmwUsio7EdWxy46k2XHo7lCsmziHpM7+pjIlyvxwUeFc1KflTtz4ty1NM5JUTrwjsKvwT4Eu9UFZWXP+N3j8n2psaYbFLsPkd15Ver4kew0VfctQSahuVM6l/N81TQP+8xvavZ1/FfYVtydb6XWlXLqSJ76d7G9Ee9rnRomN6YT2+wCRaKv8maxgtdJd3XGhq4nLh8qSrE5EVcZThuQsKKpndyj3GndKqwtpGKkedyL6O/H4qUtGlNNr60VFBb0pKN8cqRqkXN87hjsux2b0RMlxQtd/hPubsbuiM3/ACgeGnIlqL1qmFHuj5ybZ227lTO2mU9qEzRlbNNZ5aOre51VQSup5FV2V3LuX+r8Dy0o1yak1KqpjNS3/wB4q9Ty1FgvVXNSMc5t5puaRE6pkVG5+C/FQLfSs89zr7rdXyvWmmm5qnYrvR2W7sont/bk2cr7Pb22qzUtCz/wWIir2u4uX8VyWBAAAAAAAAAAAAAAAAAAAAAAAAAAAAAAAAAAAAAAAAAAAAAAAAAAAAAAAAAMN4GTDeAGQAAAAAAAAAAAAAAAAAA4Hy5rXfeRFx2n0AB8q1HJvbn3n0AMYTOQqIqYVMmQBjCcTWb/AEF5vMz7axsEFskVvOT7arI5qYVUx1bzZwBCqKNFs8tDTObAiwrDGvUz0cJ8D4tFubabRTULV2+ZZsq7hleKr+KlgABhEREwhkAAAB5rG1yormoqpwynA9AAMKiK3C70PlrGsbssa1E7E3H2AAAAAAAAAIF2on3Gz1VHHI2J80as21TKJnieluo2UFtp6Ni5bBG2PPbhMZ/ElgAAABhURUwqZMgDGE4jCZyZAGMYzjiavBa7tdL/AEtdeWU8EFHlYYInK7bev6Sr7MZQ2kAAAAAAAAAAAAAAAAAAAAAAAAAAAAAAAAAAAAAAAAAAAAAAAAAAAAAAAAAAAAMN4GTDeAGQAAAAAAAAAAAAAAAAAAAAAAAAAAAAAAAAAAAAAAAAAAAAAAAAAAAAAAAAAAAAAAAAAAAAAAAAAAAAAAAAAAAAAAAAAAAAAAAAAAAAAAAAAAAAAAAAAAAAAAAAAAMN4GTDeAGQAAAAAAAAAAAAAAACN0Ck7pB8ifQkgCN0Ck7pB8ifQdApO6QfIn0JIAjdApO6QfIn0HQKTukHyJ9CSAI3QKTukHyJ9B0Ck7pB8ifQkgCN0Ck7pB8ifQdApO6QfIn0JIAjdApO6QfIn0HQKTukHyJ9CSAI3QKTukHyJ9B0Ck7pB8ifQkgCN0Ck7pB8ifQdApO6QfIn0JIAjdApO6QfIn0HQKTukHyJ9CSAI3QKTukHyJ9B0Ck7pB8ifQkgCN0Ck7pB8ifQdApO6QfIn0JIAjdApO6QfIn0HQKTukHyJ9CSAI3QKTukHyJ9B0Ck7pB8ifQkgCN0Ck7pB8ifQdApO6QfIn0JIAjdApO6QfIn0HQKTukHyJ9CSAI3QKTukHyJ9B0Ck7pB8ifQkgCN0Ck7pB8ifQdApO6QfIn0JIAjdApO6QfIn0HQKTukHyJ9CSAI3QKTukHyJ9B0Ck7pB8ifQkgCN0Ck7pB8ifQdApO6QfIn0JIAjdApO6QfIn0HQKTukHyJ9CSAI3QKTukHyJ9B0Ck7pB8ifQkgCN0Ck7pB8ifQdApO6QfIn0JIAjdApO6QfIn0HQKTukHyJ9CSAI3QKTukHyJ9B0Ck7pB8ifQkgCN0Ck7pB8ifQdApO6QfIn0JIAjdApO6QfIn0HQKTukHyJ9CSAI3QKTukHyJ9B0Ck7pB8ifQkgCN0Ck7pB8ifQdApO6QfIn0JIAjdApO6QfIn0HQKTukHyJ9CSAI3QKTukHyJ9B0Ck7pB8ifQkgCN0Ck7pB8ifQdApO6QfIn0JIAjdApO6QfIn0HQKTukHyJ9CSAI3QKTukHyJ9B0Ck7pB8ifQkgCN0Ck7pB8ifQdApO6QfIn0JIAjdApO6QfIn0HQKTukHyJ9CSAI3QKTukHyJ9B0Ck7pB8ifQkgCN0Ck7pB8ifQdApO6QfIn0JIAjdApO6QfIn0HQKTukHyJ9CSAI3QKTukHyJ9B0Ck7pB8ifQkgCN0Ck7pB8ifQdCpEXKU0Ke3YRP6iSYbwAyAAAAAAAAAAAAAAAAAAAAAAAAAAAAAAAAAAAAAAAAAAAAAAAAAAAAAAAAAAAAAAAAAAAAAAAAAAAAAAAAAAAAAAAAAAAAAAAAAAAAAAAAAAAAAAAAAAAAAAAAAABhvAyYbwAyAAAAAAAAAAAAAAAAAAAAAAAAAAAAAAAAAAAAAAAAAAAAAAAAAAAAAAAAAAAAAAAAAAAAAAAAAAAAAAAAAAAAAAAAAAAAAAAAAAAAAAAAAAAAAAAAAAAAAAAAAABhvAyYbwAyAAAAAAAAAAAAAAAAAAAAAAAAAAAAAAAAAAAAAAAAAAAAAAAAAAAAAAAAAAAAAAAAAAAAAAAAAAAAAAAAAAAAAAAAAAAAAAAAAAAAAAAAAAAAAAAAAAAAAAAAAABhvAyYbwAyAAAAAAAAAAAAAAAAAAAAAAAAAAAAAAAAAAAAAAAAAAAAAAAAAAAAAAAAAAAAAAAAAAAAAAAAAAAAAAAAAAAAAAAAAAAAAAAAAAAAAAAAAAAAAAAAAAAAAAAAAABhvAyYbwAyAAAAAAAAAAAAAAAAAAAAAAAAAAAAAAAAAAAAAAAAAAAAAAAAAAAAAAAAAAAAAAAAAAAAAAAAAAAAAAAAAAAAAAAAAAAAAAAAAAAAAAAAAAAAAAAAAAAAAAAAAABhvAyYbwAyAAAAAAAAAAAAAAAAAAAAAAAAAAAAAAAAAAAAAAAAAAAAAAAAAAAAAAAAAAAAAAAAAAAAAAAAAAAAAAAAAAAAAAAAAAAAAAAAAAAAAAAAAAAAAAAAAAAAAAAAAABhvAyYbwAyAAAAAAAAAAAAAAAAAAAAAAAAAAAAAAAAAAAAAAAAAAAAAAAAAAAAAAAAAAAAAAAAAAAAAAAAAAAAAAAAAAAAAAAAAAAAAAAAAAAAAAAAAAAAAAAAAAAAAAAAAABhvAyYbwAyAAAAAAAAAAAAAAAAAAAAAAAAAAAAAAAAAAAAAAAAAAAAAAAAAAAAAAAAAAAAAAAAAAAAAAAAAAAAAAAAAAAAAAAAAAAAAAAAAAAAAAAAAAAAAAAAAAAAAAAAAABhvAyYbwAyAAAAAAAAAAAAAAAAAAAAAAAAAAAAAAAAAAAAAAAAAAAAAAAAAAAAAAAAAAAAAAAAAAAAAAAAAAAAAAAAAAAAAAAAAAAAAAAAAAAAAAAAAAAAAAAAAAAAAAAAAABhvAyYbwAyAAAAAAAAAAAAAAAAAAAAAAAAAAAAAAAAAAAAAAAAAAAAAAAAAAAAAAAAAAAAAAAAAAAAAAAAAAAAAAAAAAAAAAAAAAAAAAAAAAAAAAAAAAAAAAAAAAAAAAAAAABhvAyYbwAyAAAAAAAAAAAAAAAAAAAAAAAAAAAAAAAAAAAAAAAAAAAAAAAAAAAAAAAAAAAAAAAAAAAAAAAAAAAAAAAAAAAAAAAAAAAAAAAAAAAAAAAAAAAAAAAAAAAAAAAAAABhvAyYbwAyAAAAAAAAAAAAAAAAAAAAAAAAAAAAAAAAAAAAAAAAAAAAAAAAAAAAAAAAAAAAAAAAAAAAAAAAAAAAAAAAAAAAAAAAAAAAAAAAAAAAAAAAAAAAAAAAAAAAAAAAAABhvAyYbwAyAAAAA+HLsptLwQ0fU3KRQWd76WiTplS3c7C4Y1fa7rX2J8UIPKZq+S1Rpa6KTYnmbmV6cWtXgie1f1J7zkStVr3S7TlVeokzrpD6/wAG8CryaRnz9p7R8fq3Op5T9SVC7UcsVInYxiL+3IpuU/UlOu1JNDVp2PYifswUemNOz6pva0LJW07WtV7nK3Popjq696oNS6dn0te0oXy9IarUe1yNx6K56ureij7z6X3Pw32vuvlr5tb1r0+v+XVdMcpFBeHtpa1Oh1Ltzcrljl9jupfYvxU3dqo5MpwU/LmyrnpLtORU6jrvJlq+S6Rraq2Tbnhb+ae7i5qcUX2p+tPcWJ33fM+M+BV41Jz8ftHePh9HSQAHyLBj3jgU0+prXTXdtslqWsq34xGqLxXgmcYyvUmSrSlr7isbXCpxQxs7s/pGf0Sp/hBQPvjrR0hOmImebwvZnjjGcb8ZBWlrb1G9dVyACIAAAAAMHzlUDntRuVU1mo19pqnmfFLcU22KqLsxPVMp7URULDZjw5MvTHWZ+kbbNlevcM7Rr9v1pYLnKkVNcYle5cIj2q3K9ibSJlTYOLc/eKmTFkxT5b1mJ+fR9gAxYAAA+d2yYQdZX3W6U1moH1lY/YgjxlcZ4rhEwhStZtMVrG5lZZMNx1FfbLlT3i3xVlK/nIpN7VxjguF3L2KhYL2AmJrMxMdYfQAIPPCrxGFTh1EO53OltVBJWVcvNxRIm07ZVeK4Tcm/ifVur6a6W+OqpJOchkTLXb0z8d5V8lvL5tdO204AEQAAAAAAAAAAAAAAAAAAAAAAAAAAAAAAAAAAAAAAAAAAAAAAAAAAAAAAAAAAAAAAAAAAAAADDeBkw3gBkAADDl2WOXsMnzJ/ine4LD83airnXXU9XWudtbUrlT+Si4an4Jgj0douNYx81FST1DUXCujY57UX24RT4qYHQzzRP3PjerF96Lg3nRXKFbrJYUoaumle+Jy4WJGrlFXO/KpvTh7jGJ3PV+s8jLl4vEr7pXza1Gvk9+S+0XCh1LLJV0NRCzo7kR8sStRVVzVxlUTfuHKfaLjXalikpKGonZ0dqK+OJXIio5y4yiLv3m46c11btSXF9JSwVEUjYleqyI1EwionU5d+8aj11btN3FtJVQVEsjokeixo1UwqqnW5N+4y6PiPe+X7/wC29n9/XZxGrtFxo2MmraSanRVwjpGOY1V9mUQkacrnWrU1HXNds7MjVX+Sq4cn4pk27WvKFbr3YloaSlna+VyZWXZTCIud2FXevD3GjUsDpp4om73uejE96rgkzrs+34+XLyuJb3unl3uNfJ+nGLtNRe1D6PiP/Ft9yH2V+Sy+V4nDddUk9ZylVMVNlZcNVqJxVUjR2727tx3BP0jlNWiScuaRr6zf+UV73gd5x5cl49KTP5Nq0Hqht+taQVDsV9KiNkT1k6nfj1+38DV49/Ltnq2l/wCQp96rtVTo/UEOo7Yz8xI78+1OCKvFF/2V/Uv4FbZrlFduWKGtp1asUyKvtT8yuUX2ou4nwiXdx8FZjLyMP8FqW/CfWP7N71NrWi049tMqSVVa9MpFH1J1bS9WeripWWzlKppq1tLc6CW2PkxsvkXLd/DOURURe3BqLJrlJymVs1Lb2V1VHLJssc5EwiLsou9U4JjBaanpNVanp44ajTzIHRP2myMlbnhhU3u4L/UNy1x4dxqRSmTXWNzbzRExv4Q3DU2r6fTlTb45Y1kZVquXouEaiKmV9vHgTdRX2DT1ldWyNV+FRGRouFcq9WTTtaWaf/BzQz1CZqbeyPnN+dyojXJnr34z7iFd692qqPS9sa7bWoRr5v8Ah3Kv6nF6uTFwcV647x2iZi0/Tr+TftOX+G/2ZldExY8qqPjVcq1ydX9ZE0xq2HUlXXRQQvYyleiI9Vyj0XOF9nDgaXZbg/TVv1PbXO2XU21JD+O5F/W02LkrtvRNLrVuT06yRX/8Kein60VfxHVhyOHjw48mTXTcRX8ev5N0en5p38k47yb2ehvNyuLLhTMmSNrVaj+rKqdifuidn1ThejaK9XGtr2WSsippG45zbVUzv3cGqT1hv8Jifds+reX+Hr8Os/BsXKLpS1Wqzx1luhbTSo9G7COXD0wvUvWmOo27S93X+A9LcLlNsbMSq+R/Y1VTK9qqificzrYLhVayp7Pqe5PxtIxHpvbvTcrc4RM8M43dfA3PlKYtu0LT0dJHsUySxxYb6iIqonxRBE93TycM3ph4uS3mm0783yn4TPd5y8qjXSPdRWioqaZn3pc4wnbhEXH4qbTp7UtFqKi6RSuVFauHxv8AvMX2+zsU0jTNbqWk07T09t09FNSuZlJOdRFkzv2l38VPTQ1gvVv1RV1tXQpR08sb/wA2j2qiKqoqIiIq8P2CNufk8PjRS/l1Wa9vvRMz9Y9JWy8pdvjqa+CWmlR1JJzbERyKsq52dybsdvuPK0cp9FcLg6lrKV9AqIqo97st3JlUXciouPYUGhaaKflFubnRtejOdcmepVem9PbhVPrlEpYHa2tbOba3nEYj/wDbTaVN/wCA6623RwuJ7aeNNZ3Nd7326b7LeXlZpGViNW21DaVV3SuVEVydqN/tLzUV2tb9GzV1TEldRysaqR8NvKpjfxTC/ihB5SKKn/gJUSLE1roljVi7P3fSRu7s3Lg12V6y8hMSIu27ax8JlHWNtGLjcfNTHlxxNfvxWev4722am1Lb7VoCK7UlIsdMiYbAi42VV+yqZ9+VyQavlSomUcMtJRy1Mz2c5I1HYSL2KuF3/hwKWdrv8CEC9W3/APFU2fk6oaZmjKZ7Ym7cu06RetV2lRM/gmBvfQycfj4cds2Ss2mLzHf803SusaHU8UnNI+Coj+9E/GcdqY4oR9Ua6odNzpTLE+qqVTKxsciIxF4bS9WercpqekY4qXlTuUTPzcaLMmE4Y2kVE/DB42SCK6crtY6qa2RIpZHRo/fvauy39W9PcOumXuHHrmtaYnyRXza+vpt76j1tT33SFdSup30lTiNyRyO3Km2nBd37OBtfJzJzegKF73NRuHqq9SJtuK7lToaddK9I5trZYXpsL179yp+PH8CuppnxchTnw7nbDm7uxZla79SqXt3Zzjx5+DSuKPLFskR8ddNJ9XynwrXPgtltmuEcfGRPRTd1omFXHvwXmmNYUWpontiRYKmLc+B+M47U7UNH0TV6gorEjrXYIqmN7nKsqvRFcqLjfvThgkWLT9/dyiMvU9uSggdnnWMe3Z3tVF3Iqqqqu/37xGzkcDi1jJTpWax0nzRMzMekx82w3HlDorZfqu3TwPRtM3POI5PSdhFwifjjOSy0nqVNTUc1UlM+nSN+zvXKLuRdy4T8TQm0rKrlokhkY2VqSbWF3plI8p+tDrTGNb930UJEzLh52HBx6UpWv3rVid7/AEewADxwAAAAAAAAAAAAAAAAAAAAAAAAAAAAAAAAAAAAAAAAAAAAAAAAAAAAAAAAAAAAAAAAw3gZMN4AZAAAwv3VMgDhHKLYpbTqKSeNv8XqlWVF6sr95Pjv9ymobDEftpxP0ff7HS3+2Po6mPcu9jk4tcnBUOGaj0ZcLBO5Z4pHQZ9GdjcsX39i+xf1kmNdX6P4F4xjy4owZZ1aOn1XXJZVwwardz0rY0kgc1uVxl2Wrj4Io5UquGfVbVhlbIkcDWuwucOy5cfBUNKxIm9gxIu95N9Hqf6bX333zz+mtGyxZNteJt3JxY5btqOOeRv8XpVSVezKfcT47/chWab0ZcL/ADo6CKRsGfSme3DE93avsT9R3OwWOm0/bGUdMzcm9714ucvFVLEb6vK8d8Yx4sU4MU7tPT6LZv3TIBX5y+EXKnP5tLV8nKzFe0hToiJlZMpuwzZxjOc59hv6Km17z6LLo4/Ivx/NNP8AlEx+EotfRRXGjlpZ2NkimYrXNXsU5ppjQFwsnKAlWse1RxbSpLlN6bCtTdnOd+/cdV4oYb6KcStnH52Xj0vip2tGpc91JpG7U+okv2nnI6pd/jIlVEyuMKu/CKipxTKb96eyHV0OuNUOZR1kUVBSZ9NzFwi+9NpVX2JwOmNX0neiZxkmm2niWSIjdYma9ImY6x/16KyqtUdXp6S1ySK9HQ8ztrvX7uEVfb1mjaC0Zc7ZfnVt1g2IqeNWQemjsqqrnGFXdhV+PvOmIgTc1cFasXOy4sd8Ve1u/wDj6uZa60bc7hqFau1xbcVSxrZvTRuFRU45VN2ERfwOg2mgZbbVTUcaehBG1ifgmM/iTUXdvCLx9IkJm5mTNirit2r++r5e3bjc3/ZNB5O9L19hr7lLWQpGyRUbGuUXb3quUwq7vedCPkjDFyb4sdsVe1tb/BpHKJpOW90kVXb4tuug3bGURZGL1ZXrRd6fiT1slRfNDR2y7+hVuiTacnpbL04KuOK9vbvNo4ZPlMo5fSK2e/ZYx1xx/wAZ3E+sf4cxoabXmnKT8nUtHT1VOxVSKRVRcJx3b0XHvQvNGaevVFW1VzvVS51TUpjmtvKImc5XG7PUiJuRDdEQZ3CG3L4hfJWY8tYm3eYjrLQNH6Zudq1jdq6piayCTbSN+0i7eXIqLhFzwTrM6y01crtqu01lLE18UbmpK/KJsYdtZwq54dhv2MjGEwPTTH/UMvtvbdN61/TTWta2mru+j6qipGbdQ/YVG5RNrDkVUyu7ghSSaWuaclKWdIU6cnpc3lP/ADFdjOcZwvadAx6IxsoXbHFzsmGkY6xGot5vx/s5/UaWuT+SaOzNizXNTKx7SeursZzjOF7TY9I2yotGlKOiqW7E8bV2m5zhVVVxlN3WXv6OU4mP0MY3kgy83JlxzjtrU2m34z+jn9k0xdKTlGrblPAiUcm2rZMpv2lRcYzn37iPqvR91p9TMv8Ap9P4wq5dGioio7GFVM7lRU4odI2d+11jh+A1DbXxPNXJGTUdvLr0mPm5Zd9P601RaHOuPNxLDh0VNG5qLI7KIqrvVNzc4yvHqNq07p57dBxWe5xbLnse17EVFxtOVeKbspn4m1IZX7vYXbHL4jkyUjHERWIncajWnLaG1a00kslHbYY7hSuftNVcblXrRNpFT2pvQtNMWLUL9QOvd8nWOTZVrYWvyiou7ComURqdnHO9fbvi5yoa7fheJNLk8Rves7rWJt0mddZaDSaZr4eVaa7OiToe96SZTflmzjGc5z7Df9kbKH1gkdHLn5F+RMTf0iI/kyAA0AAAAAAAAAAAAAAAAAAAAAAAAAAAAAAAAAAAAAAAAAAAAAAAAAAAAAAAAAAAAAAAABhvAyYbwAyAAAAAHm6NsjFa9rVRdyou9FPQA7Ncq9C6crF2pLZC1f8A7vLP2KgpNC6co1zHbIXKn/mZf+1VNgwZxjgOjo97z68vnnX1l8sjbGxGsa1ETciJuQ9AA5+4AAAAAAAAAAAAAAAAAAAAAAAAAAAAAAAAAAAAAAAAAAAAAAAAAAAAAAAAAAAAAAAAAAAAAAAAAAAAAAAAAAAAAAAAAAAAAAAAAAAAAAAAAAAAAGG8DJhvADIAAAAAAAAAAAAAAAAAAAAAAAAAAAAAAAAAAAAAAAAAAAAAAAAAAAAAAAAAAAAAAAAAAAAAAAAAAAAAAAAAAAAAAAAAAAAAAAAAAAAAAAAAAAAAAAAAAAAAAAAAAGG8AAP/2Q==;" vertex="1" parent="weA9xtiZrkl5eeY-r4LS-72">
          <mxGeometry x="335" width="428.33927286356817" height="761.8740629685158" as="geometry" />
        </mxCell>
        <mxCell id="weA9xtiZrkl5eeY-r4LS-84" value="" style="rounded=0;whiteSpace=wrap;html=1;strokeColor=none;" vertex="1" parent="weA9xtiZrkl5eeY-r4LS-72">
          <mxGeometry x="340" y="4.881329305135951" width="480" height="123.05673716012085" as="geometry" />
        </mxCell>
        <mxCell id="weA9xtiZrkl5eeY-r4LS-85" value="&lt;h1 style=&quot;&quot;&gt;&lt;font style=&quot;font-size: 21px;&quot;&gt;Get-R-Done&lt;/font&gt;&lt;/h1&gt;" style="rounded=0;whiteSpace=wrap;html=1;strokeColor=#6c8ebf;fillColor=#dae8fc;fontStyle=1;align=center;" vertex="1" parent="weA9xtiZrkl5eeY-r4LS-72">
          <mxGeometry x="10" y="40" width="330" height="47.91" as="geometry" />
        </mxCell>
        <mxCell id="weA9xtiZrkl5eeY-r4LS-86" value="" style="endArrow=none;html=1;rounded=0;entryX=0.909;entryY=0.115;entryDx=0;entryDy=0;exitX=0;exitY=1;exitDx=0;exitDy=0;entryPerimeter=0;" edge="1" parent="weA9xtiZrkl5eeY-r4LS-72" source="weA9xtiZrkl5eeY-r4LS-85" target="weA9xtiZrkl5eeY-r4LS-82">
          <mxGeometry width="50" height="50" relative="1" as="geometry">
            <mxPoint x="135" y="136.74662668665667" as="sourcePoint" />
            <mxPoint x="185" y="87.90854572713643" as="targetPoint" />
          </mxGeometry>
        </mxCell>
        <mxCell id="weA9xtiZrkl5eeY-r4LS-87" value="&lt;h1&gt;&lt;font style=&quot;font-size: 25px;&quot;&gt;Bob&#39;s Tasks&lt;/font&gt;&lt;/h1&gt;" style="rounded=0;whiteSpace=wrap;html=1;align=center;fillColor=#d5e8d4;strokeColor=#82b366;" vertex="1" parent="weA9xtiZrkl5eeY-r4LS-72">
          <mxGeometry x="340" y="92.79446374622357" width="450" height="35.14360271903323" as="geometry" />
        </mxCell>
        <mxCell id="weA9xtiZrkl5eeY-r4LS-88" value="&lt;h2&gt;&lt;font style=&quot;font-size: 21px;&quot;&gt;&lt;b&gt;Logout&amp;nbsp;&lt;/b&gt;&lt;/font&gt;&lt;/h2&gt;" style="rounded=0;whiteSpace=wrap;html=1;align=right;strokeColor=none;" vertex="1" parent="weA9xtiZrkl5eeY-r4LS-72">
          <mxGeometry x="837" y="43.68" width="120" height="42.32" as="geometry" />
        </mxCell>
        <mxCell id="weA9xtiZrkl5eeY-r4LS-89" value="" style="shape=image;verticalLabelPosition=bottom;labelBackgroundColor=default;verticalAlign=top;aspect=fixed;imageAspect=0;image=https://www.svgrepo.com/download/42233/pencil-edit-button.svg;" vertex="1" parent="weA9xtiZrkl5eeY-r4LS-72">
          <mxGeometry x="756" y="92.79446374622357" width="33.4607250755287" height="33.4607250755287" as="geometry" />
        </mxCell>
        <mxCell id="weA9xtiZrkl5eeY-r4LS-90" value="" style="html=1;shadow=0;dashed=0;shape=mxgraph.bootstrap.rrect;rSize=5;strokeColor=#CED4DA;html=1;whiteSpace=wrap;fillColor=#FFFFFF;fontColor=#7D868C;align=left;spacing=15;spacingLeft=40;fontSize=14;" vertex="1" parent="weA9xtiZrkl5eeY-r4LS-72">
          <mxGeometry x="340.24" y="36" width="430" height="52" as="geometry" />
        </mxCell>
        <mxCell id="weA9xtiZrkl5eeY-r4LS-91" value="&lt;font style=&quot;font-size: 18px;&quot;&gt;Sort List by...&lt;/font&gt;" style="html=1;shadow=0;dashed=0;shape=mxgraph.bootstrap.leftButton;strokeColor=#6C757D;gradientColor=inherit;fontColor=inherit;fillColor=inherit;rSize=5;perimeter=none;whiteSpace=wrap;resizeHeight=1;fontSize=14;align=left;spacing=15;" vertex="1" parent="weA9xtiZrkl5eeY-r4LS-90">
          <mxGeometry width="170" height="48.73" relative="1" as="geometry" />
        </mxCell>
        <mxCell id="weA9xtiZrkl5eeY-r4LS-92" value="" style="shape=triangle;direction=south;fillColor=#6C767D;strokeColor=none;perimeter=none;" vertex="1" parent="weA9xtiZrkl5eeY-r4LS-91">
          <mxGeometry x="1" y="0.5" width="10" height="5" relative="1" as="geometry">
            <mxPoint x="-17" y="-2.5" as="offset" />
          </mxGeometry>
        </mxCell>
        <mxCell id="weA9xtiZrkl5eeY-r4LS-93" value="&lt;font style=&quot;font-size: 24px;&quot;&gt;Custom Sort&lt;/font&gt;" style="text;html=1;strokeColor=none;fillColor=none;align=center;verticalAlign=middle;whiteSpace=wrap;rounded=0;fontSize=24;" vertex="1" parent="weA9xtiZrkl5eeY-r4LS-90">
          <mxGeometry x="172.76" y="16.182499999999997" width="194.24" height="24.365" as="geometry" />
        </mxCell>
        <mxCell id="weA9xtiZrkl5eeY-r4LS-94" value="" style="shape=image;verticalLabelPosition=bottom;labelBackgroundColor=default;verticalAlign=top;aspect=fixed;imageAspect=0;image=https://cdn-icons-png.flaticon.com/512/6438/6438882.png;" vertex="1" parent="weA9xtiZrkl5eeY-r4LS-90">
          <mxGeometry x="378" width="52" height="52" as="geometry" />
        </mxCell>
        <mxCell id="weA9xtiZrkl5eeY-r4LS-95" value="" style="ellipse;whiteSpace=wrap;html=1;aspect=fixed;fillColor=#d5e8d4;strokeColor=#82b366;" vertex="1" parent="weA9xtiZrkl5eeY-r4LS-72">
          <mxGeometry x="353" y="254" width="26" height="26" as="geometry" />
        </mxCell>
        <mxCell id="weA9xtiZrkl5eeY-r4LS-96" value="" style="ellipse;whiteSpace=wrap;html=1;aspect=fixed;fillColor=#dae8fc;strokeColor=#6c8ebf;" vertex="1" parent="weA9xtiZrkl5eeY-r4LS-72">
          <mxGeometry x="353" y="537" width="26" height="26" as="geometry" />
        </mxCell>
        <mxCell id="weA9xtiZrkl5eeY-r4LS-97" value="" style="ellipse;whiteSpace=wrap;html=1;aspect=fixed;fillColor=#0050ef;fontColor=#ffffff;strokeColor=#001DBC;" vertex="1" parent="weA9xtiZrkl5eeY-r4LS-72">
          <mxGeometry x="352" y="722" width="29" height="29" as="geometry" />
        </mxCell>
        <mxCell id="weA9xtiZrkl5eeY-r4LS-98" value="" style="shape=cross;whiteSpace=wrap;html=1;" vertex="1" parent="weA9xtiZrkl5eeY-r4LS-72">
          <mxGeometry x="358" y="726" width="17" height="21" as="geometry" />
        </mxCell>
        <mxCell id="weA9xtiZrkl5eeY-r4LS-102" value="" style="line;strokeWidth=2;html=1;" vertex="1" parent="weA9xtiZrkl5eeY-r4LS-72">
          <mxGeometry x="300" y="-5.12" width="463.34" height="10" as="geometry" />
        </mxCell>
        <mxCell id="weA9xtiZrkl5eeY-r4LS-104" value="" style="rounded=0;whiteSpace=wrap;html=1;strokeColor=none;" vertex="1" parent="weA9xtiZrkl5eeY-r4LS-72">
          <mxGeometry x="352" y="140" width="30" height="50" as="geometry" />
        </mxCell>
        <mxCell id="weA9xtiZrkl5eeY-r4LS-103" value="" style="shape=image;verticalLabelPosition=bottom;labelBackgroundColor=default;verticalAlign=top;aspect=fixed;imageAspect=0;image=https://cdn-icons-png.flaticon.com/512/3141/3141684.png;" vertex="1" parent="weA9xtiZrkl5eeY-r4LS-72">
          <mxGeometry x="358" y="150" width="30" height="30" as="geometry" />
        </mxCell>
        <mxCell id="weA9xtiZrkl5eeY-r4LS-111" value="" style="rounded=0;whiteSpace=wrap;html=1;fillColor=none;" vertex="1" parent="weA9xtiZrkl5eeY-r4LS-72">
          <mxGeometry x="392" y="144" width="120" height="30" as="geometry" />
        </mxCell>
        <mxCell id="weA9xtiZrkl5eeY-r4LS-112" value="" style="line;strokeWidth=2;direction=south;html=1;shadow=1;" vertex="1" parent="weA9xtiZrkl5eeY-r4LS-72">
          <mxGeometry x="457" y="146" width="10" height="26" as="geometry" />
        </mxCell>
      </root>
    </mxGraphModel>
  </diagram>
</mxfile>
